<svg xmlns="http://www.w3.org/2000/svg" width="48" height="48" viewBox="0 0 48 48"><path fill="#4b7bb2" d="M46.21,29.95c-0.98-4.98-1.38-9.94-3.32-14.62c-0.35-0.84-0.76-1.38-1.21-2.17	c-0.26-0.44-0.51-0.89-0.84-1.27c-0.41-0.47-0.91-0.84-1.42-1.19c-1.91-1.33-3.96-2.54-6.22-3.1c-1.03-0.26-2.14-0.37-3.16-0.05	c0.047,0.073-0.274,2.352-1.077,2.256c-4.776-0.569-8.531-0.096-10.616,0.191c0-0.936-0.535-1.53-0.457-2.817	c-1.05-0.14-2.09,0.2-3.09,0.53c-2.21,0.74-4.49,1.51-6.27,3.02c-2.22,1.89-3.39,4.63-4.28,7.41C3.5,20.5,3.29,24.11,2.58,27.1	c-0.28,1.19-0.72,2.34-0.96,3.54c-0.23,1.2-0.27,2.49,0.23,3.61c0.71,1.61,2.34,2.57,3.88,3.43c0.78,0.43,1.55,0.86,2.33,1.29	c0.69,0.38,1.38,0.77,2.13,1.04c1.05,0.37,2.18,0.49,3.29,0.36c0.3-0.04,0.62-0.1,0.89-0.25c0.54-0.28,0.87-0.85,1.17-1.38	c0.04-0.08,0.09-0.16,0.08-0.25c-0.01-0.17-0.19-0.27-0.35-0.33c-2.69-1.11-2.979-2.23-4.739-4.54c1.64,1.65,2.419,2.16,4.649,2.83	s4.57,0.9,6.89,0.92c6.2,0.08,9.905,0.325,15.195-2.915c0.24-0.15,0.56-0.25,0.59,0.03c-2.22,2.3-2.435,2.795-5.335,4.155	c0.17,0.82,0.78,1.51,1.59,1.74c0.81,0.24,1.68,0.15,2.51,0c2.8-0.5,5.48-1.7,7.72-3.47c0.62-0.49,1.21-1.03,1.61-1.71	C46.84,33.64,46.55,31.71,46.21,29.95z M20.37,27.83c-0.21,0.88-0.69,1.74-1.47,2.23c-1.17,0.74-2.85,0.44-3.84-0.53	c-0.96-0.94-1.31-2.33-1.35-3.66c-0.05-1.54,0.4-3.3,1.8-4.03c0.97-0.5,2.23-0.35,3.13,0.27c0.9,0.63,1.56,1.81,1.72,2.88	C20.49,25.87,20.57,26.94,20.37,27.83z M33.33,28.53c-0.31,0.44-0.68,0.86-1.15,1.15c-0.9,0.53-2.11,0.49-3.01-0.04	c-1.3-0.76-1.86-2.4-1.59-3.85c0.26-1.45,0.99-2.66,2.16-3.6c0.67-0.54,1.39-0.79,2.24-0.58c0.29,0.07,0.55,0.21,0.8,0.37	c1.04,0.69,1.62,1.91,1.67,3.12C34.49,26.32,34.03,27.52,33.33,28.53z"/><path fill="#010101" d="M35.221,41.028c-0.413,0-0.835-0.046-1.252-0.166c-0.983-0.285-1.727-1.1-1.938-2.126	c-0.046-0.227,0.068-0.455,0.278-0.554c1.955-0.914,1.359-0.599,3.206-2.18c-4.675,2.37-7.577,1.939-13.449,1.872	c-2.719-0.033-5.019-0.343-7.033-0.948c-0.894-0.268-1.801-0.626-2.668-1.046c0.988,0.767,2.021,1.373,3.091,1.814	c0.158,0.065,0.635,0.263,0.666,0.767c0.014,0.241-0.089,0.423-0.145,0.521c-0.286,0.513-0.68,1.218-1.374,1.582	c-0.364,0.191-0.762,0.26-1.066,0.297c-1.178,0.146-2.395,0.015-3.518-0.385c-0.788-0.279-1.509-0.682-2.206-1.07l-2.325-1.292	c-1.39-0.773-3.293-1.832-4.1-3.663c-0.473-1.069-0.558-2.383-0.254-3.905c0.14-0.699,0.342-1.383,0.538-2.044	c0.149-0.503,0.3-1.007,0.421-1.517c0.315-1.322,0.532-2.782,0.742-4.194c0.265-1.782,0.515-3.466,0.942-4.806	c0.837-2.621,2.018-5.579,4.432-7.633c1.879-1.6,3.659-2.263,5.796-2.975c0.999-0.332,2.773-0.848,3.948-0.696	c0.206,0.027,0.29,0.169,0.337,0.371c0.126,0.735,0.153,1.071,0.516,2.334c1.721-0.115,4.935-0.708,10.118-0.134	c0.398-0.861,0.746-1.737,1.113-2.231c0.964-0.311,1.94-0.239,3.285,0.094c2.522,0.626,4.739,2.025,6.388,3.175	c0.521,0.363,1.065,0.76,1.507,1.272c0.364,0.422,0.634,0.893,0.895,1.348c0.138,0.239,0.271,0.455,0.399,0.664	c0.301,0.486,0.585,0.945,0.841,1.563c1.452,3.499,2.064,7.204,2.656,10.787c0.216,1.306,0.433,2.617,0.689,3.931	c0.374,1.906,0.658,3.909-0.314,5.591c-0.459,0.794-1.135,1.386-1.735,1.859c-2.307,1.818-5.052,3.053-7.939,3.569	C36.246,40.956,35.74,41.028,35.221,41.028z M33.127,38.899c0.211,0.481,0.623,0.858,1.12,1.002	c0.745,0.216,1.572,0.115,2.283-0.012c2.726-0.488,5.318-1.653,7.496-3.37c0.526-0.415,1.114-0.927,1.489-1.574	c0.799-1.383,0.536-3.178,0.199-4.898c-0.26-1.323-0.478-2.645-0.695-3.96c-0.609-3.689-1.186-7.175-2.594-10.567	c-0.226-0.543-0.477-0.95-0.768-1.421c-0.134-0.218-0.272-0.442-0.416-0.691c-0.249-0.434-0.483-0.844-0.785-1.193	c-0.365-0.424-0.834-0.765-1.321-1.104c-1.578-1.1-3.428-2.412-5.792-2.998c-0.554-0.218-1.81-0.4-2.714-0.331	c-0.1,0.008-0.661,2.593-1.601,2.488c-4.655-0.666-9.421-0.257-10.684,0.087c-0.318,0.202-0.858-1.711-1.027-2.749	c-0.345,0.094-2.035,0.472-2.357,0.579c-2.05,0.683-4.374,1.456-6.104,2.931c-2.223,1.891-3.333,4.688-4.127,7.176	c-0.403,1.262-0.647,2.906-0.906,4.647c-0.213,1.434-0.434,2.915-0.759,4.279c-0.126,0.528-0.28,1.049-0.435,1.57	c-0.189,0.639-0.386,1.3-0.517,1.954C1.849,32.06,1.913,33.173,2.3,34.05c0.622,1.41,2.031,2.28,3.672,3.193L8.3,38.532	c0.662,0.369,1.346,0.751,2.055,1.003c0.978,0.347,2.036,0.463,3.059,0.334c0.236-0.029,0.506-0.074,0.726-0.189	c0.37-0.194,0.634-0.598,0.903-1.074c-2.511-1.042-2.882-2.019-4.909-4.68c-0.16-0.209-0.13-0.507,0.069-0.68	c0.196-0.173,0.495-0.163,0.683,0.024c1.653,1.663,2.458,2.106,4.435,2.699c1.924,0.577,4.135,0.873,6.758,0.905	c0.16,0.002,0.32,0.003,0.479,0.003c6.365,0,9.651,0.089,14.442-2.848c0.261-0.161,0.642-0.318,0.982-0.15	c0.21,0.104,0.346,0.307,0.372,0.558c0.016,0.147-0.035,0.295-0.139,0.401C35.908,37.211,35.79,37.587,33.127,38.899z"/><path fill="#010101" d="M17.392,30.977c-0.962,0-1.949-0.374-2.678-1.084c-0.929-0.903-1.447-2.29-1.502-4.008	c-0.064-2.102,0.708-3.778,2.067-4.485c1.099-0.573,2.566-0.451,3.649,0.304c0.966,0.676,1.738,1.967,1.923,3.213	c0.187,1.246,0.188,2.236,0.001,3.025c-0.266,1.125-0.864,2.028-1.687,2.544C18.639,30.815,18.021,30.976,17.392,30.977z M16.809,22.036c-0.377,0-0.746,0.082-1.067,0.25c-1.498,0.778-1.55,2.928-1.529,3.567c0.032,1.014,0.266,2.413,1.199,3.322	c0.869,0.848,2.286,1.051,3.224,0.462c0.807-0.506,1.126-1.424,1.245-1.926c0.153-0.654,0.148-1.546-0.017-2.648v-0.001	c-0.146-0.976-0.765-2.021-1.508-2.539C17.896,22.202,17.344,22.036,16.809,22.036z"/><path fill="#010101" d="M30.729,30.558c-0.627,0-1.262-0.162-1.81-0.485c-1.396-0.821-2.151-2.618-1.836-4.37	c0.282-1.566,1.069-2.878,2.341-3.899l0,0c0.857-0.689,1.735-0.907,2.674-0.676c0.321,0.079,0.645,0.226,0.959,0.436	c1.114,0.737,1.84,2.088,1.891,3.523c0.056,1.573-0.627,2.896-1.208,3.727c-0.419,0.599-0.834,1.009-1.307,1.292	C31.93,30.406,31.333,30.558,30.729,30.558z M31.396,22.039c-0.455,0-0.892,0.178-1.345,0.543l0,0	c-1.078,0.866-1.745,1.976-1.983,3.298c-0.243,1.348,0.316,2.717,1.359,3.331c0.77,0.454,1.771,0.469,2.492,0.036	c0.348-0.209,0.666-0.528,1-1.007c0.699-0.999,1.064-2.106,1.028-3.119c-0.039-1.118-0.593-2.162-1.443-2.726	c-0.22-0.146-0.437-0.246-0.646-0.298C31.7,22.059,31.547,22.039,31.396,22.039z"/></svg>