<svg xmlns="http://www.w3.org/2000/svg"  viewBox="0 0 64 64" width="64px" height="64px"><path fill="#00325A" d="M44,9v5H8V9c0-0.55,0.45-1,1-1h34C43.55,8,44,8.45,44,9z"/><path fill="#F0F0F0" d="M44,14v27c0,0.55-0.45,1-1,1H9c-0.55,0-1-0.45-1-1V14H44z"/><path fill="#D2D2D2" d="M36.293,33.707c-0.391-0.391-0.391-1.023,0-1.414L39.586,29l-3.293-3.293 c-0.391-0.391-0.391-1.023,0-1.414s1.023-0.391,1.414,0l4,4c0.391,0.391,0.391,1.023,0,1.414l-4,4 C37.316,34.098,36.684,34.098,36.293,33.707z"/><path fill="#D2D2D2" d="M14.293,33.707l-4-4c-0.391-0.391-0.391-1.023,0-1.414l4-4c0.391-0.391,1.023-0.391,1.414,0 s0.391,1.023,0,1.414L12.414,29l3.293,3.293c0.391,0.391,0.391,1.023,0,1.414C15.316,34.098,14.684,34.098,14.293,33.707z"/><path fill="#D2D2D2" d="M33,31h-1v-1c0-1.1-0.9-2-2-2h-3v-1h1c0.552,0,1-0.448,1-1v-4c0-0.552-0.448-1-1-1h-4c-0.552,0-1,0.448-1,1 v4c0,0.552,0.448,1,1,1h1v1h-3c-1.1,0-2,0.9-2,2v1h-1c-0.552,0-1,0.448-1,1v4c0,0.552,0.448,1,1,1h4c0.552,0,1-0.448,1-1v-4 c0-0.552-0.448-1-1-1h-1v-1h8v1h-1c-0.552,0-1,0.448-1,1v4c0,0.552,0.448,1,1,1h4c0.552,0,1-0.448,1-1v-4 C34,31.448,33.552,31,33,31z"/><circle cx="41" cy="11" r="1" fill="#C80A50"/><circle cx="37" cy="11" r="1" fill="#01A0C8"/><circle cx="33" cy="11" r="1" fill="#FAB400"/><path fill="#F0F0F0" d="M10,11L10,11c0,0.552,0.448,1,1,1h14c0.552,0,1-0.448,1-1v0c0-0.552-0.448-1-1-1H11 C10.448,10,10,10.448,10,11z"/><path fill="#F0C8A0" d="M38,42.003v6h-3c-1.66,0-3-1.34-3-3c0-1.654,1.348-3,3-3H38z"/><path fill="#F0C8A0" d="M56,45.003c0,1.669-1.373,3-3,3h-3v-6h3C54.678,42.003,56,43.356,56,45.003z"/><path fill="#F0C8A0" d="M44,55.989L44,55.989c-4.418,0-8-3.582-8-8v-8h16v8C52,52.408,48.418,55.989,44,55.989z"/><path fill="#D2AA82" d="M43.969,48.003L43.969,48.003c-0.552,0-1-0.448-1-1v-2c0-0.552,0.448-1,1-1h0c0.552,0,1,0.448,1,1v2 C44.969,47.556,44.521,48.003,43.969,48.003z"/><circle cx="39.969" cy="45.003" r="1" fill="#00143C"/><circle cx="47.969" cy="45.003" r="1" fill="#00143C"/><path fill="#00143C" d="M46.819,48.003c-0.415,0-0.821,0.237-0.952,0.63c-0.266,0.794-1.018,1.37-1.898,1.37 c-0.88,0-1.632-0.576-1.898-1.37c-0.132-0.394-0.537-0.63-0.952-0.63c-0.657,0-1.154,0.64-0.947,1.263 c0.528,1.591,2.028,2.737,3.797,2.737c1.769,0,3.268-1.146,3.797-2.737C47.973,48.643,47.476,48.003,46.819,48.003z"/><path fill="#00143C" d="M52.493,33.145c-1.023,0.569-2.17,0.862-3.321,0.862H40c-2.209,0-4,1.784-4,3.993l0,9.989 c1.105,0,2-0.895,2-2v-5c0-0.552,0.448-1,1-1h10c0.552,0,1,0.448,1,1v5c0,1.105,0.895,2,2,2v-6.54c0-0.692,0.337-1.37,0.946-1.698 c0.627-0.338,1.054-1,1.054-1.762L54,34C54,33.225,53.17,32.768,52.493,33.145z"/><g><path fill="#00325A" d="M37,33c-0.256,0-0.512-0.098-0.707-0.293c-0.391-0.391-0.391-1.023,0-1.414L39.586,28l-3.293-3.293 c-0.391-0.391-0.391-1.023,0-1.414s1.023-0.391,1.414,0l4,4c0.391,0.391,0.391,1.023,0,1.414l-4,4C37.512,32.902,37.256,33,37,33z"/><path fill="#00325A" d="M15,33c-0.256,0-0.512-0.098-0.707-0.293l-4-4c-0.391-0.391-0.391-1.023,0-1.414l4-4 c0.391-0.391,1.023-0.391,1.414,0s0.391,1.023,0,1.414L12.414,28l3.293,3.293c0.391,0.391,0.391,1.023,0,1.414 C15.512,32.902,15.256,33,15,33z"/></g><g><path fill="#FAB400" d="M32,29v1h-2v-1h-8v1h-2v-1c0-1.1,0.9-2,2-2h3v-3h2v3h3C31.1,27,32,27.9,32,29z"/></g><g><rect width="2" height="3" x="25" y="24" fill="#DC9600"/></g><g><path fill="#C8094F" d="M28,26h-4c-0.552,0-1-0.448-1-1v-4c0-0.552,0.448-1,1-1h4c0.552,0,1,0.448,1,1v4C29,25.552,28.552,26,28,26 z"/></g><g><path fill="#00A0C8" d="M23,36h-4c-0.552,0-1-0.448-1-1v-4c0-0.552,0.448-1,1-1h4c0.552,0,1,0.448,1,1v4C24,35.552,23.552,36,23,36 z"/></g><g><path fill="#00A0C8" d="M33,36h-4c-0.552,0-1-0.448-1-1v-4c0-0.552,0.448-1,1-1h4c0.552,0,1,0.448,1,1v4C34,35.552,33.552,36,33,36 z"/></g></svg>