<svg xmlns="http://www.w3.org/2000/svg"  viewBox="0 0 100 100" width="100px" height="100px"><path fill="#c8ede6" d="M87.214,56.133c0.3-0.616,0.566-1.264,0.796-1.943c2.633-7.77-1.349-17.078-9.733-19.325C77.37,23.482,69.37,15.673,60.335,14.341c-10.341-1.525-19.814,5.044-22.966,15.485c-3.799-1.346-7.501-1.182-10.99,0.857c-1.583,0.732-3.031,1.812-4.33,3.233c-1.907,2.086-3.147,4.719-3.652,7.495c-0.748,0.118-1.483,0.236-2.176,0.484c-4.04,1.449-6.589,4.431-7.288,8.923c-0.435,2.797,0.443,5.587,0.933,6.714c1.935,4.455,6.422,6.98,10.981,6.312c0.227-0.033,0.557,0.069,0.752,0.233c0.241,7.12,3.698,13.417,8.884,17.014c8.321,5.772,19.027,3.994,25.781-3.921c2.894,2.96,6.338,4.398,10.384,3.876c4.023-0.519,7.147-2.739,9.426-6.349c1.053,0.283,2.051,0.691,3.083,0.804c4.042,0.442,7.297-1.184,9.732-4.8c0.083-0.124,0.203-0.219,0.306-0.328c0.348-0.798,0.696-1.596,1.044-2.394c0.155-1.211,0.429-2.423,0.443-3.632C90.722,61.091,89.39,58.123,87.214,56.133z"/><path fill="#fdfcef" d="M33.512,70.351c0,0,11.691,0,11.762,0c2.7,0,4.888-2.189,4.888-4.889c0-2.355-1.666-4.321-3.884-4.784c0.026-0.206,0.043-0.415,0.043-0.628c0-2.796-2.267-5.063-5.063-5.063c-1.651,0-3.113,0.794-4.037,2.017c-0.236-3.113-3.017-5.514-6.27-5.116c-2.379,0.291-4.346,2.13-4.784,4.486c-0.14,0.756-0.126,1.489,0.014,2.177c-0.638-0.687-1.546-1.119-2.557-1.119c-1.85,0-3.361,1.441-3.48,3.261c-0.84-0.186-1.754-0.174-2.717,0.188c-1.84,0.691-3.15,2.423-3.227,4.387c-0.109,2.789,2.12,5.085,4.885,5.085c0.21,0,0.948,0,1.118,0h10.151"/><path fill="#472b29" d="M45.274,70.851H33.512c-0.276,0-0.5-0.224-0.5-0.5s0.224-0.5,0.5-0.5h11.762c2.419,0,4.388-1.969,4.388-4.389c0-2.066-1.466-3.873-3.486-4.295c-0.255-0.053-0.426-0.292-0.394-0.55c0.023-0.186,0.039-0.375,0.039-0.567c0-2.516-2.047-4.563-4.563-4.563c-1.438,0-2.765,0.663-3.638,1.818c-0.125,0.166-0.338,0.239-0.54,0.178c-0.199-0.059-0.342-0.234-0.357-0.441c-0.104-1.377-0.779-2.67-1.85-3.549c-1.083-0.888-2.456-1.281-3.86-1.109c-2.166,0.265-3.956,1.943-4.353,4.081c-0.125,0.667-0.12,1.335,0.012,1.986c0.045,0.219-0.062,0.442-0.261,0.544c-0.198,0.102-0.442,0.06-0.595-0.104c-0.575-0.619-1.353-0.959-2.19-0.959c-1.569,0-2.878,1.227-2.981,2.794c-0.01,0.146-0.082,0.28-0.199,0.367c-0.117,0.087-0.268,0.119-0.408,0.088c-0.841-0.186-1.636-0.132-2.433,0.167c-1.669,0.626-2.836,2.209-2.903,3.938c-0.047,1.207,0.387,2.35,1.222,3.218c0.835,0.868,1.959,1.347,3.164,1.347h11.269c0.276,0,0.5,0.224,0.5,0.5s-0.224,0.5-0.5,0.5H19.087c-1.479,0-2.859-0.587-3.884-1.654c-1.025-1.066-1.558-2.469-1.5-3.95c0.083-2.126,1.51-4.069,3.551-4.835c0.8-0.3,1.626-0.399,2.468-0.299c0.377-1.822,1.997-3.182,3.905-3.182c0.684,0,1.354,0.179,1.944,0.51c0-0.385,0.035-0.773,0.107-1.159c0.476-2.562,2.62-4.573,5.215-4.891c1.679-0.208,3.32,0.266,4.616,1.328c1.003,0.823,1.716,1.951,2.038,3.193c1.012-0.916,2.319-1.425,3.714-1.425c3.067,0,5.563,2.496,5.563,5.563c0,0.083-0.002,0.166-0.007,0.249c2.254,0.672,3.848,2.777,3.848,5.164C50.662,68.433,48.245,70.851,45.274,70.851z"/><path fill="#fdfcef" d="M30.679,59.582c-1.808-0.119-3.365,1.13-3.476,2.789c-0.014,0.206-0.005,0.409,0.025,0.606c-0.349-0.394-0.865-0.661-1.458-0.7c-1.085-0.071-2.022,0.645-2.158,1.62c-0.197-0.054-0.403-0.09-0.616-0.104c-1.582-0.104-2.944,0.989-3.042,2.441"/><path fill="#472b29" d="M19.955,66.483c-0.006,0-0.012,0-0.017,0c-0.138-0.009-0.242-0.128-0.233-0.266c0.107-1.586,1.582-2.787,3.308-2.673c0.135,0.009,0.272,0.026,0.409,0.053c0.273-0.968,1.261-1.64,2.365-1.568c0.426,0.028,0.824,0.161,1.164,0.382c0-0.019,0.002-0.037,0.003-0.055c0.121-1.794,1.799-3.138,3.743-3.022c0.138,0.009,0.242,0.128,0.233,0.266c-0.009,0.138-0.133,0.243-0.266,0.233c-1.66-0.105-3.108,1.038-3.21,2.557c-0.012,0.184-0.004,0.37,0.023,0.552c0.017,0.109-0.041,0.217-0.141,0.264c-0.1,0.047-0.22,0.022-0.293-0.061c-0.318-0.359-0.787-0.584-1.288-0.617c-0.941-0.062-1.775,0.555-1.893,1.405c-0.01,0.071-0.05,0.135-0.11,0.174c-0.06,0.039-0.133,0.051-0.204,0.032c-0.188-0.052-0.379-0.084-0.566-0.096c-1.429-0.104-2.688,0.895-2.776,2.208C20.195,66.382,20.085,66.483,19.955,66.483z"/><path fill="#fdfcef" d="M47.253,61.251c-1.699-0.801-3.664-0.234-4.389,1.267c-0.09,0.186-0.157,0.379-0.201,0.574"/><path fill="#472b29" d="M42.663,63.341c-0.018,0-0.037-0.002-0.056-0.006c-0.135-0.031-0.219-0.165-0.188-0.299c0.049-0.215,0.123-0.426,0.22-0.626c0.783-1.622,2.901-2.243,4.72-1.384c0.125,0.059,0.179,0.208,0.12,0.333c-0.059,0.126-0.21,0.177-0.333,0.12c-1.573-0.741-3.394-0.227-4.057,1.149c-0.081,0.167-0.142,0.342-0.183,0.521C42.881,63.262,42.778,63.341,42.663,63.341z"/><path fill="#fff" d="M16.879 48.169H6.848c-.276 0-.5-.224-.5-.5s.224-.5.5-.5h10.03c.276 0 .5.224.5.5S17.155 48.169 16.879 48.169zM19.76 48.169h-1.446c-.276 0-.5-.224-.5-.5s.224-.5.5-.5h1.446c.276 0 .5.224.5.5S20.036 48.169 19.76 48.169zM23.814 48.169h-2.546c-.276 0-.5-.224-.5-.5s.224-.5.5-.5h2.546c.276 0 .5.224.5.5S24.091 48.169 23.814 48.169zM23.814 50.034h-9.616c-.276 0-.5-.224-.5-.5s.224-.5.5-.5h9.616c.276 0 .5.224.5.5S24.091 50.034 23.814 50.034zM12.467 50.034h-.58c-.276 0-.5-.224-.5-.5s.224-.5.5-.5h.58c.276 0 .5.224.5.5S12.743 50.034 12.467 50.034zM10.09 50.034H8.634c-.276 0-.5-.224-.5-.5s.224-.5.5-.5h1.456c.276 0 .5.224.5.5S10.366 50.034 10.09 50.034zM19.225 46.304h-5.027c-.276 0-.5-.224-.5-.5s.224-.5.5-.5h5.027c.276 0 .5.224.5.5S19.502 46.304 19.225 46.304zM19.225 44.44h-1.257c-.276 0-.5-.224-.5-.5s.224-.5.5-.5h1.257c.276 0 .5.224.5.5S19.502 44.44 19.225 44.44zM15.957 51.899h-1.759c-.276 0-.5-.224-.5-.5s.224-.5.5-.5h1.759c.276 0 .5.224.5.5S16.233 51.899 15.957 51.899z"/><path fill="#fdfcee" d="M70.382,72.896H38.471c-3.048,0-5.542-2.494-5.542-5.542V35.444c0-3.048,2.494-5.542,5.542-5.542h31.911c3.048,0,5.542,2.494,5.542,5.542v31.911C75.923,70.402,73.43,72.896,70.382,72.896z"/><path fill="#472b29" d="M70.382,73.596H38.471c-3.442,0-6.242-2.8-6.242-6.242V35.444c0-3.442,2.8-6.242,6.242-6.242h31.911c3.441,0,6.242,2.8,6.242,6.242v31.911C76.623,70.796,73.823,73.596,70.382,73.596z M38.471,30.602c-2.67,0-4.842,2.172-4.842,4.842v31.911c0,2.67,2.172,4.842,4.842,4.842h31.911c2.669,0,4.841-2.172,4.841-4.842V35.444c0-2.67-2.172-4.842-4.841-4.842H38.471z"/><path fill="#836f61" d="M33.465 36.857H52.53V68.154H33.465z"/><path fill="#472b29" d="M66.756 37.041h-3.794c-.276 0-.5-.224-.5-.5s.224-.5.5-.5h3.794c.276 0 .5.224.5.5S67.032 37.041 66.756 37.041zM61.065 37.041h-27.82c-.276 0-.5-.224-.5-.5s.224-.5.5-.5h27.82c.276 0 .5.224.5.5S61.342 37.041 61.065 37.041zM75.607 37.041h-5.69c-.276 0-.5-.224-.5-.5s.224-.5.5-.5h5.69c.276 0 .5.224.5.5S75.884 37.041 75.607 37.041zM75.607 68.654H40.832c-.276 0-.5-.224-.5-.5s.224-.5.5-.5h34.775c.276 0 .5.224.5.5S75.884 68.654 75.607 68.654zM38.935 68.654h-5.69c-.276 0-.5-.224-.5-.5s.224-.5.5-.5h5.69c.276 0 .5.224.5.5S39.212 68.654 38.935 68.654z"/><path fill="#ee3e54" d="M38.303 32.114A1.265 1.265 0 1 0 38.303 34.644A1.265 1.265 0 1 0 38.303 32.114Z"/><path fill="#472b29" d="M38.303,34.944c-0.863,0-1.564-0.702-1.564-1.564c0-0.862,0.702-1.564,1.564-1.564s1.564,0.702,1.564,1.564C39.868,34.242,39.166,34.944,38.303,34.944z M38.303,32.415c-0.532,0-0.965,0.433-0.965,0.964s0.433,0.965,0.965,0.965s0.965-0.433,0.965-0.965S38.835,32.415,38.303,32.415z"/><path fill="#f1bc19" d="M42.729 32.114A1.265 1.265 0 1 0 42.729 34.644A1.265 1.265 0 1 0 42.729 32.114Z"/><path fill="#472b29" d="M42.729,34.944c-0.862,0-1.564-0.702-1.564-1.564c0-0.862,0.702-1.564,1.564-1.564c0.863,0,1.564,0.702,1.564,1.564C44.293,34.242,43.592,34.944,42.729,34.944z M42.729,32.415c-0.532,0-0.964,0.433-0.964,0.964s0.433,0.965,0.964,0.965s0.965-0.433,0.965-0.965S43.261,32.415,42.729,32.415z"/><path fill="#88ae45" d="M47.155 32.114A1.265 1.265 0 1 0 47.155 34.644A1.265 1.265 0 1 0 47.155 32.114Z"/><path fill="#472b29" d="M47.155 34.944c-.863 0-1.564-.702-1.564-1.564 0-.862.702-1.564 1.564-1.564.862 0 1.564.702 1.564 1.564C48.719 34.242 48.017 34.944 47.155 34.944zM47.155 32.415c-.532 0-.965.433-.965.964s.433.965.965.965.964-.433.964-.965S47.687 32.415 47.155 32.415zM37.039 66.633c-.207 0-.375-.168-.375-.375v-27.82c0-.207.168-.375.375-.375s.375.168.375.375v27.82C37.414 66.465 37.246 66.633 37.039 66.633z"/><path fill="#fdfcef" d="M35.142 40.077c-.205 0-.373-.165-.375-.371-.002-.207.164-.376.371-.379l.632-.007c.001 0 .002 0 .004 0 .205 0 .373.165.375.371.002.207-.164.376-.371.379l-.632.007C35.145 40.077 35.143 40.077 35.142 40.077zM35.142 41.974c-.205 0-.373-.165-.375-.371-.002-.207.164-.377.371-.379l.632-.007c.183-.032.376.164.379.371.002.207-.164.377-.371.379l-.632.007C35.145 41.974 35.143 41.974 35.142 41.974zM35.142 43.87c-.205 0-.373-.165-.375-.371-.002-.207.164-.376.371-.379l.632-.007c.001 0 .002 0 .004 0 .205 0 .373.165.375.371.002.207-.164.376-.371.379l-.632.007C35.145 43.87 35.143 43.87 35.142 43.87zM35.142 45.767c-.205 0-.373-.165-.375-.371-.002-.207.164-.376.371-.379l.632-.007c.001 0 .002 0 .004 0 .205 0 .373.165.375.371.002.207-.164.376-.371.379l-.632.007C35.145 45.767 35.143 45.767 35.142 45.767zM35.142 47.664c-.205 0-.373-.165-.375-.371-.002-.207.164-.377.371-.379l.632-.007c.183-.008.376.163.379.371.002.207-.164.377-.371.379l-.632.007C35.145 47.664 35.143 47.664 35.142 47.664zM35.142 49.561c-.205 0-.373-.165-.375-.371-.002-.207.164-.377.371-.379l.632-.007c.001 0 .003 0 .004 0 .205 0 .373.165.375.371.002.207-.164.377-.371.379l-.632.007C35.145 49.561 35.143 49.561 35.142 49.561zM35.142 51.458c-.205 0-.373-.165-.375-.371-.002-.207.164-.376.371-.379l.632-.007c.001 0 .002 0 .004 0 .205 0 .373.165.375.371.002.207-.164.376-.371.379l-.632.007C35.145 51.458 35.143 51.458 35.142 51.458zM35.142 53.355c-.205 0-.373-.165-.375-.371-.002-.207.164-.376.371-.379l.632-.007c.001 0 .002 0 .004 0 .205 0 .373.165.375.371.002.207-.164.376-.371.379l-.632.007C35.145 53.355 35.143 53.355 35.142 53.355zM35.142 55.252c-.205 0-.373-.165-.375-.371-.002-.207.164-.377.371-.379l.632-.007c.183-.022.376.163.379.371.002.207-.164.377-.371.379l-.632.007C35.145 55.252 35.143 55.252 35.142 55.252zM35.142 57.148c-.205 0-.373-.165-.375-.371-.002-.207.164-.376.371-.379l.632-.007c.001 0 .002 0 .004 0 .205 0 .373.165.375.371.002.207-.164.376-.371.379l-.632.007C35.145 57.148 35.143 57.148 35.142 57.148zM35.142 59.045c-.205 0-.373-.165-.375-.371-.002-.207.164-.376.371-.379l.632-.007c.001 0 .002 0 .004 0 .205 0 .373.165.375.371.002.207-.164.376-.371.379l-.632.007C35.145 59.045 35.143 59.045 35.142 59.045zM35.142 60.942c-.205 0-.373-.165-.375-.371-.002-.207.164-.377.371-.379l.632-.007c.183.001.376.164.379.371.002.207-.164.377-.371.379l-.632.007C35.145 60.942 35.143 60.942 35.142 60.942zM35.142 62.839c-.205 0-.373-.165-.375-.371-.002-.207.164-.377.371-.379l.632-.007c.183-.037.376.164.379.371.002.207-.164.377-.371.379l-.632.007C35.145 62.839 35.143 62.839 35.142 62.839zM35.142 64.736c-.205 0-.373-.165-.375-.371-.002-.207.164-.376.371-.379l.632-.007c.001 0 .002 0 .004 0 .205 0 .373.165.375.371.002.207-.164.376-.371.379l-.632.007C35.145 64.736 35.143 64.736 35.142 64.736z"/><path fill="#472b29" d="M52.845,66c-0.207,0-0.375-0.168-0.375-0.375V38.437c0-0.207,0.168-0.375,0.375-0.375s0.375,0.168,0.375,0.375v27.188C53.22,65.832,53.052,66,52.845,66z"/><g><path fill="#c0e5e4" d="M55.374 42.863H67.387V50.45H55.374z"/><path fill="#472b29" d="M67.388,50.825H55.374c-0.207,0-0.375-0.168-0.375-0.375v-7.587c0-0.207,0.168-0.375,0.375-0.375h12.013c0.207,0,0.375,0.168,0.375,0.375v7.587C67.763,50.658,67.595,50.825,67.388,50.825z M55.749,50.075h11.263v-6.837H55.749V50.075z"/></g><path fill="#472b29" d="M55.727 50.349c-.093 0-.183-.046-.235-.131-.08-.129-.039-.299.09-.378l11.225-6.907c.13-.079.299-.039.378.09.08.129.039.299-.09.378L55.87 50.308C55.826 50.336 55.776 50.349 55.727 50.349zM67.103 50.462c-.044 0-.088-.01-.129-.032l-4.411-2.34c-.134-.071-.185-.238-.114-.372.073-.135.241-.183.372-.114l4.411 2.34c.134.071.185.238.114.372C67.297 50.409 67.202 50.462 67.103 50.462z"/><path fill="#472b29" d="M61.066,47.084c-0.053,0-0.107-0.016-0.155-0.048l-5.534-3.785c-0.125-0.086-0.157-0.257-0.072-0.382c0.086-0.125,0.257-0.157,0.382-0.072l5.534,3.785c0.125,0.086,0.157,0.257,0.072,0.382C61.24,47.042,61.154,47.084,61.066,47.084z"/><g><path fill="#c0e5e4" d="M61.065 54.877H73.078V62.464H61.065z"/><path fill="#472b29" d="M73.078,62.839H61.065c-0.207,0-0.375-0.168-0.375-0.375v-7.587c0-0.207,0.168-0.375,0.375-0.375h12.013c0.207,0,0.375,0.168,0.375,0.375v7.587C73.453,62.671,73.285,62.839,73.078,62.839z M61.44,62.089h11.263v-6.837H61.44V62.089z"/><path fill="#f6cca4" d="M61.381 62.108L72.642 55.395"/><path fill="#472b29" d="M61.382,62.383c-0.094,0-0.185-0.048-0.237-0.134c-0.078-0.13-0.035-0.299,0.096-0.377l11.26-6.713c0.13-0.078,0.299-0.035,0.377,0.096c0.078,0.13,0.035,0.299-0.096,0.377l-11.26,6.713C61.478,62.371,61.43,62.383,61.382,62.383z"/><g><path fill="#f6cca4" d="M68.382 59.929L73.078 62.266"/><path fill="#472b29" d="M73.078,62.541c-0.042,0-0.083-0.009-0.123-0.029l-4.695-2.338c-0.136-0.067-0.191-0.233-0.124-0.369c0.068-0.137,0.233-0.191,0.369-0.124l4.695,2.338c0.136,0.067,0.191,0.233,0.124,0.369C73.276,62.486,73.179,62.541,73.078,62.541z"/></g><g><path fill="#f6cca4" d="M61.066 55.256L66.757 58.924"/><path fill="#472b29" d="M66.756,59.199c-0.051,0-0.103-0.014-0.148-0.044l-5.69-3.667c-0.128-0.082-0.165-0.252-0.082-0.38c0.081-0.128,0.251-0.165,0.38-0.082l5.69,3.667c0.128,0.082,0.165,0.252,0.082,0.38C66.935,59.154,66.847,59.199,66.756,59.199z"/></g></g><g><path fill="#472b29" d="M59.168 55.252h-3.793c-.207 0-.375-.168-.375-.375s.168-.375.375-.375h3.793c.207 0 .375.168.375.375S59.375 55.252 59.168 55.252zM59.168 57.148h-3.793c-.207 0-.375-.168-.375-.375s.168-.375.375-.375h3.793c.207 0 .375.168.375.375S59.375 57.148 59.168 57.148zM59.168 59.045h-3.793c-.207 0-.375-.168-.375-.375s.168-.375.375-.375h3.793c.207 0 .375.168.375.375S59.375 59.045 59.168 59.045zM59.168 60.942h-3.793c-.207 0-.375-.168-.375-.375s.168-.375.375-.375h3.793c.207 0 .375.168.375.375S59.375 60.942 59.168 60.942zM59.168 62.839h-3.793c-.207 0-.375-.168-.375-.375s.168-.375.375-.375h3.793c.207 0 .375.168.375.375S59.375 62.839 59.168 62.839z"/></g><g><path fill="#472b29" d="M72.446 43.239h-3.793c-.207 0-.375-.168-.375-.375s.168-.375.375-.375h3.793c.207 0 .375.168.375.375S72.653 43.239 72.446 43.239zM72.446 45.135h-3.793c-.207 0-.375-.168-.375-.375s.168-.375.375-.375h3.793c.207 0 .375.168.375.375S72.653 45.135 72.446 45.135zM72.446 47.032h-3.793c-.207 0-.375-.168-.375-.375s.168-.375.375-.375h3.793c.207 0 .375.168.375.375S72.653 47.032 72.446 47.032zM72.446 48.929h-3.793c-.207 0-.375-.168-.375-.375s.168-.375.375-.375h3.793c.207 0 .375.168.375.375S72.653 48.929 72.446 48.929zM72.446 50.825h-3.793c-.207 0-.375-.168-.375-.375s.168-.375.375-.375h3.793c.207 0 .375.168.375.375S72.653 50.825 72.446 50.825z"/></g><g><path fill="#fdfcef" d="M41.471 44.697c.023.05.043.098.059.142.016.045.024.09.024.135 0 .095-.03.175-.09.239-.06.064-.139.096-.237.096-.065 0-.128-.014-.188-.042-.107-.09-.222-.191-.344-.306-.123-.114-.25-.23-.379-.348-.162-.146-.328-.293-.498-.445-.17-.151-.319-.282-.449-.394-.079-.095-.118-.187-.118-.277 0-.117.053-.224.16-.319h-.007c.018-.017.07-.064.153-.143.084-.078.181-.17.292-.277.111-.106.231-.219.358-.34.128-.12.247-.233.358-.34.112-.106.208-.197.289-.272.081-.075.133-.122.156-.138.074-.033.137-.051.188-.051.097 0 .176.034.237.101.06.067.09.148.09.243 0 .112-.028.204-.084.277-.079.078-.181.176-.306.293-.126.118-.253.235-.383.353-.12.112-.239.222-.355.331-.116.109-.211.2-.285.272l1.342 1.199L41.471 44.697zM46.57 39.858c.088-.156.195-.235.32-.235.088 0 .164.033.23.101s.097.157.097.269c0 .05-.007.095-.02.134l-1.329 3.722c-.12.336-.243.677-.368 1.023-.126.346-.249.687-.369 1.022-.047.078-.098.133-.156.164-.058.031-.113.046-.164.046-.088 0-.163-.032-.226-.096-.063-.064-.094-.158-.094-.281 0-.045.002-.081.007-.109l1.322-3.68c.121-.341.246-.689.376-1.044C46.324 40.538 46.449 40.193 46.57 39.858zM49.269 43.489l-.633-.603c-.125-.117-.252-.236-.379-.356-.128-.12-.229-.219-.302-.298-.06-.078-.091-.168-.091-.269 0-.095.031-.176.094-.243.063-.067.14-.101.233-.101.051 0 .112.014.181.042.028.017.095.076.202.176.107.101.23.215.369.344.139.129.282.264.428.407s.273.264.379.364l.243.227h-.007c.102.101.153.207.153.319 0 .09-.035.179-.104.268l-.821.738-.856.755c-.065.034-.13.051-.195.051-.093 0-.171-.032-.233-.096-.063-.064-.094-.144-.094-.239 0-.084.028-.174.084-.269L49.269 43.489z"/></g><g><path fill="#fdfcef" d="M77.242,75.532c1.883,0,3.517,0,3.54,0c2.11,0,3.821-1.674,3.821-3.739c0-1.802-1.302-3.305-3.035-3.66c0.02-0.158,0.034-0.317,0.034-0.48c0-2.139-1.772-3.873-3.957-3.873c-1.29,0-2.433,0.607-3.155,1.543c-0.185-2.381-2.358-4.218-4.9-3.913c-1.859,0.223-3.397,1.629-3.739,3.431c-0.11,0.578-0.098,1.139,0.011,1.665c-0.498-0.525-1.208-0.856-1.998-0.856c-1.446,0-2.627,1.102-2.72,2.494c-0.657-0.142-1.371-0.133-2.123,0.143c-1.438,0.528-2.462,1.853-2.522,3.356c-0.085,2.133,1.657,3.889,3.818,3.889c0.164,0,0.741,0,0.874,0h7.934 M70.765,75.532h0.36"/><path fill="#472b29" d="M80.783,76.032h-3.541c-0.276,0-0.5-0.224-0.5-0.5s0.224-0.5,0.5-0.5h3.541c1.831,0,3.32-1.453,3.32-3.239c0-1.524-1.108-2.857-2.635-3.17c-0.256-0.052-0.429-0.293-0.396-0.553c0.018-0.137,0.03-0.276,0.03-0.417c0-1.86-1.551-3.373-3.457-3.373c-1.092,0-2.098,0.492-2.759,1.349c-0.127,0.164-0.341,0.231-0.539,0.173c-0.198-0.059-0.339-0.234-0.355-0.44c-0.079-1.019-0.565-1.944-1.37-2.604c-0.828-0.68-1.885-0.981-2.973-0.852c-1.646,0.197-3.006,1.442-3.307,3.028c-0.094,0.495-0.09,0.989,0.01,1.471c0.045,0.219-0.06,0.441-0.258,0.544c-0.197,0.104-0.44,0.064-0.595-0.099c-0.428-0.452-1.009-0.7-1.635-0.7c-1.169,0-2.145,0.891-2.221,2.027c-0.01,0.145-0.082,0.279-0.198,0.366c-0.116,0.088-0.264,0.12-0.407,0.089c-0.637-0.138-1.242-0.098-1.845,0.124c-1.262,0.464-2.144,1.632-2.195,2.906c-0.035,0.875,0.283,1.708,0.895,2.344c0.635,0.661,1.496,1.025,2.423,1.025h8.808c0.276,0,0.5,0.224,0.5,0.5s-0.224,0.5-0.5,0.5h-8.808c-1.185,0-2.331-0.485-3.145-1.332c-0.802-0.835-1.218-1.928-1.172-3.077c0.066-1.674,1.211-3.203,2.849-3.805c0.611-0.225,1.243-0.305,1.88-0.245c0.344-1.396,1.629-2.424,3.136-2.424c0.493,0,0.976,0.113,1.414,0.323c0.009-0.241,0.036-0.483,0.082-0.726c0.381-2.009,2.097-3.586,4.17-3.834c1.362-0.161,2.685,0.218,3.726,1.072c0.748,0.613,1.278,1.409,1.546,2.302c0.791-0.648,1.786-1.007,2.843-1.007c2.458,0,4.457,1.962,4.457,4.373c0,0.034,0,0.068-0.001,0.103c1.764,0.555,3.003,2.188,3.003,4.038C85.103,74.13,83.165,76.032,80.783,76.032z M71.124,76.032h-0.359c-0.276,0-0.5-0.224-0.5-0.5s0.224-0.5,0.5-0.5h0.359c0.276,0,0.5,0.224,0.5,0.5S71.401,76.032,71.124,76.032z"/><path fill="#472b29" d="M79.075,70.228c-0.018,0-0.036-0.002-0.055-0.006c-0.135-0.03-0.219-0.164-0.189-0.299c0.037-0.166,0.094-0.327,0.169-0.479c0.604-1.224,2.274-1.674,3.722-1.007c0.125,0.058,0.18,0.207,0.122,0.332c-0.059,0.125-0.207,0.18-0.332,0.122c-1.202-0.554-2.577-0.209-3.063,0.774c-0.058,0.117-0.101,0.24-0.129,0.367C79.293,70.149,79.19,70.228,79.075,70.228z"/><g><path fill="#472b29" d="M73.916,76.032h-1.107c-0.276,0-0.5-0.224-0.5-0.5s0.224-0.5,0.5-0.5h1.107c0.276,0,0.5,0.224,0.5,0.5S74.192,76.032,73.916,76.032z"/></g></g><g><path fill="#fff" d="M70.057 21.892h-10.03c-.276 0-.5-.224-.5-.5s.224-.5.5-.5h10.03c.276 0 .5.224.5.5S70.333 21.892 70.057 21.892zM72.938 21.892h-1.446c-.276 0-.5-.224-.5-.5s.224-.5.5-.5h1.446c.276 0 .5.224.5.5S73.214 21.892 72.938 21.892zM76.993 21.892h-2.546c-.276 0-.5-.224-.5-.5s.224-.5.5-.5h2.546c.276 0 .5.224.5.5S77.269 21.892 76.993 21.892zM74.967 18.162H65.35c-.276 0-.5-.224-.5-.5s.224-.5.5-.5h9.616c.276 0 .5.224.5.5S75.243 18.162 74.967 18.162zM63.619 18.162h-.58c-.276 0-.5-.224-.5-.5s.224-.5.5-.5h.58c.276 0 .5.224.5.5S63.895 18.162 63.619 18.162zM61.242 18.162h-1.457c-.276 0-.5-.224-.5-.5s.224-.5.5-.5h1.457c.276 0 .5.224.5.5S61.518 18.162 61.242 18.162zM72.404 20.028h-5.028c-.276 0-.5-.224-.5-.5s.224-.5.5-.5h5.028c.276 0 .5.224.5.5S72.68 20.028 72.404 20.028z"/><path fill="#fff" d="M72.404 18.162h-1.257c-.276 0-.5-.224-.5-.5s.224-.5.5-.5h1.257c.276 0 .5.224.5.5S72.68 18.162 72.404 18.162zM65.921 20.028h-1.759c-.276 0-.5-.224-.5-.5s.224-.5.5-.5h1.759c.276 0 .5.224.5.5S66.197 20.028 65.921 20.028z"/></g></svg>