<svg xmlns="http://www.w3.org/2000/svg"  viewBox="0 0 48 48" width="48px" height="48px"><path fill="#CFD8DC" d="M42,42H6V7c0-0.6,0.4-1,1-1h34c0.6,0,1,0.4,1,1V42z"/><path fill="#263238" d="M8 13H40V40H8z"/><path fill="#76FF03" d="M15.5 26.4l3.5 2.1V31l-6-3.7v-2.1l6-3.2v2.5L15.5 26.4zM23 33h-2l4-14h2L23 33zM32.5 26.5l-3.5-2V22l6 3.4v2.1L29 31v-2.5L32.5 26.5z"/><g><path fill="#90A4AE" d="M13.5 8A1.5 1.5 0 1 0 13.5 11 1.5 1.5 0 1 0 13.5 8zM9.5 8A1.5 1.5 0 1 0 9.5 11 1.5 1.5 0 1 0 9.5 8z"/></g></svg>