<svg xmlns="http://www.w3.org/2000/svg"  viewBox="0 0 100 100" width="50px" height="50px"><path fill="#f1bc19" d="M78 13A1 1 0 1 0 78 15A1 1 0 1 0 78 13Z"/><path fill="#f9dbd2" d="M50 12A38 38 0 1 0 50 88A38 38 0 1 0 50 12Z"/><path fill="#f1bc19" d="M84 12A4 4 0 1 0 84 20A4 4 0 1 0 84 12Z"/><path fill="#ee3e54" d="M14 24A2 2 0 1 0 14 28A2 2 0 1 0 14 24Z"/><path fill="#fbcd59" d="M78 75A2 2 0 1 0 78 79 2 2 0 1 0 78 75zM17 74A4 4 0 1 0 17 82 4 4 0 1 0 17 74z"/><path fill="#ee3e54" d="M24 81A2 2 0 1 0 24 85A2 2 0 1 0 24 81Z"/><path fill="#fff" d="M66.483 76.03399999999999A2.483 2.483 0 1 0 66.483 81 2.483 2.483 0 1 0 66.483 76.03399999999999zM16 47A1 1 0 1 0 16 49 1 1 0 1 0 16 47z"/><path fill="#f1bc19" d="M86 30A1 1 0 1 0 86 32A1 1 0 1 0 86 30Z"/><path fill="#fff" d="M80 64A2 2 0 1 0 80 68A2 2 0 1 0 80 64Z"/><g><path fill="#88cdd7" d="M64.125,68.301c-0.742-0.001-1.269-0.265-1.708-0.857c-1.266-1.707-1.885-3.746-1.891-3.767 L60.354,63.1l-0.597,0.084c-3.168,0.45-6.416,0.679-9.652,0.679c-3.238,0-6.558-0.229-9.865-0.679l-0.594-0.081l-0.172,0.574 c-0.006,0.021-0.625,2.06-1.891,3.767c-0.439,0.593-0.966,0.857-1.708,0.857c-0.777,0-1.683-0.283-2.641-0.583L32.6,67.522 c-2.722-0.818-6.869-3.56-8.644-5.165c-0.777-0.744-1.597-1.527-1.106-6.133c0.55-5.164,3.798-18.174,4.949-20.985 c1.035-2.528,2.804-3.633,4.679-4.63c2.078-0.927,4.39-1.695,6.825-2.262c0.573-0.119,1.071-0.179,1.508-0.179 c1.297,0,1.665,0.544,1.829,0.953l1.077,2.684l0.584-0.136c1.876-0.436,3.786-0.657,5.677-0.657s3.816,0.222,5.724,0.658 l0.583,0.133l1.076-2.682c0.164-0.409,0.532-0.953,1.829-0.953c0.437,0,0.935,0.06,1.522,0.183 c2.421,0.563,4.732,1.331,6.854,2.278c1.831,0.977,3.6,2.081,4.635,4.609c1.151,2.812,4.399,15.821,4.949,20.985 c0.49,4.605-0.329,5.389-1.121,6.146c-1.76,1.592-5.907,4.333-8.629,5.15l-0.636,0.196 C65.808,68.018,64.903,68.301,64.125,68.301L64.125,68.301z"/><path fill="#472b29" d="M59.189,28.868c0.383,0,0.847,0.057,1.349,0.162c2.376,0.552,4.63,1.299,6.699,2.22 c1.806,0.963,3.376,1.957,4.317,4.254c1.11,2.711,4.369,15.798,4.901,20.795c0.454,4.262-0.208,4.896-0.88,5.54 c-1.686,1.525-5.787,4.235-8.376,5.013c-0.214,0.064-0.429,0.131-0.642,0.198c-0.906,0.283-1.761,0.55-2.432,0.55 c-0.525,0-0.836-0.155-1.146-0.573c-1.187-1.602-1.777-3.532-1.782-3.549l-0.344-1.156l-1.195,0.169 c-3.136,0.446-6.35,0.671-9.554,0.671c-3.207,0-6.494-0.226-9.771-0.672l-1.185-0.159l-0.345,1.145 c-0.006,0.019-0.595,1.949-1.782,3.55c-0.31,0.418-0.621,0.574-1.146,0.574c-0.671,0-1.526-0.268-2.432-0.55 c-0.213-0.067-0.428-0.134-0.642-0.198c-2.589-0.777-6.69-3.488-8.347-4.985c-0.701-0.671-1.363-1.305-0.909-5.567 c0.532-4.997,3.791-18.084,4.901-20.795c0.941-2.298,2.51-3.292,4.317-4.254c2.069-0.921,4.322-1.668,6.668-2.214 c0.532-0.111,0.996-0.168,1.379-0.168c0.973,0,1.107,0.335,1.179,0.514l0.853,2.126l0.447,1.114l1.169-0.271 c1.824-0.424,3.68-0.639,5.518-0.639c1.839,0,3.712,0.215,5.568,0.64l1.166,0.267l0.445-1.111l0.853-2.126 C58.082,29.203,58.216,28.868,59.189,28.868 M59.189,27.468c-1.095,0-2.054,0.335-2.479,1.393l-0.853,2.126 c-1.974-0.452-3.934-0.675-5.88-0.675c-1.959,0-3.904,0.227-5.835,0.675l-0.853-2.126c-0.424-1.058-1.384-1.393-2.479-1.393 c-0.539,0-1.11,0.082-1.666,0.198c-2.487,0.578-4.82,1.353-6.996,2.325c-1.874,0.997-3.85,2.18-4.997,4.983 c-1.178,2.876-4.448,16.018-4.997,21.177c-0.5,4.692,0.292,5.73,1.333,6.727c1.791,1.619,6.041,4.453,8.912,5.315 C33.605,68.555,34.805,69,35.875,69c0.861,0,1.639-0.288,2.271-1.14c1.359-1.834,1.999-3.983,1.999-3.983 c3.347,0.456,6.668,0.685,9.96,0.685c3.278,0,6.529-0.227,9.751-0.685c0,0,0.639,2.149,1.999,3.983 c0.631,0.852,1.409,1.14,2.27,1.14c1.07,0,2.27-0.445,3.477-0.808c2.871-0.862,7.121-3.696,8.912-5.315 c1.041-0.997,1.832-2.035,1.333-6.727c-0.549-5.159-3.82-18.301-4.997-21.177c-1.148-2.803-3.123-3.986-4.997-4.983 c-2.176-0.973-4.509-1.747-6.996-2.325C60.299,27.55,59.728,27.468,59.189,27.468L59.189,27.468z"/><path fill="#472b29" d="M50.166 64.563c-6.003 0-11.979-.966-17.884-2.897-.367-.12-.567-.516-.447-.883s.517-.567.883-.447c11.523 3.768 23.322 3.77 35.068-.002.374-.114.763.086.881.453.117.368-.085.763-.453.881C62.198 63.598 56.168 64.563 50.166 64.563zM65.313 35.263c-.091 0-.184-.018-.272-.056-9.907-4.187-19.857-4.188-29.575-.002-.356.151-.768-.01-.92-.365-.153-.355.011-.768.365-.92 10.084-4.342 20.405-4.344 30.675-.002.356.15.522.561.372.917C65.845 35.103 65.585 35.263 65.313 35.263z"/><path fill="#472b29" d="M65.313 38.063c-.065 0-.131-.013-.194-.039-.385-.162-.769-.319-1.153-.469-5.302-2.071-10.647-2.962-15.897-2.642-.304.034-.513-.193-.529-.469s.193-.513.469-.529c5.394-.322 10.884.585 16.321 2.708.393.153.786.313 1.179.479.255.107.374.401.267.655C65.692 37.948 65.507 38.063 65.313 38.063zM43.304 35.521c-.233 0-.443-.165-.489-.404-.054-.271.123-.533.395-.586.82-.161 1.652-.295 2.474-.398.271-.04.523.158.559.434.034.274-.159.524-.434.559-.799.101-1.608.23-2.407.387C43.368 35.519 43.336 35.521 43.304 35.521zM36.134 37.668c-.197 0-.385-.118-.464-.313-.104-.257.021-.548.276-.651 1.643-.662 3.316-1.218 4.978-1.651.27-.077.54.091.609.357.07.267-.09.54-.357.609-1.619.424-3.252.966-4.854 1.612C36.26 37.656 36.196 37.668 36.134 37.668z"/><path fill="#fffef4" d="M40.5 44.7A4.8 5.8 0 1 0 40.5 56.3A4.8 5.8 0 1 0 40.5 44.7Z"/><path fill="#472b29" d="M40.5,45.4c2.261,0,4.1,2.288,4.1,5.1s-1.839,5.1-4.1,5.1s-4.1-2.288-4.1-5.1 S38.239,45.4,40.5,45.4 M40.5,44c-3.038,0-5.5,2.91-5.5,6.5s2.462,6.5,5.5,6.5s5.5-2.91,5.5-6.5S43.538,44,40.5,44L40.5,44z"/><g><path fill="#fffef4" d="M59.5 44.7A4.8 5.8 0 1 0 59.5 56.3A4.8 5.8 0 1 0 59.5 44.7Z"/><path fill="#472b29" d="M59.5,45.4c2.261,0,4.1,2.288,4.1,5.1s-1.839,5.1-4.1,5.1s-4.1-2.288-4.1-5.1 S57.239,45.4,59.5,45.4 M59.5,44c-3.038,0-5.5,2.91-5.5,6.5s2.462,6.5,5.5,6.5s5.5-2.91,5.5-6.5S62.538,44,59.5,44L59.5,44z"/></g></g></svg>