<svg xmlns="http://www.w3.org/2000/svg" width="48" height="48" viewBox="0 0 48 48"><path fill="#607d8b" d="M39.81,26.342C39.922,25.575,40,24.798,40,24s-0.078-1.575-0.19-2.342l4.195-3.293	c0.391-0.307,0.497-0.856,0.249-1.287L40.12,9.921c-0.249-0.431-0.777-0.613-1.239-0.428l-4.941,1.983	c-1.223-0.972-2.589-1.764-4.065-2.348l-0.753-5.27C29.052,3.366,28.63,3,28.133,3h-8.265c-0.498,0-0.92,0.366-0.99,0.859	l-0.753,5.27c-1.475,0.584-2.842,1.376-4.065,2.348L9.118,9.493C8.656,9.308,8.129,9.49,7.88,9.921l-4.133,7.158	c-0.249,0.431-0.143,0.979,0.249,1.287l4.195,3.293C8.078,22.425,8,23.202,8,24s0.078,1.575,0.19,2.342l-4.195,3.293	c-0.391,0.307-0.497,0.856-0.249,1.287l4.133,7.158c0.249,0.431,0.777,0.613,1.239,0.428l4.941-1.983	c1.223,0.972,2.589,1.764,4.065,2.348l0.753,5.27C18.948,44.634,19.37,45,19.867,45h8.265c0.498,0,0.92-0.366,0.99-0.859l0.753-5.27	c1.475-0.584,2.842-1.376,4.065-2.348l4.941,1.983c0.462,0.185,0.99,0.003,1.239-0.428l4.133-7.158	c0.249-0.431,0.143-0.979-0.249-1.287L39.81,26.342z"/><path fill="#fff" d="M14.417,24.49L19,26.506v2.854l-7.368-3.684v-2.409L19,19.571v2.854L14.417,24.49z"/><path fill="#fff" d="M23.076,32h-2.094l4.421-16H27.5L23.076,32z"/><path fill="#fff" d="M33.707,24.45l-4.676-2.033v-2.834l7.469,3.684v2.409l-7.469,3.693v-2.834L33.707,24.45z"/></svg>