<svg xmlns="http://www.w3.org/2000/svg" xmlns:xlink="http://www.w3.org/1999/xlink" width="500" height="500" preserveAspectRatio="xMidYMid meet" version="1.0" viewBox="0 0 375 375" zoomAndPan="magnify"><defs><clipPath id="11a885b933"><path d="M 71.097656 71.097656 L 303.597656 71.097656 L 303.597656 303.597656 L 71.097656 303.597656 Z M 71.097656 71.097656" clip-rule="nonzero"/></clipPath><clipPath id="d623072e73"><path d="M 187.347656 71.097656 C 123.144531 71.097656 71.097656 123.144531 71.097656 187.347656 C 71.097656 251.550781 123.144531 303.597656 187.347656 303.597656 C 251.550781 303.597656 303.597656 251.550781 303.597656 187.347656 C 303.597656 123.144531 251.550781 71.097656 187.347656 71.097656" clip-rule="nonzero"/></clipPath><clipPath id="d72669b042"><path d="M 109.148438 109.148438 L 265.898438 109.148438 L 265.898438 265.898438 L 109.148438 265.898438 Z M 109.148438 109.148438" clip-rule="nonzero"/></clipPath><clipPath id="8d728920b2"><path d="M 187.523438 109.148438 C 144.238281 109.148438 109.148438 144.238281 109.148438 187.523438 C 109.148438 230.808594 144.238281 265.898438 187.523438 265.898438 C 230.808594 265.898438 265.898438 230.808594 265.898438 187.523438 C 265.898438 144.238281 230.808594 109.148438 187.523438 109.148438" clip-rule="nonzero"/></clipPath><clipPath id="96ec00cd8d"><path d="M 102.085938 234.976562 L 108.085938 234.976562 L 108.085938 240.976562 L 102.085938 240.976562 Z M 102.085938 234.976562" clip-rule="nonzero"/></clipPath></defs><rect width="450" height="450" x="-37.5" y="-37.5" fill="#fff" fill-opacity="1"/><rect width="450" height="450" x="-37.5" y="-37.5" fill="#fff" fill-opacity="1"/><rect width="450" height="450" x="-37.5" y="-37.5" fill="#f6f4f2" fill-opacity="1"/><g clip-path="url(#11a885b933)"><g clip-path="url(#d623072e73)"><path fill="none" stroke="#6d5634" stroke-linecap="butt" stroke-linejoin="miter" stroke-miterlimit="4" stroke-opacity="1" stroke-width="2" d="M 155.193862 -0.0014502 C 69.481824 -0.0014502 -0.00145621 69.48183 -0.00145621 155.193868 C -0.00145621 240.905906 69.481824 310.389186 155.193862 310.389186 C 240.905899 310.389186 310.38918 240.905906 310.38918 155.193868 C 310.38918 69.48183 240.905899 -0.0014502 155.193862 -0.0014502" transform="matrix(0.749056, 0, 0, 0.749056, 71.098747, 71.098743)"/></g></g><g clip-path="url(#d72669b042)"><g clip-path="url(#8d728920b2)"><path fill="none" stroke="#6d5634" stroke-linecap="butt" stroke-linejoin="miter" stroke-miterlimit="4" stroke-opacity="1" stroke-width="2" d="M 104.458563 -0.00237156 C 46.766593 -0.00237156 -0.00237755 46.766599 -0.00237755 104.458569 C -0.00237755 162.150538 46.766593 208.919509 104.458563 208.919509 C 162.150532 208.919509 208.919503 162.150538 208.919503 104.458569 C 208.919503 46.766599 162.150532 -0.00237156 104.458563 -0.00237156" transform="matrix(0.75028, 0, 0, 0.75028, 109.150221, 109.150217)"/></g></g><g fill="#6d5634" fill-opacity="1"><g><g><path d="M -0.984375 -2.390625 L -0.421875 -1.046875 L -8.375 2.21875 L -8.9375 0.875 Z M -0.984375 -2.390625" transform="translate(102.523337, 224.185911)"/></g></g></g><g fill="#6d5634" fill-opacity="1"><g><g><path d="M -1.859375 -8.375 L -1.546875 -6.984375 L -6.578125 -1.171875 L -0.5625 -2.515625 L -0.25 -1.09375 L -8.640625 0.765625 L -8.9375 -0.625 L -3.90625 -6.453125 L -9.9375 -5.125 L -10.25 -6.515625 Z M -1.859375 -8.375" transform="translate(98.133073, 212.10667)"/></g></g></g><g fill="#6d5634" fill-opacity="1"><g><g><path d="M -8.171875 -4.859375 C -8.054688 -5.960938 -7.660156 -6.921875 -6.984375 -7.734375 L -5.78125 -7.015625 C -6.394531 -6.191406 -6.742188 -5.382812 -6.828125 -4.59375 C -6.867188 -4.15625 -6.828125 -3.800781 -6.703125 -3.53125 C -6.578125 -3.269531 -6.375 -3.125 -6.09375 -3.09375 C -5.8125 -3.070312 -5.554688 -3.160156 -5.328125 -3.359375 C -5.109375 -3.566406 -4.929688 -3.835938 -4.796875 -4.171875 C -4.671875 -4.503906 -4.515625 -4.863281 -4.328125 -5.25 C -4.148438 -5.632812 -3.960938 -5.988281 -3.765625 -6.3125 C -3.566406 -6.632812 -3.285156 -6.882812 -2.921875 -7.0625 C -2.566406 -7.25 -2.144531 -7.316406 -1.65625 -7.265625 C -0.914062 -7.191406 -0.351562 -6.832031 0.03125 -6.1875 C 0.414062 -5.550781 0.554688 -4.757812 0.453125 -3.8125 C 0.378906 -3.15625 0.191406 -2.535156 -0.109375 -1.953125 C -0.421875 -1.367188 -0.8125 -0.867188 -1.28125 -0.453125 L -2.453125 -1.203125 C -2.003906 -1.585938 -1.644531 -2.03125 -1.375 -2.53125 C -1.113281 -3.03125 -0.957031 -3.507812 -0.90625 -3.96875 C -0.851562 -4.46875 -0.898438 -4.867188 -1.046875 -5.171875 C -1.191406 -5.472656 -1.429688 -5.640625 -1.765625 -5.671875 C -2.054688 -5.703125 -2.3125 -5.613281 -2.53125 -5.40625 C -2.757812 -5.195312 -2.941406 -4.925781 -3.078125 -4.59375 C -3.210938 -4.269531 -3.363281 -3.914062 -3.53125 -3.53125 C -3.707031 -3.144531 -3.882812 -2.789062 -4.0625 -2.46875 C -4.25 -2.144531 -4.519531 -1.890625 -4.875 -1.703125 C -5.238281 -1.515625 -5.65625 -1.441406 -6.125 -1.484375 C -6.84375 -1.566406 -7.390625 -1.910156 -7.765625 -2.515625 C -8.140625 -3.128906 -8.273438 -3.910156 -8.171875 -4.859375 Z M -8.171875 -4.859375" transform="translate(94.983032, 181.146662)"/></g></g></g><g fill="#6d5634" fill-opacity="1"><g><g><path d="M -4.921875 -9.046875 L -6.25 -4.546875 L -4.03125 -3.890625 L -2.84375 -7.90625 L -1.59375 -7.53125 L -2.78125 -3.515625 L -0.515625 -2.84375 L 0.859375 -7.46875 L 2.109375 -7.09375 L 0.328125 -1.078125 L -7.90625 -3.53125 L -6.171875 -9.421875 Z M -4.921875 -9.046875" transform="translate(97.565075, 164.628197)"/></g></g></g><g fill="#6d5634" fill-opacity="1"><g><g><path d="M 1.359375 -6.8125 L -0.640625 -2.96875 L 0.703125 -1.34375 L 0 -0.015625 L -5.875 -7.328125 L -5.1875 -8.640625 L 4.171875 -8.03125 L 3.453125 -6.65625 Z M -0.03125 -6.921875 L -4.171875 -7.25 L -1.53125 -4.03125 Z M -0.03125 -6.921875" transform="translate(103.21109, 148.471594)"/></g></g></g><g fill="#6d5634" fill-opacity="1"><g><g><path d="M 4.09375 -5.140625 L 1.078125 -5.515625 C 1.023438 -5.453125 0.945312 -5.351562 0.84375 -5.21875 L -0.421875 -3.625 L 1.609375 -2.015625 L 0.703125 -0.875 L -6.015625 -6.234375 L -3.84375 -8.96875 C -3.164062 -9.820312 -2.4375 -10.320312 -1.65625 -10.46875 C -0.875 -10.625 -0.117188 -10.414062 0.609375 -9.84375 C 1.148438 -9.40625 1.507812 -8.921875 1.6875 -8.390625 C 1.863281 -7.859375 1.859375 -7.300781 1.671875 -6.71875 L 5.125 -6.421875 Z M -1.4375 -4.4375 L -0.171875 -6.03125 C 0.691406 -7.125 0.671875 -8.03125 -0.234375 -8.75 C -1.085938 -9.4375 -1.945312 -9.234375 -2.8125 -8.140625 L -4.078125 -6.546875 Z M -1.4375 -4.4375" transform="translate(112.326708, 132.839874)"/></g></g></g><g fill="#6d5634" fill-opacity="1"><g><g><path d="M -1.84375 -9.765625 C -1.382812 -10.160156 -0.859375 -10.453125 -0.265625 -10.640625 C 0.316406 -10.835938 0.90625 -10.910156 1.5 -10.859375 L 1.515625 -9.515625 C 1.078125 -9.578125 0.632812 -9.539062 0.1875 -9.40625 C -0.257812 -9.28125 -0.648438 -9.078125 -0.984375 -8.796875 C -1.628906 -8.242188 -1.988281 -7.550781 -2.0625 -6.71875 C -2.144531 -5.894531 -1.910156 -5.160156 -1.359375 -4.515625 C -0.816406 -3.867188 -0.128906 -3.515625 0.703125 -3.453125 C 1.546875 -3.390625 2.289062 -3.632812 2.9375 -4.1875 C 3.625 -4.769531 4.003906 -5.550781 4.078125 -6.53125 L 5.359375 -6.34375 C 5.304688 -5.738281 5.140625 -5.144531 4.859375 -4.5625 C 4.578125 -3.988281 4.207031 -3.507812 3.75 -3.125 C 2.800781 -2.3125 1.726562 -1.941406 0.53125 -2.015625 C -0.664062 -2.097656 -1.664062 -2.613281 -2.46875 -3.5625 C -3.257812 -4.488281 -3.59375 -5.546875 -3.46875 -6.734375 C -3.34375 -7.929688 -2.800781 -8.941406 -1.84375 -9.765625 Z M -1.84375 -9.765625" transform="translate(124.172397, 119.389909)"/></g></g></g><g fill="#6d5634" fill-opacity="1"><g><g><path d="M 7.484375 -4.1875 L 6.21875 -3.484375 L 4.484375 -6.59375 L 0.515625 -4.375 L 2.25 -1.265625 L 0.984375 -0.546875 L -3.21875 -8.046875 L -1.953125 -8.765625 L -0.125 -5.5 L 3.84375 -7.71875 L 2.015625 -10.984375 L 3.28125 -11.6875 Z M 7.484375 -4.1875" transform="translate(138.076324, 108.610834)"/></g></g></g><g fill="#6d5634" fill-opacity="1"><g><g><path d="M 0.4375 -7.578125 C 1.15625 -8.546875 2.144531 -9.140625 3.40625 -9.359375 C 4.664062 -9.578125 5.796875 -9.351562 6.796875 -8.6875 C 7.804688 -8.019531 8.414062 -7.082031 8.625 -5.875 C 8.84375 -4.664062 8.59375 -3.570312 7.875 -2.59375 C 7.15625 -1.613281 6.164062 -1.015625 4.90625 -0.796875 C 3.644531 -0.578125 2.507812 -0.804688 1.5 -1.484375 C 0.5 -2.160156 -0.101562 -3.101562 -0.3125 -4.3125 C -0.53125 -5.519531 -0.28125 -6.609375 0.4375 -7.578125 Z M 3.640625 -8.078125 C 2.796875 -7.929688 2.125 -7.515625 1.625 -6.828125 C 1.132812 -6.148438 0.960938 -5.390625 1.109375 -4.546875 C 1.265625 -3.710938 1.691406 -3.054688 2.390625 -2.578125 C 3.085938 -2.097656 3.851562 -1.929688 4.6875 -2.078125 C 5.519531 -2.222656 6.175781 -2.640625 6.65625 -3.328125 C 7.144531 -4.015625 7.3125 -4.773438 7.15625 -5.609375 C 7.007812 -6.453125 6.59375 -7.109375 5.90625 -7.578125 C 5.226562 -8.054688 4.472656 -8.222656 3.640625 -8.078125 Z M 3.640625 -8.078125" transform="translate(166.753103, 96.646397)"/></g></g></g><g fill="#6d5634" fill-opacity="1"><g><g><path d="M 6.984375 -7.171875 L 2.6875 -7.234375 L 2.65625 -4.765625 L 6.546875 -4.71875 L 6.53125 -3.421875 L 2.640625 -3.46875 L 2.578125 0.046875 L 1.125 0.015625 L 1.265625 -8.578125 L 7.03125 -8.484375 Z M 6.984375 -7.171875" transform="translate(185.604456, 94.347988)"/></g></g></g><g fill="#6d5634" fill-opacity="1"><g><g><path d="M 2.453125 0.78125 L 1.078125 0.34375 L 3.671875 -7.84375 L 5.046875 -7.40625 Z M 2.453125 0.78125" transform="translate(213.952086, 98.16756)"/></g></g></g><g fill="#6d5634" fill-opacity="1"><g><g><path d="M 7.625 3.9375 L 6.359375 3.296875 L 5.125 -4.28125 L 2.296875 1.1875 L 1 0.515625 L 4.953125 -7.109375 L 6.21875 -6.453125 L 7.46875 1.140625 L 10.3125 -4.328125 L 11.578125 -3.6875 Z M 7.625 3.9375" transform="translate(226.03887, 102.547084)"/></g></g></g><g fill="#6d5634" fill-opacity="1"><g><g><path d="M 9.234375 -3.65625 C 9.703125 -3.28125 10.085938 -2.820312 10.390625 -2.28125 C 10.691406 -1.738281 10.878906 -1.175781 10.953125 -0.59375 L 9.625 -0.3125 C 9.59375 -0.769531 9.472656 -1.203125 9.265625 -1.609375 C 9.066406 -2.023438 8.796875 -2.367188 8.453125 -2.640625 C 7.785156 -3.171875 7.035156 -3.394531 6.203125 -3.3125 C 5.378906 -3.226562 4.703125 -2.859375 4.171875 -2.203125 C 3.648438 -1.535156 3.4375 -0.785156 3.53125 0.046875 C 3.625 0.878906 4.003906 1.5625 4.671875 2.09375 C 5.367188 2.644531 6.203125 2.867188 7.171875 2.765625 L 7.25 4.0625 C 6.644531 4.125 6.03125 4.070312 5.40625 3.90625 C 4.789062 3.738281 4.25 3.46875 3.78125 3.09375 C 2.800781 2.3125 2.234375 1.320312 2.078125 0.125 C 1.929688 -1.0625 2.242188 -2.140625 3.015625 -3.109375 C 3.773438 -4.054688 4.753906 -4.582031 5.953125 -4.6875 C 7.148438 -4.789062 8.242188 -4.445312 9.234375 -3.65625 Z M 9.234375 -3.65625" transform="translate(242.236391, 111.990738)"/></g></g></g><g fill="#6d5634" fill-opacity="1"><g><g><path d="M 4.265625 5 L 5.21875 2.125 C 5.15625 2.050781 5.066406 1.953125 4.953125 1.828125 L 3.640625 0.28125 L 1.671875 1.96875 L 0.734375 0.859375 L 7.28125 -4.71875 L 9.53125 -2.0625 C 10.238281 -1.238281 10.59375 -0.429688 10.59375 0.359375 C 10.59375 1.160156 10.242188 1.863281 9.546875 2.46875 C 9.015625 2.914062 8.46875 3.175781 7.90625 3.25 C 7.351562 3.332031 6.804688 3.226562 6.265625 2.9375 L 5.328125 6.25 Z M 4.640625 -0.5625 L 5.953125 0.984375 C 6.859375 2.035156 7.75 2.1875 8.625 1.4375 C 9.46875 0.726562 9.4375 -0.148438 8.53125 -1.203125 L 7.21875 -2.75 Z M 4.640625 -0.5625" transform="translate(255.450478, 123.625818)"/></g></g></g><g fill="#6d5634" fill-opacity="1"><g><g><path d="M 9.921875 2.71875 L 7.609375 -1.359375 L 5.59375 -0.21875 L 7.65625 3.421875 L 6.53125 4.0625 L 4.46875 0.421875 L 2.40625 1.59375 L 4.78125 5.796875 L 3.65625 6.4375 L 0.5625 0.984375 L 8.03125 -3.265625 L 11.0625 2.0625 Z M 9.921875 2.71875" transform="translate(266.386886, 137.835962)"/></g></g></g><g fill="#6d5634" fill-opacity="1"><g><g><path d="M 8.5 -1.6875 L 9.625 1.65625 C 10.03125 2.875 9.984375 4.007812 9.484375 5.0625 C 8.984375 6.125 8.144531 6.851562 6.96875 7.25 C 5.789062 7.65625 4.679688 7.582031 3.640625 7.03125 C 2.609375 6.488281 1.882812 5.601562 1.46875 4.375 L 0.359375 1.0625 Z M 7.734375 0.109375 L 2.0625 2.03125 L 2.734375 4.03125 C 3.003906 4.832031 3.492188 5.40625 4.203125 5.75 C 4.910156 6.09375 5.671875 6.125 6.484375 5.84375 C 7.304688 5.570312 7.894531 5.070312 8.25 4.34375 C 8.613281 3.625 8.65625 2.863281 8.375 2.0625 Z M 7.734375 0.109375" transform="translate(274.133711, 153.086978)"/></g></g></g><g fill="#6d5634" fill-opacity="1"><g><g><path d="M 0.390625 2.546875 L 0.171875 1.109375 L 8.65625 -0.21875 L 8.875 1.21875 Z M 0.390625 2.546875" transform="translate(279.102352, 171.046057)"/></g></g></g><g fill="#6d5634" fill-opacity="1"><g><g><path d="M 8.578125 1.21875 L 8.546875 4.953125 C 8.535156 5.835938 8.332031 6.535156 7.9375 7.046875 C 7.550781 7.554688 7.023438 7.804688 6.359375 7.796875 C 5.878906 7.796875 5.46875 7.660156 5.125 7.390625 C 4.789062 7.117188 4.570312 6.75 4.46875 6.28125 C 4.351562 6.851562 4.101562 7.300781 3.71875 7.625 C 3.332031 7.945312 2.851562 8.109375 2.28125 8.109375 C 1.539062 8.097656 0.960938 7.8125 0.546875 7.25 C 0.140625 6.6875 -0.0546875 5.914062 -0.046875 4.9375 L -0.015625 1.125 Z M 7.265625 2.65625 L 5 2.625 L 4.984375 4.828125 C 4.972656 5.285156 5.066406 5.644531 5.265625 5.90625 C 5.472656 6.175781 5.753906 6.3125 6.109375 6.3125 C 6.472656 6.3125 6.75 6.1875 6.9375 5.9375 C 7.132812 5.6875 7.238281 5.328125 7.25 4.859375 Z M 3.71875 2.609375 L 1.25 2.59375 L 1.234375 4.796875 C 1.222656 5.367188 1.328125 5.8125 1.546875 6.125 C 1.765625 6.445312 2.070312 6.613281 2.46875 6.625 C 2.851562 6.625 3.148438 6.460938 3.359375 6.140625 C 3.578125 5.816406 3.691406 5.375 3.703125 4.8125 Z M 3.71875 2.609375" transform="translate(280.544263, 183.836722)"/></g></g></g><g fill="#6d5634" fill-opacity="1"><g><g><path d="M 0.796875 2.78125 L 0.09375 6.4375 L -1.1875 6.1875 L -0.21875 1.109375 L 8.21875 2.734375 L 7.953125 4.15625 Z M 0.796875 2.78125" transform="translate(279.447365, 201.557263)"/></g></g></g><g fill="#6d5634" fill-opacity="1"><g><g><path d="M 4.1875 9.390625 L 5.875 5.015625 L 3.71875 4.1875 L 2.21875 8.09375 L 1 7.625 L 2.5 3.71875 L 0.28125 2.875 L -1.453125 7.375 L -2.65625 6.90625 L -0.40625 1.046875 L 7.609375 4.125 L 5.40625 9.859375 Z M 4.1875 9.390625" transform="translate(275.762574, 216.781302)"/></g></g></g><g fill="#6d5634" fill-opacity="1"><g><g><path d="M 3.085938 0 L 10.710938 0 L 10.710938 -0.617188 C 9.140625 -1.007812 8.46875 -1.960938 8.46875 -7.121094 L 8.46875 -15.699219 L 13.738281 -21.085938 L 14.859375 -21.140625 C 21.253906 -21.476562 22.429688 -17.609375 26.300781 -8.1875 C 28.261719 -3.363281 29.664062 0.167969 33.140625 0.167969 C 34.375 0.167969 35.496094 -0.0546875 36.054688 -0.222656 L 36.054688 -0.839844 C 35.71875 -0.785156 35.328125 -0.730469 34.933594 -0.730469 C 33.140625 -0.730469 31.402344 -3.421875 29.101562 -9.085938 C 24.898438 -19.402344 23.945312 -22.65625 15.644531 -21.980469 L 14.523438 -21.871094 L 26.46875 -34.148438 C 30.113281 -37.851562 32.074219 -38.242188 33.476562 -38.636719 L 33.476562 -39.253906 L 26.746094 -39.253906 L 26.746094 -38.859375 C 28.65625 -38.523438 27.8125 -36.503906 24.28125 -32.917969 L 8.46875 -16.710938 L 8.46875 -32.132812 C 8.46875 -37.289062 9.140625 -38.242188 10.710938 -38.636719 L 10.710938 -39.253906 L 3.085938 -39.253906 L 3.085938 -38.636719 C 4.652344 -38.242188 5.328125 -37.289062 5.328125 -32.132812 L 5.328125 -7.121094 C 5.328125 -1.960938 4.652344 -1.007812 3.085938 -0.617188 Z M 3.085938 0" transform="translate(119.690163, 196.827518)"/></g></g></g><g fill="#6d5634" fill-opacity="1"><g><g><path d="M 3.085938 0 L 10.710938 0 L 10.710938 -0.617188 C 9.140625 -1.007812 8.46875 -1.960938 8.46875 -7.121094 L 8.46875 -20.410156 L 31.792969 -20.410156 L 31.792969 -7.121094 C 31.792969 -1.960938 31.121094 -1.007812 29.550781 -0.617188 L 29.550781 0 L 37.179688 0 L 37.179688 -0.617188 C 35.609375 -1.007812 34.933594 -1.960938 34.933594 -7.121094 L 34.933594 -32.132812 C 34.933594 -37.289062 35.609375 -38.242188 37.179688 -38.636719 L 37.179688 -39.253906 L 29.550781 -39.253906 L 29.550781 -38.636719 C 31.121094 -38.242188 31.792969 -37.289062 31.792969 -32.132812 L 31.792969 -21.195312 L 8.46875 -21.195312 L 8.46875 -32.132812 C 8.46875 -37.289062 9.140625 -38.242188 10.710938 -38.636719 L 10.710938 -39.253906 L 3.085938 -39.253906 L 3.085938 -38.636719 C 4.652344 -38.242188 5.328125 -37.289062 5.328125 -32.132812 L 5.328125 -7.121094 C 5.328125 -1.960938 4.652344 -1.007812 3.085938 -0.617188 Z M 3.085938 0" transform="translate(170.887942, 196.827518)"/></g></g></g><g fill="#6d5634" fill-opacity="1"><g><g><path d="M 3.085938 0 L 13.738281 0 C 27.140625 0 31.515625 -6.617188 31.402344 -12.617188 C 31.347656 -18 28.039062 -22.824219 19.007812 -23.441406 C 24.671875 -24.5625 27.195312 -28.039062 27.195312 -31.851562 C 27.195312 -36.394531 23.441406 -39.253906 15.421875 -39.253906 L 3.085938 -39.253906 L 3.085938 -38.636719 C 4.652344 -38.242188 5.328125 -37.289062 5.328125 -32.132812 L 5.328125 -7.121094 C 5.328125 -1.960938 4.652344 -1.007812 3.085938 -0.617188 Z M 8.46875 -5.664062 L 8.46875 -22.710938 L 16.039062 -22.710938 C 24.503906 -22.710938 27.925781 -18.054688 27.925781 -11.886719 C 27.925781 -5.382812 24.5625 -0.785156 14.242188 -0.785156 L 11.382812 -0.785156 C 8.972656 -0.785156 8.46875 -1.625 8.46875 -5.664062 Z M 8.46875 -23.441406 L 8.46875 -38.523438 L 14.859375 -38.523438 C 20.746094 -38.523438 23.71875 -35.550781 23.71875 -31.121094 C 23.71875 -26.859375 21.085938 -23.441406 13.960938 -23.441406 Z M 8.46875 -23.441406" transform="translate(226.739848, 196.827518)"/></g></g></g><path fill="#6d5634" fill-opacity="1" fill-rule="nonzero" d="M 249.859375 190.222656 C 244.570312 182.402344 233.828125 179.507812 224.8125 180.101562 C 217.242188 180.617188 210.109375 183.671875 203.65625 187.484375 C 199.089844 190.179688 194.800781 193.195312 190.355469 196.09375 C 180.417969 191.292969 171.039062 185.378906 160.140625 182.957031 C 154.289062 181.648438 145.914062 180.695312 141.148438 185.339844 C 138.023438 188.394531 138.421875 192.917969 141.265625 196.015625 C 147.199219 202.523438 158.738281 201.925781 166.03125 198.59375 C 168.796875 197.324219 171.238281 195.578125 173.363281 193.394531 C 173.683594 193.039062 173.203125 192.5625 172.84375 192.878906 C 167.875 197.679688 161.140625 200.300781 154.171875 200.023438 C 150.121094 199.863281 145.554688 198.753906 142.507812 195.855469 C 139.023438 192.523438 139.101562 187.402344 143.429688 184.863281 C 150.925781 180.417969 161.703125 184.308594 168.914062 187.324219 C 175.6875 190.140625 181.859375 194.070312 188.429688 197.285156 C 186.828125 198.277344 185.222656 199.269531 183.621094 200.179688 C 176.007812 204.425781 167.753906 207.164062 158.976562 206.96875 C 147.398438 206.730469 134.695312 201.253906 130.609375 189.664062 C 130.527344 189.46875 130.167969 189.546875 130.246094 189.785156 C 132.972656 198.992188 141.066406 205.339844 150.28125 207.523438 C 158.859375 209.507812 168.074219 208.078125 176.167969 204.824219 C 180.855469 202.957031 185.183594 200.457031 189.433594 197.761719 C 192.558594 199.230469 195.761719 200.617188 199.089844 201.808594 C 194.28125 206.371094 189.550781 211.054688 183.941406 214.585938 C 183.382812 214.941406 182.738281 215.339844 182.097656 215.695312 C 180.296875 214.941406 178.453125 214.269531 176.609375 213.632812 C 172.441406 212.285156 166.3125 210.816406 162.382812 213.714844 C 159.941406 215.5 160.5 218.632812 162.863281 220.222656 C 167.191406 223.117188 174.042969 221.410156 178.492188 219.785156 C 180.335938 219.109375 182.058594 218.277344 183.703125 217.324219 C 184.863281 217.839844 185.984375 218.394531 187.109375 218.871094 C 192.757812 221.449219 199.089844 224.1875 205.460938 223.832031 C 209.789062 223.59375 214.277344 220.222656 214.15625 215.578125 C 214.035156 212.125 210.347656 209.507812 207.023438 209.902344 C 204.539062 210.179688 202.734375 211.925781 201.371094 213.832031 C 200.933594 214.425781 201.933594 215.023438 202.375 214.425781 C 204.179688 211.925781 207.183594 209.941406 210.226562 211.730469 C 212.433594 213 212.914062 215.300781 212.113281 217.5625 C 209.628906 224.507812 200.289062 222.324219 194.960938 220.65625 C 191.433594 219.585938 188.070312 218.15625 184.703125 216.730469 C 190.914062 213 196.082031 207.679688 201.371094 202.523438 C 204.257812 203.433594 207.183594 204.1875 210.148438 204.664062 C 216.601562 205.695312 223.972656 206.371094 230.183594 203.832031 C 234.03125 202.246094 237.714844 198.792969 237.554688 194.347656 C 237.4375 190.855469 234.953125 188.117188 231.785156 186.886719 C 226.738281 184.941406 221.085938 186.648438 216.398438 188.832031 C 210.347656 191.609375 205.421875 195.855469 200.652344 200.339844 C 200.089844 200.140625 199.570312 199.941406 199.007812 199.785156 C 196.402344 198.832031 193.839844 197.722656 191.355469 196.570312 C 193.199219 195.378906 195 194.148438 196.84375 192.917969 C 203.375 188.59375 210.1875 184.1875 217.921875 182.402344 C 223.011719 181.214844 228.300781 181.171875 233.429688 182.203125 C 236.273438 182.800781 239.039062 183.792969 241.5625 185.222656 C 244.328125 186.769531 246.53125 188.949219 249.015625 190.855469 C 249.457031 191.171875 250.21875 190.777344 249.859375 190.222656 Z M 165.109375 219.664062 C 163.464844 219.148438 161.621094 217.761719 162.34375 215.855469 C 163.226562 213.632812 166.109375 213.117188 168.195312 213.078125 C 172.640625 213 177.011719 214.46875 181.175781 216.253906 C 176.367188 218.910156 170.199219 221.292969 165.109375 219.664062 Z M 210.269531 194.585938 C 215.277344 190.695312 221.847656 186.769531 228.460938 187.402344 C 232.828125 187.839844 237.15625 191.132812 236.234375 195.894531 C 234.992188 202.402344 226.898438 204.1875 221.289062 204.1875 C 215.078125 204.1875 208.867188 202.957031 202.9375 201.09375 C 205.300781 198.792969 207.703125 196.570312 210.269531 194.585938 Z M 210.269531 194.585938"/><g clip-path="url(#96ec00cd8d)"><path fill="#6d5634" fill-opacity="1" fill-rule="nonzero" d="M 108.085938 237.976562 C 108.085938 238.375 108.007812 238.757812 107.855469 239.125 C 107.703125 239.492188 107.488281 239.816406 107.207031 240.097656 C 106.925781 240.378906 106.597656 240.597656 106.230469 240.75 C 105.863281 240.902344 105.480469 240.976562 105.085938 240.976562 C 104.6875 240.976562 104.304688 240.902344 103.9375 240.75 C 103.570312 240.597656 103.242188 240.378906 102.960938 240.097656 C 102.679688 239.816406 102.464844 239.492188 102.3125 239.125 C 102.160156 238.757812 102.085938 238.375 102.085938 237.976562 C 102.085938 237.578125 102.160156 237.195312 102.3125 236.828125 C 102.464844 236.460938 102.679688 236.136719 102.960938 235.855469 C 103.242188 235.574219 103.570312 235.359375 103.9375 235.207031 C 104.304688 235.054688 104.6875 234.976562 105.085938 234.976562 C 105.480469 234.976562 105.863281 235.054688 106.230469 235.207031 C 106.597656 235.359375 106.925781 235.574219 107.207031 235.855469 C 107.488281 236.136719 107.703125 236.460938 107.855469 236.828125 C 108.007812 237.195312 108.085938 237.578125 108.085938 237.976562 Z M 108.085938 237.976562"/></g></svg>