<svg xmlns="http://www.w3.org/2000/svg" xmlns:xlink="http://www.w3.org/1999/xlink" width="500" height="500" preserveAspectRatio="xMidYMid meet" version="1.0" viewBox="0 0 375 375" zoomAndPan="magnify"><defs><clipPath id="0bfb34843d"><path d="M 7.351562 7.351562 L 368.851562 7.351562 L 368.851562 368.851562 L 7.351562 368.851562 Z M 7.351562 7.351562" clip-rule="nonzero"/></clipPath><clipPath id="eeba9dfc15"><path d="M 188.101562 7.351562 C 88.277344 7.351562 7.351562 88.277344 7.351562 188.101562 C 7.351562 287.925781 88.277344 368.851562 188.101562 368.851562 C 287.929688 368.851562 368.851562 287.925781 368.851562 188.101562 C 368.851562 88.277344 287.929688 7.351562 188.101562 7.351562" clip-rule="nonzero"/></clipPath><clipPath id="54f8698f87"><path d="M 63.566406 63.566406 L 312.566406 63.566406 L 312.566406 320.066406 L 63.566406 320.066406 Z M 63.566406 63.566406" clip-rule="nonzero"/></clipPath><clipPath id="28a568387c"><path d="M 188.066406 63.566406 C 119.308594 63.566406 63.566406 120.988281 63.566406 191.816406 C 63.566406 262.644531 119.308594 320.066406 188.066406 320.066406 C 256.824219 320.066406 312.566406 262.644531 312.566406 191.816406 C 312.566406 120.988281 256.824219 63.566406 188.066406 63.566406" clip-rule="nonzero"/></clipPath><clipPath id="7e2756162b"><path d="M 120.292969 185 L 275 185 L 275 242.941406 L 120.292969 242.941406 Z M 120.292969 185" clip-rule="nonzero"/></clipPath><clipPath id="4f582a00a9"><path d="M 102.085938 234.976562 L 108.085938 234.976562 L 108.085938 240.976562 L 102.085938 240.976562 Z M 102.085938 234.976562" clip-rule="nonzero"/></clipPath></defs><rect width="450" height="450" x="-37.5" y="-37.5" fill="#fff" fill-opacity="1"/><rect width="450" height="450" x="-37.5" y="-37.5" fill="#fff" fill-opacity="1"/><rect width="450" height="450" x="-37.5" y="-37.5" fill="#000" fill-opacity="1"/><g clip-path="url(#0bfb34843d)"><g clip-path="url(#eeba9dfc15)"><path fill="none" stroke="#fff" stroke-linecap="butt" stroke-linejoin="miter" stroke-miterlimit="4" stroke-opacity="1" stroke-width="2" d="M 240.905298 -0.000993077 C 107.85809 -0.000993077 -0.000999074 107.858096 -0.000999074 240.905304 C -0.000999074 373.952513 107.85809 481.811602 240.905298 481.811602 C 373.952507 481.811602 481.811596 373.952513 481.811596 240.905304 C 481.811596 107.858096 373.952507 -0.000993077 240.905298 -0.000993077" transform="matrix(0.750292, 0, 0, 0.750292, 7.352312, 7.352308)"/></g></g><g clip-path="url(#54f8698f87)"><g clip-path="url(#28a568387c)"><path fill="none" stroke="#fff" stroke-linecap="butt" stroke-linejoin="miter" stroke-miterlimit="4" stroke-opacity="1" stroke-width="2" d="M 166.187813 -0.00156313 C 74.407175 -0.00156313 0.000305844 76.532961 0.000305844 170.935953 C 0.000305844 265.338946 74.407175 341.87347 166.187813 341.87347 C 257.968452 341.87347 332.375321 265.338946 332.375321 170.935953 C 332.375321 76.532961 257.968452 -0.00156313 166.187813 -0.00156313" transform="matrix(0.749154, 0, 0, 0.750274, 63.566177, 63.567579)"/></g></g><g fill="#fff" fill-opacity="1"><g><g><path d="M -1.53125 -3.71875 L -0.671875 -1.640625 L -13.078125 3.453125 L -13.9375 1.375 Z M -1.53125 -3.71875" transform="translate(53.463871, 243.132356)"/></g></g></g><g fill="#fff" fill-opacity="1"><g><g><path d="M -2.90625 -13.078125 L -2.421875 -10.90625 L -10.25 -1.828125 L -0.875 -3.921875 L -0.390625 -1.71875 L -13.484375 1.1875 L -13.953125 -0.984375 L -6.109375 -10.078125 L -15.515625 -8 L -16 -10.171875 Z M -2.90625 -13.078125" transform="translate(46.606482, 224.265158)"/></g></g></g><g fill="#fff" fill-opacity="1"><g><g><path d="M -12.765625 -7.578125 C -12.578125 -9.304688 -11.957031 -10.804688 -10.90625 -12.078125 L -9.03125 -10.9375 C -9.988281 -9.664062 -10.535156 -8.410156 -10.671875 -7.171875 C -10.742188 -6.492188 -10.679688 -5.945312 -10.484375 -5.53125 C -10.285156 -5.125 -9.960938 -4.894531 -9.515625 -4.84375 C -9.078125 -4.800781 -8.679688 -4.941406 -8.328125 -5.265625 C -7.984375 -5.585938 -7.707031 -6.007812 -7.5 -6.53125 C -7.300781 -7.050781 -7.054688 -7.609375 -6.765625 -8.203125 C -6.472656 -8.796875 -6.175781 -9.34375 -5.875 -9.84375 C -5.570312 -10.351562 -5.132812 -10.753906 -4.5625 -11.046875 C -4 -11.335938 -3.347656 -11.445312 -2.609375 -11.375 C -1.429688 -11.25 -0.546875 -10.679688 0.046875 -9.671875 C 0.648438 -8.660156 0.875 -7.414062 0.71875 -5.9375 C 0.601562 -4.90625 0.304688 -3.9375 -0.171875 -3.03125 C -0.660156 -2.125 -1.265625 -1.351562 -1.984375 -0.71875 L -3.828125 -1.875 C -3.128906 -2.488281 -2.566406 -3.179688 -2.140625 -3.953125 C -1.722656 -4.722656 -1.472656 -5.472656 -1.390625 -6.203125 C -1.304688 -6.984375 -1.382812 -7.609375 -1.625 -8.078125 C -1.863281 -8.554688 -2.238281 -8.820312 -2.75 -8.875 C -3.207031 -8.925781 -3.609375 -8.785156 -3.953125 -8.453125 C -4.304688 -8.128906 -4.582031 -7.707031 -4.78125 -7.1875 C -4.988281 -6.675781 -5.226562 -6.117188 -5.5 -5.515625 C -5.78125 -4.921875 -6.066406 -4.367188 -6.359375 -3.859375 C -6.648438 -3.347656 -7.070312 -2.941406 -7.625 -2.640625 C -8.1875 -2.347656 -8.832031 -2.238281 -9.5625 -2.3125 C -10.695312 -2.4375 -11.550781 -2.976562 -12.125 -3.9375 C -12.707031 -4.90625 -12.921875 -6.117188 -12.765625 -7.578125 Z M -12.765625 -7.578125" transform="translate(41.68626, 175.907064)"/></g></g></g><g fill="#fff" fill-opacity="1"><g><g><path d="M -7.671875 -14.109375 L -9.765625 -7.078125 L -6.296875 -6.0625 L -4.421875 -12.359375 L -2.484375 -11.78125 L -4.359375 -5.484375 L -0.8125 -4.421875 L 1.34375 -11.671875 L 3.296875 -11.09375 L 0.5 -1.6875 L -12.34375 -5.5 L -9.609375 -14.6875 Z M -7.671875 -14.109375" transform="translate(45.719303, 150.105966)"/></g></g></g><g fill="#fff" fill-opacity="1"><g><g><path d="M 2.109375 -10.640625 L -1 -4.640625 L 1.09375 -2.109375 L 0 -0.015625 L -9.171875 -11.4375 L -8.109375 -13.5 L 6.5 -12.53125 L 5.390625 -10.390625 Z M -0.0625 -10.796875 L -6.53125 -11.296875 L -2.390625 -6.3125 Z M -0.0625 -10.796875" transform="translate(54.538117, 124.870078)"/></g></g></g><g fill="#fff" fill-opacity="1"><g><g><path d="M 6.390625 -8.03125 L 1.703125 -8.640625 C 1.617188 -8.535156 1.488281 -8.375 1.3125 -8.15625 L -0.671875 -5.65625 L 2.5 -3.140625 L 1.09375 -1.375 L -9.390625 -9.734375 L -6 -14 C -4.9375 -15.332031 -3.796875 -16.117188 -2.578125 -16.359375 C -1.359375 -16.597656 -0.179688 -16.265625 0.953125 -15.359375 C 1.796875 -14.691406 2.359375 -13.9375 2.640625 -13.09375 C 2.921875 -12.257812 2.914062 -11.390625 2.625 -10.484375 L 8 -10.03125 Z M -2.25 -6.921875 L -0.265625 -9.421875 C 1.085938 -11.109375 1.054688 -12.515625 -0.359375 -13.640625 C -1.703125 -14.722656 -3.050781 -14.421875 -4.40625 -12.734375 L -6.390625 -10.234375 Z M -2.25 -6.921875" transform="translate(68.776301, 100.454055)"/></g></g></g><g fill="#fff" fill-opacity="1"><g><g><path d="M -2.890625 -15.25 C -2.171875 -15.863281 -1.347656 -16.320312 -0.421875 -16.625 C 0.492188 -16.925781 1.414062 -17.039062 2.34375 -16.96875 L 2.390625 -14.875 C 1.679688 -14.957031 0.972656 -14.898438 0.265625 -14.703125 C -0.429688 -14.503906 -1.039062 -14.179688 -1.5625 -13.734375 C -2.570312 -12.867188 -3.128906 -11.785156 -3.234375 -10.484375 C -3.347656 -9.191406 -2.976562 -8.050781 -2.125 -7.0625 C -1.257812 -6.039062 -0.179688 -5.484375 1.109375 -5.390625 C 2.398438 -5.296875 3.550781 -5.679688 4.5625 -6.546875 C 5.625 -7.453125 6.234375 -8.664062 6.390625 -10.1875 L 8.375 -9.921875 C 8.289062 -8.960938 8.023438 -8.03125 7.578125 -7.125 C 7.140625 -6.226562 6.566406 -5.476562 5.859375 -4.875 C 4.359375 -3.59375 2.675781 -3.015625 0.8125 -3.140625 C -1.050781 -3.265625 -2.609375 -4.0625 -3.859375 -5.53125 C -5.097656 -6.976562 -5.625 -8.640625 -5.4375 -10.515625 C -5.25 -12.390625 -4.398438 -13.96875 -2.890625 -15.25 Z M -2.890625 -15.25" transform="translate(87.278705, 79.445834)"/></g></g></g><g fill="#fff" fill-opacity="1"><g><g><path d="M 11.6875 -6.546875 L 9.703125 -5.4375 L 6.984375 -10.296875 L 0.78125 -6.828125 L 3.5 -1.96875 L 1.546875 -0.859375 L -5 -12.546875 L -3.046875 -13.65625 L -0.203125 -8.578125 L 6 -12.046875 L 3.15625 -17.125 L 5.140625 -18.234375 Z M 11.6875 -6.546875" transform="translate(108.996002, 62.609405)"/></g></g></g><g fill="#fff" fill-opacity="1"><g><g><path d="M 0.65625 -11.8125 C 1.78125 -13.332031 3.332031 -14.265625 5.3125 -14.609375 C 7.289062 -14.953125 9.0625 -14.601562 10.625 -13.5625 C 12.195312 -12.519531 13.148438 -11.050781 13.484375 -9.15625 C 13.816406 -7.269531 13.421875 -5.566406 12.296875 -4.046875 C 11.179688 -2.523438 9.632812 -1.59375 7.65625 -1.25 C 5.675781 -0.90625 3.898438 -1.253906 2.328125 -2.296875 C 0.765625 -3.347656 -0.179688 -4.816406 -0.515625 -6.703125 C -0.847656 -8.597656 -0.457031 -10.300781 0.65625 -11.8125 Z M 5.703125 -12.609375 C 4.378906 -12.378906 3.332031 -11.734375 2.5625 -10.671875 C 1.789062 -9.617188 1.519531 -8.4375 1.75 -7.125 C 1.976562 -5.8125 2.640625 -4.78125 3.734375 -4.03125 C 4.828125 -3.28125 6.023438 -3.019531 7.328125 -3.25 C 8.628906 -3.476562 9.65625 -4.128906 10.40625 -5.203125 C 11.164062 -6.273438 11.429688 -7.46875 11.203125 -8.78125 C 10.972656 -10.09375 10.320312 -11.113281 9.25 -11.84375 C 8.175781 -12.582031 6.992188 -12.835938 5.703125 -12.609375 Z M 5.703125 -12.609375" transform="translate(153.787799, 43.921501)"/></g></g></g><g fill="#fff" fill-opacity="1"><g><g><path d="M 10.921875 -11.203125 L 4.1875 -11.3125 L 4.125 -7.453125 L 10.21875 -7.359375 L 10.1875 -5.34375 L 4.09375 -5.4375 L 4.015625 0.0625 L 1.765625 0.03125 L 1.96875 -13.375 L 10.96875 -13.234375 Z M 10.921875 -11.203125" transform="translate(183.232778, 40.331504)"/></g></g></g><g fill="#fff" fill-opacity="1"><g><g><path d="M 3.828125 1.21875 L 1.6875 0.53125 L 5.734375 -12.25 L 7.875 -11.5625 Z M 3.828125 1.21875" transform="translate(227.510473, 46.297497)"/></g></g></g><g fill="#fff" fill-opacity="1"><g><g><path d="M 11.890625 6.15625 L 9.921875 5.140625 L 7.984375 -6.6875 L 3.5625 1.84375 L 1.5625 0.8125 L 7.71875 -11.09375 L 9.6875 -10.078125 L 11.65625 1.78125 L 16.078125 -6.765625 L 18.046875 -5.75 Z M 11.890625 6.15625" transform="translate(246.389471, 53.138103)"/></g></g></g><g fill="#fff" fill-opacity="1"><g><g><path d="M 14.421875 -5.734375 C 15.160156 -5.140625 15.765625 -4.414062 16.234375 -3.5625 C 16.710938 -2.71875 17.003906 -1.835938 17.109375 -0.921875 L 15.046875 -0.46875 C 14.992188 -1.175781 14.800781 -1.859375 14.46875 -2.515625 C 14.144531 -3.171875 13.71875 -3.707031 13.1875 -4.125 C 12.144531 -4.957031 10.976562 -5.304688 9.6875 -5.171875 C 8.394531 -5.035156 7.335938 -4.457031 6.515625 -3.4375 C 5.691406 -2.394531 5.351562 -1.226562 5.5 0.0625 C 5.65625 1.351562 6.253906 2.414062 7.296875 3.25 C 8.390625 4.113281 9.691406 4.476562 11.203125 4.34375 L 11.328125 6.328125 C 10.367188 6.429688 9.40625 6.351562 8.4375 6.09375 C 7.46875 5.832031 6.617188 5.410156 5.890625 4.828125 C 4.359375 3.597656 3.476562 2.050781 3.25 0.1875 C 3.019531 -1.664062 3.503906 -3.34375 4.703125 -4.84375 C 5.890625 -6.332031 7.421875 -7.160156 9.296875 -7.328125 C 11.171875 -7.492188 12.878906 -6.960938 14.421875 -5.734375 Z M 14.421875 -5.734375" transform="translate(271.689272, 67.888681)"/></g></g></g><g fill="#fff" fill-opacity="1"><g><g><path d="M 6.65625 7.8125 L 8.15625 3.3125 C 8.070312 3.21875 7.9375 3.066406 7.75 2.859375 L 5.6875 0.4375 L 2.609375 3.0625 L 1.140625 1.34375 L 11.34375 -7.359375 L 14.875 -3.21875 C 15.976562 -1.914062 16.535156 -0.644531 16.546875 0.59375 C 16.554688 1.832031 16.003906 2.925781 14.890625 3.875 C 14.078125 4.5625 13.234375 4.960938 12.359375 5.078125 C 11.492188 5.191406 10.632812 5.023438 9.78125 4.578125 L 8.328125 9.765625 Z M 7.234375 -0.875 L 9.296875 1.546875 C 10.703125 3.191406 12.09375 3.425781 13.46875 2.25 C 14.78125 1.132812 14.734375 -0.242188 13.328125 -1.890625 L 11.265625 -4.3125 Z M 7.234375 -0.875" transform="translate(292.329027, 86.062121)"/></g></g></g><g fill="#fff" fill-opacity="1"><g><g><path d="M 15.5 4.234375 L 11.875 -2.140625 L 8.734375 -0.359375 L 11.984375 5.359375 L 10.21875 6.375 L 6.96875 0.65625 L 3.75 2.484375 L 7.484375 9.0625 L 5.71875 10.0625 L 0.875 1.53125 L 12.53125 -5.09375 L 17.265625 3.234375 Z M 15.5 4.234375" transform="translate(309.411234, 108.257728)"/></g></g></g><g fill="#fff" fill-opacity="1"><g><g><path d="M 13.265625 -2.609375 L 15.015625 2.609375 C 15.660156 4.503906 15.59375 6.273438 14.8125 7.921875 C 14.03125 9.566406 12.71875 10.695312 10.875 11.3125 C 9.039062 11.925781 7.3125 11.8125 5.6875 10.96875 C 4.070312 10.132812 2.941406 8.753906 2.296875 6.828125 L 0.5625 1.671875 Z M 12.0625 0.1875 L 3.203125 3.171875 L 4.25 6.296875 C 4.675781 7.546875 5.441406 8.441406 6.546875 8.984375 C 7.648438 9.535156 8.84375 9.59375 10.125 9.15625 C 11.414062 8.726562 12.335938 7.945312 12.890625 6.8125 C 13.441406 5.675781 13.503906 4.476562 13.078125 3.21875 Z M 12.0625 0.1875" transform="translate(321.511381, 132.079092)"/></g></g></g><g fill="#fff" fill-opacity="1"><g><g><path d="M 0.625 3.96875 L 0.265625 1.75 L 13.515625 -0.328125 L 13.875 1.890625 Z M 0.625 3.96875" transform="translate(329.272197, 160.130365)"/></g></g></g><g fill="#fff" fill-opacity="1"><g><g><path d="M 13.390625 1.90625 L 13.328125 7.71875 C 13.316406 9.113281 13.007812 10.210938 12.40625 11.015625 C 11.800781 11.816406 10.976562 12.210938 9.9375 12.203125 C 9.175781 12.191406 8.535156 11.972656 8.015625 11.546875 C 7.492188 11.117188 7.144531 10.539062 6.96875 9.8125 C 6.8125 10.695312 6.425781 11.390625 5.8125 11.890625 C 5.207031 12.398438 4.453125 12.648438 3.546875 12.640625 C 2.398438 12.628906 1.503906 12.1875 0.859375 11.3125 C 0.210938 10.4375 -0.0976562 9.238281 -0.078125 7.71875 L -0.015625 1.765625 Z M 11.34375 4.125 L 7.8125 4.09375 L 7.78125 7.546875 C 7.769531 8.265625 7.921875 8.828125 8.234375 9.234375 C 8.554688 9.648438 9 9.859375 9.5625 9.859375 C 10.125 9.867188 10.550781 9.671875 10.84375 9.265625 C 11.144531 8.867188 11.300781 8.304688 11.3125 7.578125 Z M 5.8125 4.078125 L 1.96875 4.03125 L 1.9375 7.484375 C 1.925781 8.378906 2.085938 9.070312 2.421875 9.5625 C 2.753906 10.0625 3.234375 10.316406 3.859375 10.328125 C 4.441406 10.328125 4.90625 10.082031 5.25 9.59375 C 5.59375 9.101562 5.769531 8.414062 5.78125 7.53125 Z M 5.8125 4.078125" transform="translate(331.524368, 180.108781)"/></g></g></g><g fill="#fff" fill-opacity="1"><g><g><path d="M 1.25 4.328125 L 0.15625 10.046875 L -1.859375 9.65625 L -0.328125 1.734375 L 12.828125 4.265625 L 12.390625 6.46875 Z M 1.25 4.328125" transform="translate(329.811093, 207.787486)"/></g></g></g><g fill="#fff" fill-opacity="1"><g><g><path d="M 6.53125 14.671875 L 9.171875 7.828125 L 5.8125 6.53125 L 3.453125 12.65625 L 1.5625 11.9375 L 3.921875 5.8125 L 0.453125 4.484375 L -2.265625 11.546875 L -4.15625 10.8125 L -0.640625 1.640625 L 11.875 6.453125 L 8.4375 15.40625 Z M 6.53125 14.671875" transform="translate(324.055632, 231.566731)"/></g></g></g><g fill="#ff1616" fill-opacity="1"><g><g><path d="M 4.210938 0 L 14.625 0 L 14.625 -0.84375 C 12.480469 -1.378906 11.5625 -2.679688 11.5625 -9.726562 L 11.5625 -21.441406 L 18.761719 -28.792969 L 20.292969 -28.867188 C 29.023438 -29.328125 30.628906 -24.042969 35.914062 -11.179688 C 38.59375 -4.59375 40.507812 0.230469 45.253906 0.230469 C 46.941406 0.230469 48.472656 -0.078125 49.238281 -0.304688 L 49.238281 -1.148438 C 48.777344 -1.070312 48.242188 -0.996094 47.707031 -0.996094 C 45.253906 -0.996094 42.882812 -4.671875 39.742188 -12.40625 C 34 -26.496094 32.699219 -30.9375 21.363281 -30.015625 L 19.832031 -29.863281 L 36.144531 -46.632812 C 41.121094 -51.6875 43.800781 -52.222656 45.714844 -52.761719 L 45.714844 -53.601562 L 36.527344 -53.601562 L 36.527344 -53.066406 C 39.128906 -52.605469 37.980469 -49.851562 33.15625 -44.949219 L 11.5625 -22.820312 L 11.5625 -43.878906 C 11.5625 -50.921875 12.480469 -52.222656 14.625 -52.761719 L 14.625 -53.601562 L 4.210938 -53.601562 L 4.210938 -52.761719 C 6.355469 -52.222656 7.273438 -50.921875 7.273438 -43.878906 L 7.273438 -9.726562 C 7.273438 -2.679688 6.355469 -1.378906 4.210938 -0.84375 Z M 4.210938 0" transform="translate(94.859837, 204.689783)"/></g></g></g><g fill="#ff1616" fill-opacity="1"><g><g><path d="M 4.210938 0 L 14.625 0 L 14.625 -0.84375 C 12.480469 -1.378906 11.5625 -2.679688 11.5625 -9.726562 L 11.5625 -27.875 L 43.417969 -27.875 L 43.417969 -9.726562 C 43.417969 -2.679688 42.5 -1.378906 40.355469 -0.84375 L 40.355469 0 L 50.769531 0 L 50.769531 -0.84375 C 48.625 -1.378906 47.707031 -2.679688 47.707031 -9.726562 L 47.707031 -43.878906 C 47.707031 -50.921875 48.625 -52.222656 50.769531 -52.761719 L 50.769531 -53.601562 L 40.355469 -53.601562 L 40.355469 -52.761719 C 42.5 -52.222656 43.417969 -50.921875 43.417969 -43.878906 L 43.417969 -28.945312 L 11.5625 -28.945312 L 11.5625 -43.878906 C 11.5625 -50.921875 12.480469 -52.222656 14.625 -52.761719 L 14.625 -53.601562 L 4.210938 -53.601562 L 4.210938 -52.761719 C 6.355469 -52.222656 7.273438 -50.921875 7.273438 -43.878906 L 7.273438 -9.726562 C 7.273438 -2.679688 6.355469 -1.378906 4.210938 -0.84375 Z M 4.210938 0" transform="translate(164.771474, 204.689783)"/></g></g></g><g fill="#ff1616" fill-opacity="1"><g><g><path d="M 4.210938 0 L 18.761719 0 C 37.0625 0 43.035156 -9.035156 42.882812 -17.230469 C 42.804688 -24.582031 38.289062 -31.167969 25.957031 -32.007812 C 33.691406 -33.539062 37.140625 -38.289062 37.140625 -43.496094 C 37.140625 -49.695312 32.007812 -53.601562 21.058594 -53.601562 L 4.210938 -53.601562 L 4.210938 -52.761719 C 6.355469 -52.222656 7.273438 -50.921875 7.273438 -43.878906 L 7.273438 -9.726562 C 7.273438 -2.679688 6.355469 -1.378906 4.210938 -0.84375 Z M 11.5625 -7.734375 L 11.5625 -31.011719 L 21.902344 -31.011719 C 33.464844 -31.011719 38.132812 -24.65625 38.132812 -16.234375 C 38.132812 -7.351562 33.539062 -1.070312 19.449219 -1.070312 L 15.542969 -1.070312 C 12.253906 -1.070312 11.5625 -2.21875 11.5625 -7.734375 Z M 11.5625 -32.007812 L 11.5625 -52.605469 L 20.292969 -52.605469 C 28.332031 -52.605469 32.390625 -48.546875 32.390625 -42.5 C 32.390625 -36.679688 28.792969 -32.007812 19.066406 -32.007812 Z M 11.5625 -32.007812" transform="translate(241.038439, 204.689783)"/></g></g></g><g clip-path="url(#7e2756162b)"><path fill="#ff00f1" fill-opacity="1" fill-rule="nonzero" d="M 274.644531 198.367188 C 267.84375 188.207031 254.03125 184.441406 242.4375 185.214844 C 232.699219 185.882812 223.527344 189.855469 215.234375 194.808594 C 209.359375 198.316406 203.84375 202.238281 198.125 206.003906 C 185.347656 199.761719 173.289062 192.074219 159.273438 188.929688 C 151.75 187.226562 140.980469 185.988281 134.847656 192.023438 C 130.828125 195.996094 131.34375 201.875 135.003906 205.898438 C 142.628906 214.359375 157.46875 213.585938 166.847656 209.253906 C 170.402344 207.601562 173.546875 205.332031 176.277344 202.496094 C 176.691406 202.03125 176.070312 201.410156 175.609375 201.824219 C 169.21875 208.066406 160.5625 211.472656 151.59375 211.109375 C 146.390625 210.902344 140.515625 209.460938 136.601562 205.695312 C 132.117188 201.359375 132.222656 194.707031 137.785156 191.402344 C 147.421875 185.625 161.28125 190.683594 170.558594 194.601562 C 179.265625 198.265625 187.203125 203.371094 195.652344 207.550781 C 193.589844 208.839844 191.53125 210.128906 189.46875 211.316406 C 179.679688 216.835938 169.0625 220.394531 157.777344 220.136719 C 142.886719 219.828125 126.554688 212.710938 121.296875 197.644531 C 121.195312 197.386719 120.730469 197.492188 120.832031 197.800781 C 124.335938 209.769531 134.746094 218.023438 146.597656 220.859375 C 157.625 223.441406 169.476562 221.582031 179.882812 217.351562 C 185.914062 214.929688 191.476562 211.679688 196.941406 208.171875 C 200.960938 210.078125 205.082031 211.882812 209.359375 213.433594 C 203.175781 219.363281 197.09375 225.453125 189.878906 230.042969 C 189.160156 230.507812 188.335938 231.023438 187.511719 231.488281 C 185.191406 230.507812 182.820312 229.628906 180.449219 228.804688 C 175.09375 227.050781 167.207031 225.140625 162.160156 228.90625 C 159.015625 231.230469 159.738281 235.304688 162.777344 237.367188 C 168.34375 241.132812 177.152344 238.914062 182.871094 236.800781 C 185.242188 235.925781 187.457031 234.839844 189.570312 233.601562 C 191.066406 234.273438 192.507812 234.996094 193.953125 235.613281 C 201.21875 238.96875 209.359375 242.527344 217.550781 242.0625 C 223.117188 241.753906 228.886719 237.367188 228.734375 231.332031 C 228.578125 226.84375 223.835938 223.441406 219.5625 223.957031 C 216.367188 224.316406 214.046875 226.585938 212.296875 229.0625 C 211.730469 229.835938 213.015625 230.609375 213.582031 229.835938 C 215.902344 226.585938 219.765625 224.007812 223.683594 226.328125 C 226.515625 227.980469 227.136719 230.972656 226.105469 233.910156 C 222.910156 242.941406 210.902344 240.101562 204.050781 237.9375 C 199.515625 236.542969 195.1875 234.6875 190.859375 232.828125 C 198.847656 227.980469 205.492188 221.066406 212.296875 214.359375 C 216.003906 215.546875 219.765625 216.527344 223.578125 217.144531 C 231.875 218.488281 241.355469 219.363281 249.34375 216.0625 C 254.289062 214 259.03125 209.511719 258.824219 203.734375 C 258.671875 199.195312 255.476562 195.632812 251.40625 194.035156 C 244.914062 191.507812 237.648438 193.726562 231.617188 196.5625 C 223.835938 200.175781 217.5 205.695312 211.367188 211.523438 C 210.644531 211.265625 209.976562 211.007812 209.253906 210.800781 C 205.90625 209.5625 202.609375 208.117188 199.414062 206.621094 C 201.785156 205.074219 204.101562 203.476562 206.472656 201.875 C 214.871094 196.253906 223.632812 190.527344 233.578125 188.207031 C 240.121094 186.65625 246.921875 186.605469 253.519531 187.949219 C 257.175781 188.722656 260.730469 190.011719 263.976562 191.867188 C 267.535156 193.878906 270.367188 196.71875 273.5625 199.195312 C 274.128906 199.605469 275.109375 199.089844 274.644531 198.367188 Z M 165.664062 236.644531 C 163.550781 235.976562 161.179688 234.171875 162.105469 231.695312 C 163.242188 228.804688 166.949219 228.132812 169.628906 228.082031 C 175.351562 227.980469 180.964844 229.886719 186.324219 232.210938 C 180.140625 235.664062 172.207031 238.761719 165.664062 236.644531 Z M 223.734375 204.042969 C 230.175781 198.988281 238.625 193.878906 247.128906 194.707031 C 252.746094 195.273438 258.308594 199.554688 257.125 205.746094 C 255.527344 214.207031 245.117188 216.527344 237.90625 216.527344 C 229.917969 216.527344 221.929688 214.929688 214.304688 212.503906 C 217.34375 209.511719 220.4375 206.621094 223.734375 204.042969 Z M 223.734375 204.042969"/></g><g clip-path="url(#4f582a00a9)"><path fill="#6d5634" fill-opacity="1" fill-rule="nonzero" d="M 108.085938 237.976562 C 108.085938 238.375 108.007812 238.757812 107.855469 239.125 C 107.703125 239.492188 107.488281 239.816406 107.207031 240.097656 C 106.925781 240.378906 106.597656 240.597656 106.230469 240.75 C 105.863281 240.902344 105.480469 240.976562 105.085938 240.976562 C 104.6875 240.976562 104.304688 240.902344 103.9375 240.75 C 103.570312 240.597656 103.242188 240.378906 102.960938 240.097656 C 102.679688 239.816406 102.464844 239.492188 102.3125 239.125 C 102.160156 238.757812 102.085938 238.375 102.085938 237.976562 C 102.085938 237.578125 102.160156 237.195312 102.3125 236.828125 C 102.464844 236.460938 102.679688 236.136719 102.960938 235.855469 C 103.242188 235.574219 103.570312 235.359375 103.9375 235.207031 C 104.304688 235.054688 104.6875 234.976562 105.085938 234.976562 C 105.480469 234.976562 105.863281 235.054688 106.230469 235.207031 C 106.597656 235.359375 106.925781 235.574219 107.207031 235.855469 C 107.488281 236.136719 107.703125 236.460938 107.855469 236.828125 C 108.007812 237.195312 108.085938 237.578125 108.085938 237.976562 Z M 108.085938 237.976562"/></g></svg>