<svg xmlns="http://www.w3.org/2000/svg" width="48" height="48" viewBox="0 0 48 48"><radialGradient id="Ho213YuANTyE7fUBP~afaa" cx="24" cy="24" r="21" gradientTransform="matrix(-1 0 0 1 48 0)" gradientUnits="userSpaceOnUse"><stop offset="0" stop-color="#ffe16e"/><stop offset=".583" stop-color="#fcbf22"/><stop offset=".654" stop-color="#fea20f"/><stop offset=".718" stop-color="#ff8c00"/><stop offset=".797" stop-color="#ffa300"/><stop offset=".928" stop-color="#ffc400"/><stop offset="1" stop-color="#ffd000"/></radialGradient><path fill="url(#Ho213YuANTyE7fUBP~afaa)" d="M24,3l-0.906,1.875c-1.029,2.13-3.811,2.683-5.577,1.109l-1.554-1.385l-0.119,2.079	c-0.136,2.362-2.494,3.937-4.728,3.159L9.151,9.151l0.685,1.966c0.779,2.234-0.797,4.592-3.159,4.728l-2.079,0.119l1.385,1.554	c1.574,1.766,1.021,4.547-1.109,5.577L3,24l1.875,0.906c2.13,1.029,2.683,3.811,1.109,5.577l-1.385,1.554l2.079,0.119	c2.362,0.136,3.937,2.494,3.159,4.728l-0.685,1.966l1.966-0.685c2.234-0.779,4.592,0.797,4.728,3.159l0.119,2.079l1.554-1.385	c1.766-1.574,4.547-1.021,5.577,1.109L24,45l0.906-1.875c1.029-2.13,3.811-2.683,5.577-1.109l1.554,1.385l0.119-2.079	c0.136-2.362,2.494-3.937,4.728-3.159l1.966,0.685l-0.685-1.966c-0.779-2.234,0.797-4.592,3.159-4.728l2.079-0.119l-1.385-1.554	c-1.574-1.766-1.021-4.547,1.109-5.577L45,24l-1.875-0.906c-2.13-1.029-2.683-3.811-1.109-5.577l1.385-1.554l-2.079-0.119	c-2.362-0.136-3.937-2.494-3.159-4.728l0.685-1.966l-1.966,0.685c-2.234,0.779-4.592-0.797-4.728-3.159l-0.119-2.079l-1.554,1.385	c-1.766,1.574-4.547,1.021-5.577-1.109L24,3z"/><path fill="#d99d38" d="M23.993,28.869c-0.943,0-1.712-0.23-2.186-0.481c-0.349-0.184-0.702-0.1-0.471,0.478 c0.313,0.783,1.028,1.775,2.657,1.775c1.602,0,2.32-0.961,2.641-1.735c0.247-0.594-0.109-0.654-0.412-0.518 C25.636,28.651,24.914,28.869,23.993,28.869z" opacity=".034"/><path fill="#d99d38" d="M23.996,28.879c-0.915,0-1.66-0.219-2.12-0.457 c-0.338-0.175-0.681-0.095-0.457,0.455c0.304,0.745,0.997,1.689,2.577,1.689c1.554,0,2.25-0.915,2.562-1.651 c0.239-0.566-0.106-0.622-0.4-0.493C25.589,28.671,24.889,28.879,23.996,28.879z" opacity=".069"/><path fill="#d99d38" d="M23.999,28.889c-0.887,0-1.609-0.208-2.055-0.434 c-0.328-0.166-0.66-0.09-0.443,0.432c0.294,0.707,0.966,1.604,2.497,1.604c1.506,0,2.18-0.868,2.482-1.568 c0.232-0.537-0.103-0.591-0.388-0.468C25.543,28.692,24.864,28.889,23.999,28.889z" opacity=".103"/><path fill="#d99d38" d="M24.002,28.899c-0.858,0-1.557-0.197-1.989-0.411 c-0.317-0.157-0.639-0.085-0.429,0.409c0.285,0.67,0.935,1.518,2.417,1.518c1.457,0,2.11-0.822,2.403-1.484 c0.224-0.508-0.099-0.559-0.375-0.443C25.496,28.712,24.839,28.899,24.002,28.899z" opacity=".138"/><path fill="#d99d38" d="M24.004,28.908c-0.83,0-1.506-0.186-1.923-0.388 c-0.307-0.149-0.618-0.081-0.414,0.386c0.275,0.632,0.904,1.433,2.337,1.433c1.409,0,2.041-0.776,2.323-1.4 c0.217-0.48-0.096-0.528-0.363-0.418C25.45,28.733,24.815,28.908,24.004,28.908z" opacity=".172"/><path fill="#d99d38" d="M24.007,28.918c-0.801,0-1.454-0.175-1.857-0.365c-0.296-0.14-0.596-0.076-0.4,0.363 c0.266,0.594,0.873,1.347,2.257,1.347c1.361,0,1.971-0.729,2.244-1.317c0.21-0.451-0.093-0.496-0.35-0.393 C25.403,28.753,24.79,28.918,24.007,28.918z" opacity=".206"/><path fill="#d99d38" d="M24.01,28.928c-0.773,0-1.403-0.164-1.791-0.342 c-0.286-0.131-0.575-0.071-0.386,0.34c0.257,0.557,0.842,1.262,2.177,1.262c1.313,0,1.901-0.683,2.164-1.233 c0.202-0.422-0.09-0.465-0.338-0.368C25.357,28.774,24.765,28.928,24.01,28.928z" opacity=".241"/><path fill="#d99d38" d="M24.013,28.938c-0.745,0-1.351-0.153-1.726-0.318 c-0.275-0.122-0.554-0.066-0.372,0.317c0.247,0.519,0.811,1.176,2.098,1.176c1.264,0,1.831-0.637,2.085-1.15 c0.195-0.394-0.086-0.433-0.326-0.343C25.31,28.794,24.74,28.938,24.013,28.938z" opacity=".275"/><path fill="#d99d38" d="M24.016,28.948c-0.716,0-1.3-0.142-1.66-0.295c-0.265-0.113-0.533-0.061-0.358,0.294 c0.238,0.481,0.78,1.091,2.018,1.091c1.216,0,1.761-0.59,2.005-1.066c0.187-0.365-0.083-0.402-0.313-0.318 C25.264,28.815,24.715,28.948,24.016,28.948z" opacity=".309"/><path fill="#d99d38" d="M24.019,28.958c-0.688,0-1.248-0.13-1.594-0.272 c-0.254-0.104-0.512-0.057-0.343,0.271c0.228,0.443,0.749,1.005,1.938,1.005c1.168,0,1.691-0.544,1.926-0.983 c0.18-0.337-0.08-0.37-0.301-0.293C25.217,28.835,24.69,28.958,24.019,28.958z" opacity=".344"/><path fill="#d99d38" d="M24.022,28.968c-0.659,0-1.197-0.119-1.528-0.249 c-0.244-0.095-0.491-0.052-0.329,0.248c0.219,0.406,0.718,0.92,1.858,0.92c1.12,0,1.622-0.498,1.846-0.899 c0.172-0.308-0.076-0.339-0.288-0.268C25.17,28.856,24.666,28.968,24.022,28.968z" opacity=".378"/><path fill="#d99d38" d="M24.025,28.978c-0.631,0-1.145-0.108-1.462-0.226 c-0.233-0.086-0.47-0.047-0.315,0.225c0.209,0.368,0.688,0.834,1.778,0.834c1.072,0,1.552-0.452,1.767-0.815 c0.165-0.279-0.073-0.307-0.276-0.243C25.124,28.876,24.641,28.978,24.025,28.978z" opacity=".412"/><path fill="#d99d38" d="M24.028,28.988c-0.603,0-1.094-0.097-1.397-0.203 c-0.223-0.078-0.449-0.042-0.301,0.202c0.2,0.33,0.657,0.749,1.698,0.749c1.023,0,1.482-0.405,1.687-0.732 c0.158-0.251-0.07-0.276-0.263-0.218C25.077,28.897,24.616,28.988,24.028,28.988z" opacity=".447"/><path fill="#d99d38" d="M24.03,28.998c-0.574,0-1.042-0.086-1.331-0.18 c-0.212-0.069-0.427-0.037-0.287,0.179c0.191,0.293,0.626,0.663,1.618,0.663c0.975,0,1.412-0.359,1.608-0.648 c0.15-0.222-0.067-0.244-0.251-0.193C25.031,28.917,24.591,28.998,24.03,28.998z" opacity=".481"/><path fill="#d99d38" d="M24.033,29.008c-0.546,0-0.991-0.075-1.265-0.156 c-0.202-0.06-0.406-0.033-0.273,0.155c0.181,0.255,0.595,0.578,1.538,0.578c0.927,0,1.342-0.313,1.528-0.565 c0.143-0.193-0.063-0.213-0.239-0.168C24.984,28.938,24.566,29.008,24.033,29.008z" opacity=".516"/><path fill="#d99d38" d="M24.036,29.018c-0.517,0-0.939-0.064-1.199-0.133 c-0.191-0.051-0.385-0.028-0.258,0.132c0.172,0.217,0.564,0.492,1.458,0.492c0.879,0,1.273-0.266,1.449-0.481 c0.135-0.165-0.06-0.181-0.226-0.144C24.938,28.958,24.541,29.018,24.036,29.018z" opacity=".55"/><radialGradient id="Ho213YuANTyE7fUBP~afab" cx="-2.634" cy="28.984" r="1.223" gradientTransform="matrix(1.275 0 0 1 29.943 0)" gradientUnits="userSpaceOnUse"><stop offset=".37" stop-color="#d99d38" stop-opacity=".4"/><stop offset="1" stop-color="#d99d38" stop-opacity="0"/></radialGradient><ellipse cx="26.584" cy="28.984" fill="url(#Ho213YuANTyE7fUBP~afab)" rx="1.559" ry="1.223"/><radialGradient id="Ho213YuANTyE7fUBP~afac" cx="-215.974" cy="28.984" r="1.223" gradientTransform="matrix(-1.275 0 0 1 -253.943 0)" gradientUnits="userSpaceOnUse"><stop offset=".37" stop-color="#d99d38" stop-opacity=".4"/><stop offset="1" stop-color="#d99d38" stop-opacity="0"/></radialGradient><ellipse cx="21.416" cy="28.984" fill="url(#Ho213YuANTyE7fUBP~afac)" rx="1.559" ry="1.223"/><radialGradient id="Ho213YuANTyE7fUBP~afad" cx="-201.264" cy="120.629" r="1.416" gradientTransform="matrix(3.0995 .009 -.003 1.0136 648.25 -92.77)" gradientUnits="userSpaceOnUse"><stop offset="0" stop-color="#f7e5b9" stop-opacity=".998"/><stop offset="1" stop-color="#f7e5b9" stop-opacity="0"/></radialGradient><path fill="url(#Ho213YuANTyE7fUBP~afad)" d="M28.722,27.694c-0.003,0.869-2.11,1.567-4.708,1.559c-2.597-0.008-4.701-0.718-4.699-1.586	s2.11-1.567,4.708-1.559S28.725,26.826,28.722,27.694z"/><radialGradient id="Ho213YuANTyE7fUBP~afae" cx="-461.027" cy="234.859" r="1.416" gradientTransform="matrix(-.0383 1.5781 -.8749 -.0213 211.853 756.477)" gradientUnits="userSpaceOnUse"><stop offset="0" stop-color="#ffeaa6"/><stop offset="1" stop-color="#ffeaa6" stop-opacity="0"/></radialGradient><path fill="url(#Ho213YuANTyE7fUBP~afae)" d="M23.981,26.326c-0.75-0.018-1.331-1.105-1.299-2.427c0.032-1.322,0.666-2.38,1.416-2.362	c0.75,0.018,1.331,1.105,1.299,2.427C25.364,25.287,24.73,26.344,23.981,26.326z"/><radialGradient id="Ho213YuANTyE7fUBP~afaf" cx="-455.518" cy="245.002" r="1.781" gradientTransform="matrix(-.0127 1.5785 -.9872 -.008 260.12 747.012)" gradientUnits="userSpaceOnUse"><stop offset="0" stop-color="#ffeaa6"/><stop offset="1" stop-color="#ffeaa6" stop-opacity="0"/></radialGradient><path fill="url(#Ho213YuANTyE7fUBP~afaf)" d="M24.029,29.019c-1.064-0.009-1.915-1.364-1.902-3.027c0.013-1.663,0.887-3.005,1.95-2.996	c1.064,0.009,1.915,1.364,1.902,3.027S25.093,29.027,24.029,29.019z"/><radialGradient id="Ho213YuANTyE7fUBP~afag" cx="-306.386" cy="303.044" r="1.47" gradientTransform="matrix(0 1.7574 -.6596 0 223.93 564.598)" gradientUnits="userSpaceOnUse"><stop offset="0" stop-color="#ffeaa6"/><stop offset="1" stop-color="#ffeaa6" stop-opacity="0"/></radialGradient><ellipse cx="24.04" cy="26.166" fill="url(#Ho213YuANTyE7fUBP~afag)" rx=".969" ry="2.583"/><radialGradient id="Ho213YuANTyE7fUBP~afah" cx="26.719" cy="-7.242" r="1.119" gradientTransform="matrix(1 0 0 .6596 0 32.553)" gradientUnits="userSpaceOnUse"><stop offset=".001" stop-color="#ffe780"/><stop offset="1" stop-color="#ffe780" stop-opacity="0"/></radialGradient><ellipse cx="26.719" cy="27.777" fill="url(#Ho213YuANTyE7fUBP~afah)" rx="1.119" ry=".738"/><radialGradient id="Ho213YuANTyE7fUBP~afai" cx="-245.281" cy="-7.242" r="1.119" gradientTransform="matrix(-1 0 0 .6596 -224 32.553)" gradientUnits="userSpaceOnUse"><stop offset=".001" stop-color="#ffe780"/><stop offset="1" stop-color="#ffe780" stop-opacity="0"/></radialGradient><ellipse cx="21.281" cy="27.777" fill="url(#Ho213YuANTyE7fUBP~afai)" rx="1.119" ry=".738"/><radialGradient id="Ho213YuANTyE7fUBP~afaj" cx="23.913" cy="25.984" r="7.563" fx="23.908" fy="26.267" gradientTransform="matrix(1.0485 0 0 1.147 -1.165 -4.935)" gradientUnits="userSpaceOnUse"><stop offset=".948" stop-color="#ffe5ba"/><stop offset="1" stop-color="#ffe5ba" stop-opacity="0"/></radialGradient><path fill="url(#Ho213YuANTyE7fUBP~afaj)" d="M24,31.672c-3.587,0-4.663-0.436-4.663-0.436s1.514,2.348,4.663,2.348	s4.662-2.348,4.662-2.348S27.587,31.672,24,31.672z"/><radialGradient id="Ho213YuANTyE7fUBP~afak" cx="-11.836" cy="28.857" r="5.617" gradientTransform="matrix(1.0964 0 0 1.084 37 -3.192)" gradientUnits="userSpaceOnUse"><stop offset=".816" stop-color="#ba8220"/><stop offset="1" stop-color="#ba8220" stop-opacity="0"/></radialGradient><path fill="url(#Ho213YuANTyE7fUBP~afak)" d="M24,33.583c-2.904,0-4.568-2.105-4.568-2.105s0.967,2.939,4.568,2.939	s4.568-2.939,4.568-2.939S26.904,33.583,24,33.583z"/><radialGradient id="Ho213YuANTyE7fUBP~afal" cx="23.998" cy="293.963" r="3.695" gradientTransform="matrix(1 0 0 .5363 0 -126.139)" gradientUnits="userSpaceOnUse"><stop offset="0" stop-color="#1c1911"/><stop offset=".999" stop-color="#171714"/></radialGradient><path fill="url(#Ho213YuANTyE7fUBP~afal)" d="M28.72,31.227c-0.702,0.507-1.472,0.787-2.272,1.005c-0.799,0.21-1.626,0.297-2.448,0.305 c-0.822-0.007-1.648-0.094-2.448-0.303c-0.801-0.218-1.57-0.497-2.273-1.004c-0.12-0.087-0.147-0.254-0.061-0.374 c0.071-0.099,0.198-0.135,0.307-0.096l0.029,0.011c0.688,0.245,1.449,0.42,2.188,0.533c0.749,0.099,1.501,0.165,2.257,0.16 c0.757,0.006,1.508-0.06,2.258-0.158c0.74-0.113,1.5-0.287,2.19-0.532l0.029-0.01c0.138-0.049,0.289,0.023,0.338,0.161 C28.854,31.037,28.812,31.16,28.72,31.227z"/><path fill="#bf9b61" d="M14.004,22.048c-0.024,0.432,0.057,0.396,0.205,0.612c0,0,1.668,2.597,6.699,0.819	c0.364-0.146,0.626-0.425,0.588-0.759C20.851,16.967,14.833,17.666,14.004,22.048z"/><path fill="#fff" d="M14.08,22.32c-0.125,0.258-0.086,0.464,0,0.672c0.359,0.906,3.239,4.131,7.126,0.745	c0.29-0.239,0.336-0.45,0.264-0.748c-0.072-0.298-1.079-3.572-3.718-3.572C15.14,19.417,14.298,21.969,14.08,22.32z"/><linearGradient id="Ho213YuANTyE7fUBP~afam" x1="15.667" x2="19.833" y1="22.333" y2="22.333" gradientUnits="userSpaceOnUse"><stop offset="0" stop-color="#c69c6d"/><stop offset="1" stop-color="#754c24"/></linearGradient><circle cx="17.75" cy="22.333" r="2.083" fill="url(#Ho213YuANTyE7fUBP~afam)"/><radialGradient id="Ho213YuANTyE7fUBP~afan" cx="17.75" cy="22.333" r="1.055" gradientUnits="userSpaceOnUse"><stop offset="0" stop-color="#1c1911"/><stop offset=".999" stop-color="#171714"/></radialGradient><circle cx="17.75" cy="22.333" r="1.055" fill="url(#Ho213YuANTyE7fUBP~afan)"/><path fill="#bf9b61" d="M33.996,22.048c0.024,0.432-0.057,0.396-0.205,0.612c0,0-1.668,2.597-6.699,0.819	c-0.364-0.146-0.626-0.425-0.588-0.759C27.149,16.967,33.167,17.666,33.996,22.048z"/><path fill="#fff" d="M33.92,22.32c0.125,0.258,0.086,0.464,0,0.672c-0.359,0.906-3.239,4.131-7.126,0.745	c-0.29-0.239-0.336-0.45-0.264-0.748c0.072-0.298,1.079-3.572,3.718-3.572C32.86,19.417,33.702,21.969,33.92,22.32z"/><linearGradient id="Ho213YuANTyE7fUBP~afao" x1="14.167" x2="18.333" y1="22.333" y2="22.333" gradientTransform="translate(14)" gradientUnits="userSpaceOnUse"><stop offset="0" stop-color="#c69c6d"/><stop offset="1" stop-color="#754c24"/></linearGradient><circle cx="30.25" cy="22.333" r="2.083" fill="url(#Ho213YuANTyE7fUBP~afao)"/><radialGradient id="Ho213YuANTyE7fUBP~afap" cx="-1207.25" cy="22.333" r="1.055" gradientTransform="matrix(-1 0 0 1 -1177 0)" gradientUnits="userSpaceOnUse"><stop offset="0" stop-color="#1c1911"/><stop offset=".999" stop-color="#171714"/></radialGradient><circle cx="30.25" cy="22.333" r="1.055" fill="url(#Ho213YuANTyE7fUBP~afap)"/><circle cx="16.917" cy="21.5" r=".417" fill="#fff"/><circle cx="29.417" cy="21.5" r=".417" fill="#fff"/><radialGradient id="Ho213YuANTyE7fUBP~afaq" cx="32" cy="28" r="3" gradientUnits="userSpaceOnUse"><stop offset="0" stop-color="#ffe88a"/><stop offset="1" stop-color="#ffe88a" stop-opacity="0"/></radialGradient><circle cx="32" cy="28" r="3" fill="url(#Ho213YuANTyE7fUBP~afaq)"/><radialGradient id="Ho213YuANTyE7fUBP~afar" cx="32" cy="28" r="3" gradientTransform="matrix(-1 0 0 1 48 0)" gradientUnits="userSpaceOnUse"><stop offset="0" stop-color="#ffe88a"/><stop offset="1" stop-color="#ffe88a" stop-opacity="0"/></radialGradient><circle cx="16" cy="28" r="3" fill="url(#Ho213YuANTyE7fUBP~afar)"/></svg>