<svg xmlns="http://www.w3.org/2000/svg" width="68" height="68" viewBox="0 0 68 68"><path d="M 25.5 2 C 19.6 2 13.599609 4.1007813 13.599609 8.8007812 L 13.599609 14.800781 C 12.499609 15.400781 11.800781 16.500781 11.800781 17.800781 C 11.800781 19.500781 12.999609 20.899219 14.599609 21.199219 C 14.599609 25.499219 17.200781 29.100391 20.800781 30.900391 L 20.800781 31.800781 C 20.700781 31.800781 17.3 31.900391 17.5 31.900391 C 12.5 31.900391 8.1996094 35.399609 7.0996094 40.099609 C 4.0996094 40.299609 1.8003906 43.100781 2.4003906 46.300781 L 6.0996094 64 L 4 64 C 3.4 64 3 64.5 3 65 C 3 65.5 3.4 66 4 66 L 47.699219 66 C 48.299219 66 48.699219 65.5 48.699219 65 C 48.699219 64.5 48.299219 64 47.699219 64 L 45.5 64 L 49.099609 46.400391 C 49.799609 43.100391 47.399609 40.199219 44.099609 40.199219 L 43.599609 40.199219 C 42.499609 35.399219 38.199609 31.800781 33.099609 31.800781 L 29.800781 31.800781 L 29.800781 31 C 33.600781 29.3 36.200781 25.599219 36.300781 21.199219 C 37.900781 20.899219 39.199219 19.500781 39.199219 17.800781 C 39.199219 16.500781 38.500391 15.400781 37.400391 14.800781 L 37.400391 8.8007812 C 37.400391 4.1007812 31.4 2 25.5 2 z M 53.5 6.0996094 C 46.8 6.0996094 41.400391 11.499219 41.400391 18.199219 C 41.400391 20.299219 42.000391 22.3 42.900391 24 L 41.400391 28 C 41.200391 28.5 41.299219 29.099609 41.699219 29.599609 C 42.099219 29.999609 42.700781 30.199609 43.300781 30.099609 L 47.900391 28.900391 C 49.600391 29.800391 51.599219 30.400391 53.699219 30.400391 C 60.399219 30.400391 65.800781 25.000781 65.800781 18.300781 C 65.600781 11.500781 60.2 6.0996094 53.5 6.0996094 z M 20.300781 11.599609 C 21.100781 12.599609 22.5 13.899609 24.5 14.599609 C 26.3 15.299609 30.000391 15.799609 32.900391 16.099609 C 33.400391 16.199609 33.900391 16.199219 34.400391 16.199219 L 34.400391 21 C 34.400391 25.9 30.399609 29.800781 25.599609 29.800781 C 20.799609 29.800781 16.800781 25.9 16.800781 21 C 16.700781 21 16.699219 14.700781 16.699219 14.800781 L 16.699219 14.5 L 20.300781 11.599609 z M 49.4375 11.75 C 49.7 11.775 49.949609 11.899609 50.099609 12.099609 C 50.499609 12.499609 50.4 13.2 50 13.5 L 48.300781 14.800781 L 50 16.099609 C 50.4 16.499609 50.499609 17.1 50.099609 17.5 C 49.799609 18 49.199219 18.100781 48.699219 17.800781 L 46.099609 15.699219 C 45.899609 15.499219 45.699219 15.200391 45.699219 14.900391 C 45.699219 14.600391 45.799609 14.299609 46.099609 14.099609 L 48.699219 12 C 48.899219 11.8 49.175 11.725 49.4375 11.75 z M 55.814453 12.324219 C 55.944141 12.325781 56.074219 12.350391 56.199219 12.400391 C 56.699219 12.600391 56.899219 13.199219 56.699219 13.699219 L 52.099609 23.599609 C 51.899609 24.099609 51.300781 24.299609 50.800781 24.099609 C 50.300781 23.899609 50.100781 23.300781 50.300781 22.800781 L 54.900391 12.900391 C 55.050391 12.525391 55.425391 12.319531 55.814453 12.324219 z M 21 17.099609 C 20.2 17.099609 19.5 17.799609 19.5 18.599609 C 19.5 19.399609 20.1 20.099609 21 20.099609 C 21.8 20.099609 22.5 19.399609 22.5 18.599609 C 22.5 17.799609 21.8 17.099609 21 17.099609 z M 30 17.099609 C 29.1 17.099609 28.5 17.799609 28.5 18.599609 C 28.5 19.399609 29.1 20.099609 30 20.099609 C 30.8 20.099609 31.5 19.399609 31.5 18.599609 C 31.5 17.799609 30.8 17.099609 30 17.099609 z M 57.5 18.550781 C 57.75 18.525781 57.999219 18.600781 58.199219 18.800781 L 60.800781 20.900391 C 61.000781 21.100391 61.199219 21.399219 61.199219 21.699219 C 61.099219 21.899219 61.000781 22.200781 60.800781 22.300781 C 59.400781 23.100781 57.900781 25.600781 56.800781 24.300781 C 56.400781 23.900781 56.500391 23.200391 56.900391 22.900391 L 58.5 21.599609 L 56.900391 20.300781 C 56.500391 20.000781 56.400781 19.300391 56.800781 18.900391 C 57.000781 18.700391 57.25 18.575781 57.5 18.550781 z M 25.5 19.900391 C 25 19.900391 24.5 20.400391 24.5 20.900391 L 24.5 22.199219 C 24.5 22.799219 24.9 23.199219 25.5 23.199219 C 26.1 23.199219 26.5 22.699219 26.5 22.199219 L 26.5 20.900391 C 26.5 20.300391 26 19.900391 25.5 19.900391 z M 23.400391 24.699219 C 23.150391 24.699219 22.899219 24.8 22.699219 25 C 22.299219 25.4 22.299219 26.000391 22.699219 26.400391 C 23.399219 27.100391 24.400391 27.5 25.400391 27.5 C 26.500391 27.5 27.399609 27.100391 28.099609 26.400391 C 28.499609 26.000391 28.499609 25.4 28.099609 25 C 27.699609 24.6 27.099219 24.6 26.699219 25 C 25.999219 25.7 24.799609 25.7 24.099609 25 C 23.899609 24.8 23.650391 24.699219 23.400391 24.699219 z M 23.5 31.800781 C 24.2 31.900781 24.8 32 25.5 32 C 26 32 26.599609 32.000391 27.099609 31.900391 L 27.099609 34.199219 L 28.099609 34.199219 L 25.400391 37.199219 L 22.599609 34.199219 L 23.5 34.199219 L 23.5 31.800781 z M 17.5 34 L 19 34 L 24.300781 39.699219 L 24.300781 40.199219 L 9.3007812 40.199219 C 10.300781 36.599219 13.6 34 17.5 34 z M 7.5 42.199219 L 44.099609 42.199219 C 46.099609 42.199219 47.599219 44.000391 47.199219 45.900391 L 43.5 63.900391 L 8.1992188 63.900391 L 4.5 45.900391 C 4.1 44.000391 5.6 42.199219 7.5 42.199219 z M 25.800781 50.699219 C 24.000781 50.699219 22.599609 52.100391 22.599609 53.900391 C 22.599609 55.700391 24.000781 57.099609 25.800781 57.099609 C 27.600781 57.099609 29 55.700391 29 53.900391 C 29 52.200391 27.600781 50.699219 25.800781 50.699219 z"/></svg>