<svg xmlns="http://www.w3.org/2000/svg" viewBox="0 0 1500 1500" width="1500" height="1500"><g transform="translate(190.0 160.0) rotate(0.0 507.5 571.0) scale(1.0009131483501204 0.9995387417540241)"><svg width="1014.074" height="1142.527" viewBox="0 0 1014.074 1142.527"><g><path style="fill:#fece2f" d="M525.644 0C282.204 0 0 165.911 0 398.497c0 207.777 118.776 275.232 164.361 389.194 71.326 178.316 143.918 354.836 427.673 354.836 313.501 0 212.714-243.195 279.388-429.264 45.494-126.959 142.653-224.833 142.653-389.194C1014.074 160.829 916.388 0 525.644 0z"/></g></svg></g><g transform="translate(951.0 239.0) rotate(0.0 199.0 334.5) scale(1.0023421562948598 1.0014475332805415)"><svg width="397.07" height="668.033" viewBox="0 0 397.07 668.033"><path d="M355.07 666.033H42c-22.091 0-40-17.909-40-40V42C2 19.909 19.909 2 42 2h313.07c22.091 0 40 17.909 40 40v584.033c0 22.091-17.909 40-40 40z" fill="#1a1a1a"/><path d="M355.07 668.032H42c-23.159 0-42-18.841-42-42V42C0 18.841 18.841 0 42 0h313.07c23.159 0 42 18.841 42 42v584.032c0 23.159-18.841 42-42 42zM42 4C21.047 4 4 21.047 4 42v584.032c0 20.953 17.047 38 38 38h313.07c20.953 0 38-17.047 38-38V42c0-20.953-17.047-38-38-38z" fill="#1a1a1a"/><path d="M395.07 71.388H2V42C2 19.909 19.909 2 42 2h313.07c22.091 0 40 17.909 40 40z" fill="#fff"/><path d="M395.07 71.388H8.59V43.412c0-19.018 15.417-34.435 34.435-34.435h317.611c19.018 0 34.435 15.417 34.435 34.435v27.976z" fill="#fece2f"/><g fill="#1a1a1a"><path d="M395.07 73.388H2a2 2 0 0 1-2-2V42C0 18.841 18.841 0 42 0h313.07c23.159 0 42 18.841 42 42v29.388a2 2 0 0 1-2 2zM4 69.388h389.07V42c0-20.953-17.047-38-38-38H42C21.047 4 4 21.047 4 42z"/><path d="M330.866 54.744a2 2 0 0 1-1.414-3.414l32.101-32.101a2 2 0 1 1 2.828 2.828L332.28 54.158a1.99 1.99 0 0 1-1.414.586z"/><path d="M362.967 54.744a1.992 1.992 0 0 1-1.414-.586l-32.101-32.101a2 2 0 1 1 2.828-2.828l32.101 32.101a2 2 0 0 1-1.414 3.414z"/></g></svg></g><g transform="translate(1012.0 356.0) rotate(0.0 138.5 252.5) scale(1.0008707937230585 1.000546833516932)"><svg width="276.759" height="504.724" viewBox="0 0 276.759 504.724"><path d="M152.334 59.316H4.109a2 2 0 0 1 0-4h148.226a2 2 0 0 1-.001 4z" fill="#fece2f"/><path d="M274.759 94.778H43.476a2 2 0 0 1 0-4h231.283a2 2 0 0 1 0 4zm-76.682 35.463H43.476a2 2 0 0 1 0-4h154.601a2 2 0 0 1 0 4z" fill="#fff"/><path d="M101.165 165.705H2a2 2 0 0 1 0-4h99.166a2 2 0 0 1-.001 4z" fill="#fece2f"/><path d="M246.144 201.168H43.476a2 2 0 0 1 0-4h202.668a2 2 0 0 1 0 4zm-37.806 35.463H91.982a2 2 0 0 1 0-4h116.356a2 2 0 0 1 0 4zm66.421 35.463H91.982a2 2 0 0 1 0-4h182.776a2 2 0 0 1 .001 4zm-94.514 35.463H91.982a2 2 0 0 1 0-4h88.262a2 2 0 0 1 .001 4z" fill="#fff"/><path d="M205.829 343.02H2a2 2 0 0 1 0-4h203.829a2 2 0 0 1 0 4z" fill="#fece2f"/><g fill="#fff"><path d="M139.93 378.483H43.476a2 2 0 0 1 0-4h96.454a2 2 0 0 1 0 4zm74.427 35.463H91.982a2 2 0 0 1 0-4h122.375a2 2 0 0 1 0 4zm60.402 35.463H91.982a2 2 0 0 1 0-4h182.776a2 2 0 0 1 .001 4zM85.304 18.404H29.002a2 2 0 0 1 0-4h56.301a2 2 0 0 1 .001 4zM16.887 32.807a1.99 1.99 0 0 1-1.414-.586L1.07 17.818a2 2 0 0 1 0-2.828L15.473.586a2 2 0 1 1 2.828 2.828L5.312 16.404l12.989 12.989a2 2 0 0 1-1.414 3.414zm81.016 0a2 2 0 0 1-1.414-3.414l12.989-12.989-12.989-12.99A2 2 0 1 1 99.317.586l14.404 14.404a2 2 0 0 1 0 2.828L99.317 32.221a1.99 1.99 0 0 1-1.414.586zm8.959 457.513H50.561a2 2 0 0 1 0-4h56.301a2 2 0 0 1 0 4zm-89.975 14.404a1.992 1.992 0 0 1-1.414-.586L1.07 489.735a2 2 0 0 1 0-2.828l14.403-14.403a2 2 0 1 1 2.828 2.828L5.312 488.32l12.989 12.99a2 2 0 0 1-1.414 3.414zm102.574 0a2 2 0 0 1-1.414-3.414l12.989-12.99-12.989-12.989a2 2 0 1 1 2.828-2.828l14.404 14.403a2 2 0 0 1 0 2.828l-14.404 14.404a1.99 1.99 0 0 1-1.414.586zm-90.898.001a1.999 1.999 0 0 1-1.763-2.94l15.341-28.807a1.997 1.997 0 0 1 2.705-.825 1.999 1.999 0 0 1 .825 2.705L30.33 503.664a1.999 1.999 0 0 1-1.767 1.061z"/></g></svg></g><g transform="translate(250.0 303.0) rotate(0.0 400.0 324.0) scale(1.0003013407789096 1.0014589154570857)"><svg width="799.759" height="647.056" viewBox="0 0 799.759 647.056"><path d="M258.547 610.877h-19.77a2 2 0 0 1 0-4h19.77a2 2 0 0 1 0 4zm114.182 0h-98.676a2 2 0 0 1 0-4h98.676c9.822 0 17.813-7.991 17.813-17.813V421.655a17.69 17.69 0 0 0-5.236-12.614 17.692 17.692 0 0 0-12.576-5.198h-.054l-117.586.347c-1.136.042-2.002-.89-2.006-1.994s.89-2.003 1.994-2.006l117.587-.347c5.871.019 11.331 2.243 15.466 6.366a21.665 21.665 0 0 1 6.412 15.447v167.409c-.001 12.027-9.786 21.812-21.814 21.812z" fill="#fff"/><path d="M277.565 417.641a1.99 1.99 0 0 1-.99-.264l-22.483-12.842a1.999 1.999 0 0 1 0-3.474l19.641-11.218a2 2 0 0 1 1.984 3.474l-16.6 9.481 19.442 11.105a2 2 0 0 1-.994 3.738zm241.091-245.856H359.377c-12.028 0-21.813-9.785-21.813-21.813V61.934c0-12.028 9.785-21.813 21.813-21.813h159.278a2 2 0 0 1 0 4H359.377c-9.822 0-17.813 7.991-17.813 17.813v88.038c0 9.822 7.991 17.813 17.813 17.813h159.278a2 2 0 0 1 .001 4z" fill="#fff"/><path d="M128.687 230.254a2 2 0 0 1-2-2V125.766c0-12.028 9.785-21.813 21.812-21.813h191.065a2 2 0 0 1 0 4H148.499c-9.822 0-17.812 7.991-17.812 17.813v102.489a2 2 0 0 1-2 1.999zm0 43.933a2 2 0 0 1-2-2v-26.489a2 2 0 0 1 4 0v26.489a2 2 0 0 1-2 2zm0 304.645a2 2 0 0 1-2-2v-73.17a2 2 0 0 1 4 0v73.17a2 2 0 0 1-2 2z" fill="#fff"/><g fill="#1a1a1a"><path d="m250.965 397.683-115.264-89.675a11.424 11.424 0 0 0-14.028 0L6.408 397.683c-5.878 4.573-5.878 13.458 0 18.031l115.264 89.675a11.424 11.424 0 0 0 14.028 0l115.264-89.675c5.879-4.573 5.879-13.458.001-18.031z"/><path d="M128.687 509.798c-2.908 0-5.816-.944-8.242-2.832L5.181 417.292A13.333 13.333 0 0 1 0 406.698c0-4.171 1.888-8.032 5.18-10.594l115.264-89.675a13.41 13.41 0 0 1 16.484 0l115.264 89.675c3.292 2.561 5.18 6.423 5.18 10.594s-1.888 8.033-5.18 10.594l-115.264 89.675a13.393 13.393 0 0 1-8.241 2.831zm0-202.199a9.4 9.4 0 0 0-5.786 1.988L7.637 399.262A9.36 9.36 0 0 0 4 406.698a9.362 9.362 0 0 0 3.636 7.437L122.9 503.81a9.414 9.414 0 0 0 11.572 0l115.264-89.675c2.311-1.798 3.636-4.509 3.636-7.437s-1.325-5.639-3.636-7.437l-115.264-89.675a9.41 9.41 0 0 0-5.785-1.987zm89.944 273.366H38.742a8 8 0 0 0-8 8v48.09a8 8 0 0 0 8 8h179.889a8 8 0 0 0 8-8v-48.09a8 8 0 0 0-8-8z"/><path d="M218.631 647.056H38.742c-5.514 0-10-4.486-10-10v-48.09c0-5.514 4.486-10 10-10h179.889c5.514 0 10 4.486 10 10v48.09c0 5.514-4.486 10-10 10zM38.742 582.965c-3.309 0-6 2.692-6 6v48.09c0 3.308 2.691 6 6 6h179.889c3.309 0 6-2.692 6-6v-48.09c0-3.308-2.691-6-6-6zM757.638 86.376H558.777c-22.158 0-40.121-17.963-40.121-40.121s17.963-40.121 40.121-40.121h198.861c22.158 0 40.121 17.963 40.121 40.121s-17.963 40.121-40.121 40.121z"/><path d="M757.638 88.376H558.777c-23.226 0-42.121-18.896-42.121-42.121s18.896-42.121 42.121-42.121h198.861c23.226 0 42.121 18.896 42.121 42.121s-18.896 42.121-42.121 42.121zM558.777 8.134c-21.02 0-38.121 17.101-38.121 38.121s17.101 38.121 38.121 38.121h198.861c21.02 0 38.121-17.101 38.121-38.121S778.658 8.134 757.638 8.134zM709.57 214.04H558.777c-22.158 0-40.121-17.963-40.121-40.121s17.963-40.121 40.121-40.121H709.57c22.158 0 40.121 17.963 40.121 40.121s-17.963 40.121-40.121 40.121z"/><path d="M709.57 216.04H558.777c-23.226 0-42.121-18.896-42.121-42.121s18.896-42.121 42.121-42.121H709.57c23.226 0 42.121 18.896 42.121 42.121s-18.896 42.121-42.121 42.121zm-150.793-80.242c-21.02 0-38.121 17.101-38.121 38.121s17.101 38.121 38.121 38.121H709.57c21.02 0 38.121-17.101 38.121-38.121s-17.101-38.121-38.121-38.121z"/></g><path d="m250.964 411.578-115.261 89.673a11.422 11.422 0 0 1-14.027 0l-82.531-64.204-32.741-25.469c-5.874-4.567-5.874-13.453 0-18.03l115.271-89.673a11.375 11.375 0 0 1 11.333-1.545c.951.376 1.853.892 2.695 1.545l115.261 89.673c5.874 4.577 5.874 13.463 0 18.03z" fill="#fff"/><path d="M133.008 302.329a59.976 59.976 0 0 1-5.498 5.023c-7.816 6.29-17.376 11.373-21.636 20.466-1.555 3.329-2.298 7.053-4.29 10.154-4.101 6.39-12.284 8.569-18.367 13.116-5.567 4.16-9.371 10.422-11.165 17.128-1.01 3.764-1.426 7.677-2.526 11.412-4.428 15.068-18.713 24.617-29.135 36.366-2.487 2.804-4.894 6.033-5.131 9.778-.218 3.279 1.248 6.409 2.784 9.312.347.664.713 1.318 1.099 1.961L6.404 411.578c-5.874-4.567-5.874-13.453 0-18.03l115.271-89.673a11.378 11.378 0 0 1 11.333-1.546z" fill="#fece2f"/><path d="M128.687 505.665c-2.908 0-5.816-.944-8.242-2.832L5.181 413.158A13.333 13.333 0 0 1 0 402.564c0-4.171 1.888-8.032 5.18-10.594l115.264-89.675a13.412 13.412 0 0 1 16.484 0l115.264 89.675c3.292 2.561 5.18 6.423 5.18 10.594s-1.888 8.033-5.18 10.594l-115.264 89.675a13.395 13.395 0 0 1-8.241 2.832zm0-202.2a9.4 9.4 0 0 0-5.786 1.988L7.637 395.128C5.326 396.926 4 399.636 4 402.564s1.325 5.639 3.636 7.437L122.9 499.676a9.414 9.414 0 0 0 11.572 0l115.264-89.675c2.311-1.798 3.636-4.509 3.636-7.437s-1.325-5.639-3.636-7.437l-115.264-89.675a9.41 9.41 0 0 0-5.785-1.987z" fill="#1a1a1a"/><path d="M218.631 576.832H38.742a8 8 0 0 0-8 8v48.09a8 8 0 0 0 8 8h179.889a8 8 0 0 0 8-8v-48.09a8 8 0 0 0-8-8z" fill="#fff"/><path d="M218.631 642.922H38.742c-5.514 0-10-4.486-10-10v-48.09c0-5.514 4.486-10 10-10h179.889c5.514 0 10 4.486 10 10v48.09c0 5.514-4.486 10-10 10zm-179.889-64.09c-3.309 0-6 2.692-6 6v48.09c0 3.308 2.691 6 6 6h179.889c3.309 0 6-2.692 6-6v-48.09c0-3.308-2.691-6-6-6z" fill="#1a1a1a"/><path d="M757.638 82.242H558.777c-22.158 0-40.121-17.963-40.121-40.121S536.618 2 558.777 2h198.861c22.158 0 40.121 17.963 40.121 40.121s-17.963 40.121-40.121 40.121z" fill="#fff"/><path d="M757.638 84.242H558.777c-23.226 0-42.121-18.895-42.121-42.121S535.551 0 558.777 0h198.861c23.226 0 42.121 18.895 42.121 42.121s-18.896 42.121-42.121 42.121zM558.777 4c-21.02 0-38.121 17.101-38.121 38.121s17.101 38.121 38.121 38.121h198.861c21.02 0 38.121-17.101 38.121-38.121S778.658 4 757.638 4z" fill="#1a1a1a"/><path d="M709.57 209.906H558.777c-22.158 0-40.121-17.963-40.121-40.121s17.963-40.121 40.121-40.121H709.57c22.158 0 40.121 17.963 40.121 40.121s-17.963 40.121-40.121 40.121z" fill="#fff"/><path d="M709.57 211.906H558.777c-23.226 0-42.121-18.896-42.121-42.121s18.896-42.121 42.121-42.121H709.57c23.226 0 42.121 18.896 42.121 42.121s-18.896 42.121-42.121 42.121zm-150.793-80.242c-21.02 0-38.121 17.101-38.121 38.121s17.101 38.121 38.121 38.121H709.57c21.02 0 38.121-17.101 38.121-38.121s-17.101-38.121-38.121-38.121z" fill="#1a1a1a"/><circle cx="128.687" cy="300.485" fill="#fff" r="17.056"/><path d="M128.687 291.429c4.994 0 9.056 4.062 9.056 9.056s-4.063 9.057-9.056 9.057-9.056-4.063-9.056-9.057 4.062-9.056 9.056-9.056m0-8c-9.42 0-17.056 7.636-17.056 17.056s7.636 17.057 17.056 17.057 17.056-7.637 17.056-17.057-7.636-17.056-17.056-17.056z" fill="#1a1a1a"/><ellipse cx="128.687" cy="403.611" fill="#1a1a1a" rx="43.158" ry="28.696"/><circle cx="520.707" cy="42.121" fill="#fff" r="17.056"/><path d="M520.707 33.065c4.994 0 9.056 4.063 9.056 9.057s-4.063 9.056-9.056 9.056-9.056-4.062-9.056-9.056 4.063-9.057 9.056-9.057m0-8c-9.42 0-17.056 7.637-17.056 17.057s7.636 17.056 17.056 17.056 17.056-7.636 17.056-17.056-7.636-17.057-17.056-17.057z" fill="#1a1a1a"/><circle cx="520.707" cy="169.785" fill="#fff" r="17.056"/><path d="M520.707 160.729c4.994 0 9.056 4.062 9.056 9.056s-4.063 9.056-9.056 9.056-9.056-4.062-9.056-9.056 4.063-9.056 9.056-9.056m0-8c-9.42 0-17.056 7.636-17.056 17.056s7.636 17.056 17.056 17.056 17.056-7.636 17.056-17.056-7.636-17.056-17.056-17.056z" fill="#1a1a1a"/><circle cx="128.687" cy="578.094" fill="#fff" r="17.056"/><path d="M128.687 569.038c4.994 0 9.056 4.062 9.056 9.056s-4.063 9.057-9.056 9.057-9.056-4.063-9.056-9.057 4.062-9.056 9.056-9.056m0-8c-9.42 0-17.056 7.636-17.056 17.056s7.636 17.057 17.056 17.057 17.056-7.637 17.056-17.057-7.636-17.056-17.056-17.056zM713.995 25.065H602.419c-9.491 0-17.186 7.694-17.186 17.186 0 9.491 7.694 17.186 17.186 17.186h111.577c9.491 0 17.186-7.694 17.186-17.186-.001-9.492-7.695-17.186-17.187-17.186zm-52.138 127.534h-55.368c-9.491 0-17.186 7.694-17.186 17.186 0 9.491 7.694 17.186 17.186 17.186h55.368c9.491 0 17.185-7.694 17.185-17.186.001-9.491-7.693-17.186-17.185-17.186zm-496.904 452.66H92.421a9.477 9.477 0 0 0 0 18.952h72.532a9.477 9.477 0 0 0 0-18.952z" fill="#1a1a1a"/></svg></g><g transform="translate(146.0 1327.0) rotate(0.0 608.0 1.5) scale(0.9957427086003181 0.75)"><svg width="1221.199" height="4" viewBox="0 0 1221.199 4"><g><path style="fill:#1a1a1a" d="M1219.199 4H2a2 2 0 0 1 0-4h1217.199a2 2 0 0 1 0 4z"/></g></svg></g><g transform="translate(443.0 554.0) rotate(0.0 438.0 388.5) scale(1.0027506962592592 1.0030219748302156)"><svg width="873.597" height="774.659" viewBox="0 0 873.597 774.659"><path d="M253.95 519.065a212.784 212.784 0 0 1-9.659-3.715C64.579 441.507 131.358 191.865 66.332 183.226c-14.344-1.902-24.548 5.171-31.007 17.059-7.727 14.216-16.544 10.084-16.544-2.061 0-23.002 35.148-35.663 36.188-49.106 1.03-13.443-43.598-41.27-50.137-51.682-6.548-10.421-1.04-17.574 9.302-11.888 10.332 5.687 17.574 10.848 32.047 18.089 6.201-4.141 14.503-2.278 24.806 2.585 0 0 2.546-6.162 21.705 3.616 61.093 31.146 89.881 140.453 133.232 195.394 12.016 15.246 25.172 26.302 40.438 30.343 3.497 9.352 5.716 18.555 6.806 28.659 3.448 31.773-4.308 72.479-19.218 154.831z" fill="#fece2f"/><path d="M253.95 521.064c-.227 0-.455-.039-.673-.117a215.888 215.888 0 0 1-9.75-3.75c-49.788-20.457-85.229-55.732-108.343-107.84-19.721-44.457-27.086-94.221-33.004-134.207-7.182-48.524-12.854-86.852-36.111-89.942-12.544-1.662-22.302 3.729-28.987 16.032-5.711 10.506-11.318 10.373-13.462 9.828-4.218-1.072-6.839-5.994-6.839-12.844 0-14.156 11.904-24.202 22.407-33.065 6.896-5.819 13.409-11.316 13.787-16.195.565-7.375-17.381-21.992-30.485-32.666C13.512 108.986 5.758 102.67 3.139 98.5c-3.717-5.916-4.161-11.57-1.156-14.755 2.785-2.951 7.687-2.934 13.116.052 3.864 2.126 7.238 4.144 10.81 6.279 5.744 3.434 11.675 6.98 20.18 11.277 7.369-4.111 16.708-1.069 24.42 2.444a6.353 6.353 0 0 1 1.693-.918c4.332-1.599 11.533.144 21.399 5.18 39.112 19.939 64.817 70.723 89.677 119.834 14.569 28.783 28.331 55.97 44.216 76.103 12.883 16.346 25.764 26.044 39.379 29.648a2.001 2.001 0 0 1 1.362 1.233c3.622 9.686 5.821 18.947 6.92 29.145 3.342 30.798-3.624 69.233-17.501 145.806l-1.738 9.592a1.997 1.997 0 0 1-1.966 1.644zM61.781 180.918c1.567 0 3.172.108 4.815.326 26.246 3.486 32.113 43.13 39.542 93.321 12.095 81.716 28.659 193.631 138.914 238.934 2.393.989 4.856 1.952 7.353 2.875l1.315-7.259c13.809-76.194 20.74-114.439 17.46-144.663-1.027-9.522-3.046-18.199-6.338-27.219-14.106-4.033-27.362-14.106-40.488-30.761-16.133-20.446-29.982-47.806-44.644-76.773-24.569-48.539-49.975-98.73-87.925-118.078-15.474-7.896-18.812-4.713-19.015-4.489a2 2 0 0 1-2.636.9c-10.911-5.151-17.956-5.994-22.841-2.731a2 2 0 0 1-2.006.125c-9.172-4.589-15.404-8.315-21.431-11.918-3.541-2.117-6.885-4.116-10.686-6.208-3.673-2.019-6.845-2.331-8.279-.811-1.367 1.449-1.392 5.067 1.634 9.883 2.269 3.613 10.148 10.03 18.49 16.825 16.063 13.083 32.673 26.612 31.948 36.074-.507 6.549-7.313 12.293-15.195 18.945-9.837 8.302-20.987 17.711-20.987 30.008 0 5.523 1.921 8.483 3.824 8.967 1.987.503 5.391-1.292 8.962-7.861 6.586-12.119 16.275-18.412 28.214-18.412zm11.053-73.924-.001.004.001-.004zm.003-.007a.014.014 0 0 0-.002.006l.002-.006z" fill="#1a1a1a"/><path d="M69.435 118.557c-.319 0-.643-.077-.944-.238-.14-.075-14.093-7.573-23.32-12.956a2 2 0 0 1 2.015-3.455c9.166 5.347 23.058 12.812 23.197 12.887a2 2 0 0 1-.948 3.762zm26.619 6.461c-.439 0-.881-.144-1.251-.44-11.52-9.251-18.028-12.988-24.759-16.594a2.001 2.001 0 0 1 1.889-3.527c6.91 3.702 13.588 7.536 25.375 17.001a2 2 0 0 1-1.254 3.56z" fill="#1a1a1a"/><path d="M760.991 772.659H437.694c3.893-27.827 2.338-53.237-2.457-76.597-4.725-23.141-12.641-44.272-21.566-63.768-16.157-35.287-35.653-65.224-45.748-92.041-31.79 24.033-72.882 31.78-111.645 25.579-4.626-11.897-9.005-29.561-11.987-50.483-4.507-31.562-5.855-70.534-.109-108.287 3.834-25.232 10.838-49.928 22.18-71.485 6.994.753 13.75.902 20.298.525 34.177-1.952 62.718-18.208 90.386-38.229v-.01c47.462-34.346 92.348-79.777 158.711-83.046 2.516-.129 5.062-.188 7.638-.188 1.01 0 2.021.01 3.051.02 150.57 2.299 273.073 174.681 214.545 558.01z" fill="#fff"/><path d="M760.991 774.66H437.695a2.002 2.002 0 0 1-1.981-2.278c3.586-25.629 2.79-50.462-2.435-75.917-4.103-20.09-11.111-40.807-21.426-63.338-7.171-15.661-14.912-30.095-22.397-44.054-8.635-16.103-16.817-31.36-22.454-45.649-30.342 21.965-70.643 30.844-111.04 24.384a2 2 0 0 1-1.548-1.25c-4.932-12.683-9.229-30.769-12.103-50.926-5.206-36.451-5.243-75.115-.106-108.87 4.191-27.585 11.724-51.849 22.388-72.115a2.01 2.01 0 0 1 1.984-1.058c6.689.721 13.408.895 19.969.517 35.347-2.019 64.917-20.201 89.191-37.753.044-.039.09-.075.138-.109 8.612-6.232 17.326-12.975 25.752-19.495 38.898-30.099 79.12-61.223 134.033-63.928 3.356-.172 6.936-.207 10.616-.173l.19.002c56.893.868 107.53 25.651 146.45 71.67 37.463 44.297 62.934 106.174 75.705 183.914 14.057 85.567 12.154 188.092-5.654 304.727a1.999 1.999 0 0 1-1.976 1.699zm-321.008-4h319.29c17.504-115.515 19.322-217.041 5.402-301.777-12.652-77.016-37.822-138.243-74.812-181.979-38.151-45.11-87.754-69.404-143.445-70.254l-.179-.001c-3.597-.035-7.096 0-10.377.168-53.661 2.643-93.377 33.375-131.786 63.096-8.407 6.505-17.098 13.23-25.717 19.472-.044.039-.09.075-.138.11-16.311 11.802-30.003 20.092-43.092 26.089-16.369 7.499-32.186 11.594-48.353 12.517-6.335.364-12.81.231-19.266-.394-10.126 19.629-17.308 43.057-21.35 69.658-5.08 33.379-5.041 71.629.111 107.704 2.75 19.299 6.808 36.622 11.46 48.969 39.898 6.093 79.559-3.13 108.986-25.377a1.998 1.998 0 0 1 3.077.891c5.552 14.748 14.118 30.721 23.187 47.633 7.515 14.014 15.285 28.504 22.508 44.28 10.443 22.811 17.544 43.811 21.708 64.201 5.163 25.15 6.078 49.709 2.786 74.994z" fill="#1a1a1a"/><path d="M367.923 542.252c-.77 0-1.503-.446-1.832-1.196-29.327-66.758-23.099-143.636-23.033-144.404a2 2 0 0 1 3.986.344c-.065.759-6.197 76.651 22.709 142.452a2 2 0 0 1-1.83 2.804z" fill="#1a1a1a"/><path d="M857.767 504.423c10.323 89.099-3.101 268.237-96.776 268.237-131.409 0-184.834-99.996-249.979-97.103-43.469 1.922-52.94 13.72-79.519 21.695-21.319 6.39-46.907 2.061-54.654 7.747-7.757 5.686-9.173 20.031-10.214 24.677-1.03 4.656.783 18.763-10.075 17.525-10.857-1.238-8.529-39.23-5.944-48.532-12.532 11.957-17.376 27.074-18.862 36.178-1.03 6.32-8.747 18.941-19.06 7.172-9.302 3.101-14.929-13.433-6.786-33.533-6.132 1.674-13.552 3.002-19.575 4.071-15.315 2.724-17.723-10.005.377-17.108 8.738-3.428 18.684-7.123 28.758-10.738 7.925-9.649 26.361-19.387 42.697-26.767 9.718-4.398 18.693-7.955 24.28-10.174v-.01c1.496-.594 2.744-1.09 3.705-1.486 33.533-13.76 125.722-82.758 265.789-63.639a258.477 258.477 0 0 0-5.102-38.853h-.01c-8.48-40.339-26.391-77.082-51.226-114.132l-52.195-215.02c11.204 0 23.528.753 36.654 2.427.03 0 .05.01.079.01 93.15 11.878 226.937 69.732 291.467 229.374-7.489 11.115-19.892 24.815-19.892 24.815 2.438 8.411 4.518 19.774 6.063 33.167z" fill="#fff"/><path d="M851.705 471.256c2.437 8.411 4.517 19.774 6.063 33.167l-27.778-14.018c-1.288-28.203-8.529-61.281-25.063-74.199-16.544-12.918-79.598-50.136-82.699-79.083-3.101-28.937-20.793-62.539-71.326-80.113-22.279-7.747-47.58-36.941-70.771-39.943 93.15 11.878 226.937 69.732 291.467 229.374-7.49 11.115-19.893 24.815-19.893 24.815z" fill="#fece2f"/><path d="M760.991 774.659c-76.7 0-127.524-34.118-168.362-61.532-29.385-19.726-54.779-36.771-81.528-35.573-29.477 1.303-42.986 7.145-57.289 13.329-6.539 2.827-13.301 5.75-21.744 8.284-10.961 3.285-22.712 3.786-33.08 4.227-9.447.402-17.605.75-20.965 3.217-5.966 4.373-7.89 15.045-8.923 20.779a75.66 75.66 0 0 1-.522 2.722c-.176.794-.266 2.106-.362 3.495-.307 4.446-.727 10.536-4.533 13.704-1.903 1.584-4.382 2.215-7.358 1.876-2.147-.245-3.978-1.47-5.441-3.642-5.324-7.899-4.951-28.606-3.437-40.569-9.775 11.735-12.829 24.691-13.727 30.193-.74 4.539-4.385 11.678-10.172 13.336-2.697.772-6.828.609-11.524-4.252-2.843.526-5.514-.383-7.627-2.635-4.374-4.659-6.525-15.897-1.693-30.259-5.463 1.292-11.434 2.352-16.028 3.168-9.097 1.62-13.472-1.863-14.452-5.336-1.291-4.574 2.46-11.173 13.749-15.603 8.18-3.209 17.7-6.767 28.303-10.576 6.833-8.022 21.314-17.066 43.06-26.891 9.632-4.359 18.364-7.827 24.143-10.122l.05-.02c.056-.028.113-.054.171-.078l.354-.141c1.33-.529 2.449-.974 3.327-1.336 5.736-2.354 13.158-6.318 22.554-11.337 44.389-23.712 126.737-67.713 241.857-52.755a257.854 257.854 0 0 0-4.878-35.952 1.975 1.975 0 0 1-.049-.187c-7.825-37.225-24.009-73.268-50.93-113.43a2 2 0 0 1 3.322-2.228c27.172 40.536 43.533 76.969 51.482 114.646.02.062.036.125.05.19 2.678 12.764 4.408 25.937 5.142 39.153a2 2 0 0 1-2.268 2.093c-115.095-15.709-197.547 28.336-241.844 52-9.496 5.072-16.996 9.079-22.916 11.508-.886.366-2.022.818-3.372 1.354l-.181.072a2.082 2.082 0 0 1-.173.079l-.223.088c-5.744 2.281-14.424 5.728-23.972 10.049-21.571 9.745-35.693 18.565-41.976 26.214a2 2 0 0 1-.87.613c-10.771 3.866-20.429 7.472-28.704 10.718-9.515 3.734-12.006 8.5-11.359 10.793.549 1.947 3.884 3.558 9.902 2.484 5.593-.993 13.252-2.354 19.398-4.032a2 2 0 0 1 2.38 2.68c-5.535 13.664-4.359 25.471-.441 29.644 1.357 1.445 2.908 1.852 4.741 1.241a2.002 2.002 0 0 1 2.137.58c2.938 3.354 5.714 4.688 8.256 3.958 3.833-1.098 6.764-6.689 7.326-10.134 1.089-6.674 5.166-23.669 19.456-37.303a2 2 0 0 1 3.307 1.982c-2.31 8.309-3.821 35.964 1.666 44.105.791 1.173 1.634 1.796 2.578 1.903 1.88.216 3.3-.104 4.347-.976 2.492-2.074 2.844-7.178 3.101-10.904.111-1.609.207-2.999.448-4.089.15-.671.307-1.543.49-2.563 1.133-6.283 3.241-17.978 10.494-23.294 4.34-3.187 12.646-3.54 23.161-3.988 10.134-.432 21.62-.921 32.101-4.062 8.219-2.466 14.872-5.342 21.305-8.124 14.65-6.334 28.488-12.317 58.699-13.653 28.081-1.251 53.964 16.128 83.935 36.248 40.387 27.112 90.651 60.853 166.132 60.853 21.918 0 40.71-10.212 55.853-30.354 49.689-66.092 47.271-218.928 32.939-268.493a2.004 2.004 0 0 1 .438-1.898c.12-.132 11.748-13.009 19.119-23.714-17.186-42.211-40.339-79.722-68.828-111.506-25.183-28.095-54.66-51.896-87.612-70.744-74.673-42.709-143.416-47.32-169.504-47.32a2 2 0 0 1 0-4c26.409 0 95.984 4.663 171.49 47.848 33.324 19.06 63.135 43.132 88.604 71.546 29.022 32.378 52.56 70.621 69.959 113.667.25.616.176 1.316-.195 1.867-6.516 9.671-16.514 21.06-19.326 24.213 14.228 51.249 16.194 204.323-33.888 270.938-15.938 21.199-35.806 31.948-59.05 31.948z" fill="#1a1a1a"/><path d="M397.125 530.432c-45.483-88.9 69.574-140.756 130.901-48.152 28.808 43.5 42.763 84.332 40.179 121.028-6.179 87.741-101.718 72.958-120.428 25.843-11.902-29.971-33.889-65.955-50.652-98.719z" fill="#fece2f"/><path d="M509.242 668.896c-27.172 0-54.225-16.095-63.324-39.006-7.839-19.741-20.313-42.534-32.377-64.576-6.158-11.252-12.526-22.887-18.197-33.971-9.897-19.344-12.937-38.391-8.792-55.082 3.747-15.085 13.354-27.803 27.055-35.81 16.331-9.545 37.196-11.651 57.247-5.777 22.763 6.669 43.109 22.749 58.839 46.501 29.459 44.483 43.087 85.622 40.506 122.273-3.65 51.828-36.731 62.492-50.785 64.671a66.178 66.178 0 0 1-10.172.777zM398.905 529.521c5.646 11.034 12 22.645 18.145 33.873 12.122 22.148 24.656 45.051 32.586 65.02 9.587 24.143 40.614 40.178 69.167 35.755 27.7-4.296 44.979-26.529 47.407-61 2.518-35.751-10.89-76.053-39.851-119.783-15.202-22.955-34.784-38.471-56.629-44.872-18.999-5.565-38.718-3.601-54.104 5.392-21.493 12.561-38.769 42.521-16.721 85.615z" fill="#1a1a1a"/><ellipse cx="437.239" cy="545.936" fill="#1a1a1a" rx="8.27" ry="18.607" transform="matrix(.8993 -.4374 .4374 .8993 -194.7446 246.2345)"/><path d="M443.645 565.054c-5.019 0-11.297-5.694-15.641-14.625-2.294-4.715-3.635-9.58-3.777-13.697-.161-4.681 1.259-7.993 4-9.326s6.222-.405 9.805 2.612c3.151 2.654 6.149 6.712 8.443 11.427 2.294 4.716 3.635 9.58 3.777 13.697.162 4.681-1.259 7.993-3.999 9.326a5.917 5.917 0 0 1-2.608.586zm-12.769-34.242c-.336 0-.639.062-.901.189-1.197.583-1.852 2.672-1.751 5.591.123 3.57 1.322 7.862 3.376 12.085 4.5 9.252 10.543 13.336 12.902 12.192 1.197-.583 1.851-2.672 1.75-5.591-.123-3.57-1.322-7.862-3.376-12.085-2.054-4.224-4.69-7.816-7.423-10.118-1.744-1.468-3.375-2.263-4.577-2.263z" fill="#1a1a1a"/><ellipse cx="493.059" cy="520.61" fill="#1a1a1a" rx="8.27" ry="18.607" transform="matrix(.8993 -.4374 .4374 .8993 -178.0446 268.0988)"/><path d="M499.44 539.735c-2.194 0-4.658-1.088-7.173-3.206-3.151-2.653-6.149-6.712-8.443-11.427-5.139-10.565-5.043-20.462.222-23.023 2.741-1.333 6.223-.406 9.806 2.611 3.151 2.653 6.149 6.712 8.443 11.427 2.294 4.716 3.635 9.58 3.777 13.697.162 4.681-1.259 7.993-3.999 9.326a5.94 5.94 0 0 1-2.633.595zm-12.743-34.249c-.337 0-.64.062-.901.19-2.354 1.146-2.875 8.424 1.625 17.676 2.054 4.224 4.69 7.816 7.423 10.118 2.235 1.882 4.283 2.657 5.479 2.074 1.197-.583 1.852-2.672 1.751-5.591-.123-3.57-1.322-7.862-3.376-12.085-2.054-4.224-4.69-7.817-7.423-10.118-1.745-1.469-3.377-2.264-4.578-2.264zm10.66 125.803c-1.24 0-2.488-.074-3.743-.224-14.977-1.792-28.03-14.282-35.814-34.267a2 2 0 0 1 3.727-1.451c7.23 18.564 19.098 30.136 32.562 31.747 10.311 1.235 20.258-3.46 26.611-12.559 8.66-12.402 8.556-30.171-.279-47.533a2.002 2.002 0 0 1 .875-2.69 2.002 2.002 0 0 1 2.69.875c9.516 18.701 9.514 38.004-.006 51.637-6.445 9.232-16.199 14.465-26.623 14.465z" fill="#1a1a1a"/><path d="M760.991 772.659c-39.12 0-71.336-8.866-99.005-21.249-65.254-29.175-105.226-77.885-150.974-75.854-8.945.396-16.454 1.209-22.973 2.328-13.195 2.249-22.309 5.736-31.047 9.451-7.896 3.358-15.484 6.915-25.499 9.916-21.319 6.39-46.907 2.061-54.654 7.747-7.757 5.686-9.173 20.031-10.214 24.677-1.03 4.656.783 18.763-10.075 17.525-10.857-1.238-8.529-39.23-5.944-48.532-12.532 11.957-17.376 27.074-18.862 36.178-1.03 6.32-8.747 18.941-19.06 7.172-9.302 3.101-14.929-13.433-6.786-33.533-6.132 1.674-13.552 3.002-19.575 4.071-15.315 2.724-17.723-10.005.377-17.108 8.738-3.428 18.684-7.123 28.758-10.738 7.925-9.649 26.361-19.387 42.697-26.767-8.064-7.796-10.59-23.498-3.992-26.401 6.588-2.913 13.126 11.313 28.273 16.217 1.496-.594 2.744-1.09 3.705-1.486 33.533-13.76 125.722-82.758 265.789-63.639a258.477 258.477 0 0 0-5.102-38.853c80.51 4.458 140.117-19.536 183.16-53.376a253.438 253.438 0 0 0 21.715-19.149c18.606 64.342 42.124 301.403-90.712 301.403z" fill="#fece2f"/><path d="M760.991 774.66c-34.959 0-67.611-7.008-99.821-21.424-26.297-11.757-48.743-26.823-68.546-40.115-29.383-19.722-54.768-36.75-81.522-35.566-8.452.374-15.885 1.127-22.723 2.301-13.374 2.279-22.451 5.854-30.603 9.32-1.345.572-2.681 1.15-4.022 1.73-6.523 2.822-13.27 5.739-21.686 8.262-10.96 3.285-22.711 3.785-33.079 4.227-9.447.402-17.605.75-20.965 3.217-5.966 4.373-7.89 15.045-8.923 20.779a75.66 75.66 0 0 1-.522 2.722c-.176.794-.266 2.106-.362 3.495-.307 4.446-.727 10.536-4.533 13.704-1.903 1.584-4.377 2.215-7.358 1.876-2.147-.245-3.978-1.47-5.441-3.642-5.324-7.899-4.951-28.606-3.437-40.57-9.775 11.736-12.829 24.692-13.727 30.193-.74 4.539-4.385 11.678-10.172 13.336-2.697.772-6.828.609-11.524-4.252-2.846.526-5.515-.384-7.627-2.635-4.375-4.66-6.525-15.897-1.693-30.26-5.463 1.292-11.434 2.352-16.028 3.168-9.097 1.62-13.472-1.863-14.452-5.336-1.291-4.575 2.46-11.173 13.749-15.604 8.18-3.209 17.7-6.767 28.303-10.576 6.568-7.711 20.204-16.367 40.564-25.752-4.664-5.8-7.32-14.38-6.186-20.72.604-3.378 2.232-5.739 4.708-6.827 4.487-1.985 8.514 1.537 13.176 5.613 4.059 3.55 9.079 7.94 15.845 10.305 1.199-.476 2.199-.875 3-1.206 5.735-2.353 13.157-6.317 22.552-11.336 44.389-23.712 126.739-67.709 241.858-52.756a257.905 257.905 0 0 0-4.917-36.14 2.004 2.004 0 0 1 .44-1.714 2.015 2.015 0 0 1 1.628-.694c70.953 3.93 132.125-13.886 181.813-52.951a252.046 252.046 0 0 0 21.545-19 1.998 1.998 0 0 1 3.327.867c12.9 44.616 32.89 197.272-20.514 268.305-17.791 23.66-42.056 35.656-72.125 35.656zM513.777 673.496c26.988 0 52.124 16.872 81.076 36.304 19.67 13.203 41.965 28.167 67.95 39.785 31.687 14.182 63.804 21.075 98.188 21.075 28.743 0 51.933-11.459 68.923-34.059 27.732-36.887 33.946-96.132 34.276-139.338.37-48.519-6.582-96.371-13.507-122.217a255.976 255.976 0 0 1-19.459 16.933c-45.915 36.098-101.439 54.337-165.257 54.339-5.494 0-11.045-.135-16.661-.406a262.512 262.512 0 0 1 4.622 36.611 2 2 0 0 1-2.268 2.093c-115.089-15.708-197.546 28.336-241.845 52-9.496 5.073-16.996 9.079-22.915 11.508-.958.395-2.202.89-3.693 1.482a2.1 2.1 0 0 1-1.388.057c-7.891-2.555-13.451-7.418-17.919-11.326-4.323-3.781-6.871-5.874-8.928-4.965-1.518.667-2.134 2.474-2.384 3.872-.919 5.139 1.479 13.964 6.958 19.261a1.997 1.997 0 0 1-.567 3.26c-21.569 9.745-35.691 18.564-41.975 26.214a2 2 0 0 1-.87.613c-10.771 3.866-20.429 7.472-28.704 10.718-9.515 3.734-12.006 8.5-11.359 10.793.549 1.947 3.882 3.554 9.902 2.484 5.593-.993 13.252-2.354 19.398-4.032a1.998 1.998 0 0 1 2.38 2.68c-5.535 13.663-4.359 25.471-.441 29.644 1.358 1.447 2.909 1.852 4.741 1.241a2.001 2.001 0 0 1 2.137.58c2.939 3.354 5.719 4.686 8.256 3.958 3.832-1.098 6.764-6.689 7.326-10.135 1.089-6.674 5.166-23.669 19.455-37.304a2 2 0 0 1 3.307 1.982c-2.309 8.309-3.821 35.965 1.666 44.106.791 1.173 1.634 1.796 2.578 1.903 1.88.215 3.301-.104 4.346-.976 2.492-2.074 2.844-7.178 3.101-10.905.111-1.609.207-2.999.448-4.089.15-.671.307-1.543.49-2.563 1.133-6.283 3.241-17.978 10.494-23.294 4.34-3.187 12.646-3.54 23.161-3.988 10.134-.432 21.619-.921 32.101-4.062 8.192-2.455 14.829-5.325 21.247-8.101a723.376 723.376 0 0 1 4.044-1.739c8.37-3.559 17.696-7.231 31.494-9.583 7.003-1.202 14.599-1.972 23.22-2.354.954-.04 1.907-.06 2.855-.06z" fill="#1a1a1a"/><path d="M535.759 214.818c-5.419 76.953-75.576 131.478-116.688 131.478-29.065 0-47.66-17.693-42.023-48.423v-.01c47.462-34.345 92.347-79.776 158.711-83.045z" fill="#fece2f"/><path d="M419.071 348.296c-15.758 0-28.747-5.172-36.572-14.563-7.536-9.044-10.103-21.559-7.423-36.196.087-.515.371-.984.799-1.294 8.612-6.232 17.326-12.975 25.752-19.495 38.898-30.099 79.12-61.223 134.033-63.928a2.002 2.002 0 0 1 2.094 2.138c-2.468 35.045-18.642 69.093-45.543 95.873-23.214 23.11-51.239 37.465-73.14 37.465zm-40.193-49.289c-2.24 13.105.069 24.214 6.694 32.166 7.052 8.463 18.948 13.124 33.499 13.124 20.566 0 48.167-14.248 70.318-36.299 25.633-25.518 41.27-57.773 44.196-91.052-52.51 3.384-91.644 33.667-129.509 62.966-8.238 6.374-16.75 12.96-25.198 19.095z" fill="#1a1a1a"/><path d="m406.686 291.773-10.854-78.692c-29.849 10.854-93.81-13.568-73.652-90.708s87.962-71.243 102.725-58.146c24.034 21.32 14.214 64.866 11.5 70.68 22.225-17.961 35.405 15.247 9.045 25.068 11.629 21.32 49.618 85.281 49.618 85.281z" fill="#fece2f"/><path d="M406.684 293.773a2.001 2.001 0 0 1-1.979-1.727l-10.527-76.323c-15.637 4.539-39.51.91-57.184-15.19-19.431-17.7-25.379-45.637-16.749-78.666 11.19-42.822 36.037-58.642 54.91-64.372 21.068-6.396 42.515-2.361 51.078 5.235 13.253 11.757 16.262 29.667 16.453 42.622.144 9.746-1.278 18.902-2.701 24.763 5.294-2.819 10.479-3.227 14.731-1.039 4.802 2.471 7.673 7.983 7.313 14.042-.449 7.571-5.537 14.117-13.75 17.852 12.581 22.754 48.141 82.644 48.51 83.265a2 2 0 0 1-3.439 2.043c-.38-.64-38.141-64.237-49.655-85.345a1.998 1.998 0 0 1 1.057-2.831c7.927-2.954 12.893-8.643 13.284-15.22.266-4.479-1.756-8.501-5.151-10.248-4.131-2.125-9.536-.766-15.223 3.83a2 2 0 0 1-3.069-2.401c1.288-2.76 4.295-14.923 4.093-28.65-.179-12.15-2.945-28.898-15.107-39.688-6.351-5.633-25.764-10.926-47.262-4.4-17.896 5.434-41.479 20.524-52.202 61.557-10.556 40.398 2.642 62.919 15.572 74.697 17.222 15.688 41.429 18.729 55.461 13.626a2.001 2.001 0 0 1 2.665 1.606l10.854 78.691a2 2 0 0 1-1.708 2.255 2.55 2.55 0 0 1-.275.016z" fill="#1a1a1a"/><ellipse cx="378.615" cy="127.633" fill="#fff" rx="10.034" ry="18.834" transform="matrix(.2794 -.9602 .9602 .2794 150.2672 455.4997)"/><path d="M384.772 140.614c-2.961 0-6.199-.46-9.52-1.426-5.139-1.496-9.686-3.993-12.803-7.031-3.44-3.354-4.803-7.028-3.838-10.345.965-3.316 4.087-5.685 8.79-6.669 4.261-.893 9.438-.559 14.577.937 11.216 3.264 18.526 10.897 16.641 17.376-1.328 4.559-6.807 7.158-13.847 7.158zm-12.338-21.966c-1.49 0-2.907.135-4.213.409-3.141.657-5.243 2.069-5.768 3.872-.525 1.804.492 4.123 2.79 6.363 2.655 2.589 6.607 4.739 11.128 6.055 9.523 2.773 17.346.639 18.408-3.01 1.062-3.648-4.393-9.646-13.918-12.417-2.895-.843-5.777-1.272-8.427-1.272zm24.264 14.247h.01z" fill="#1a1a1a"/><ellipse cx="322.316" cy="112.07" fill="#fff" rx="10.034" ry="18.834" transform="matrix(.2794 -.9602 .9602 .2794 124.643 390.2301)"/><g fill="#1a1a1a"><path d="M328.508 125.052c-3.039 0-6.304-.481-9.555-1.427-11.217-3.265-18.526-10.897-16.641-17.376.965-3.317 4.087-5.686 8.79-6.67 4.261-.893 9.438-.559 14.577.937 5.14 1.496 9.687 3.993 12.803 7.032 3.44 3.354 4.803 7.028 3.838 10.345s-4.087 5.686-8.79 6.67c-1.566.327-3.256.489-5.022.489zm-12.373-21.967c-1.49 0-2.907.135-4.213.409-3.141.657-5.244 2.069-5.769 3.872-1.062 3.649 4.393 9.646 13.918 12.418 4.521 1.316 9.009 1.622 12.64.862 3.141-.658 5.243-2.069 5.768-3.873.525-1.803-.492-4.123-2.79-6.363-2.655-2.588-6.607-4.739-11.128-6.055-2.894-.841-5.775-1.27-8.426-1.27z"/><circle cx="310.969" cy="108.768" r="5.191"/><path d="M310.966 115.959a7.182 7.182 0 0 1-2.005-.287c-3.807-1.108-6.003-5.106-4.896-8.913 1.108-3.807 5.108-6.002 8.913-4.896 3.807 1.108 6.003 5.107 4.896 8.914-.914 3.139-3.792 5.182-6.908 5.182zm.005-10.382c-1.382 0-2.66.907-3.065 2.3a3.194 3.194 0 0 0 2.172 3.955 3.195 3.195 0 0 0 3.955-2.172 3.195 3.195 0 0 0-3.062-4.083zm4.982 4.642h.01z"/><circle cx="366.291" cy="124.046" r="5.191"/><path d="M366.301 131.24a7.215 7.215 0 0 1-2.019-.29 7.147 7.147 0 0 1-4.294-3.443 7.145 7.145 0 0 1-.601-5.471 7.141 7.141 0 0 1 3.443-4.293 7.14 7.14 0 0 1 5.47-.602 7.142 7.142 0 0 1 4.293 3.443 7.144 7.144 0 0 1 .602 5.47 7.146 7.146 0 0 1-3.443 4.294 7.148 7.148 0 0 1-3.451.892zm-.009-10.385a3.196 3.196 0 0 0-3.064 2.299c-.238.819-.144 1.681.267 2.428s1.087 1.29 1.905 1.528c.816.237 1.68.143 2.427-.267s1.29-1.087 1.527-1.905a3.166 3.166 0 0 0-.267-2.427 3.17 3.17 0 0 0-1.905-1.528 3.15 3.15 0 0 0-.89-.128zm-35.391 27.551c-.451 0-.904-.151-1.277-.462-5.919-4.92-8.083-9.32-6.431-13.078 2.763-6.286 15.038-7.103 22.127-6.142a1.999 1.999 0 1 1-.537 3.963c-8.034-1.091-16.578.716-17.928 3.788-.811 1.845 1.13 4.904 5.326 8.392a1.999 1.999 0 0 1-1.28 3.539zm22.678 24.748c-.172 8.933 12.548 14.939 24.042 12.064 10.264-2.567 18.017-12.452 16.079-21.755s-12.405-15.312-22.186-2.072c-3.745 5.07-17.741 1.684-17.935 11.763z"/><path d="M371.631 187.946c-5.549 0-10.977-1.685-14.878-4.791-3.408-2.714-5.246-6.28-5.173-10.04.147-7.681 6.868-9.184 11.774-10.282 2.714-.607 5.52-1.235 6.552-2.631 6.475-8.766 12.702-8.924 15.834-8.238 4.842 1.06 8.735 5.413 9.918 11.091 2.116 10.157-5.922 21.194-17.552 24.103-2.12.53-4.307.788-6.475.788zm11.762-32.235c-3.366 0-6.958 2.385-10.27 6.868-1.918 2.597-5.465 3.391-8.896 4.158-5.308 1.188-8.565 2.135-8.648 6.456-.061 3.187 1.96 5.475 3.666 6.833 4.417 3.517 11.606 4.824 17.891 3.251 9.443-2.361 16.268-11.43 14.606-19.407-.862-4.136-3.553-7.276-6.857-7.999a6.984 6.984 0 0 0-1.492-.16zm-29.813 17.443h.01zm42.252 39.927c12.017-2.907 19.003-10.246 22.57-14.08 7.278-7.822 13.093-4.139 9.023.706-6.469 7.702-11.435 11.629-11.87 18.704-.418 6.804-4.01 25.485-15.258 27.036l-4.465-32.366z"/><path d="M400.294 247.448a2 2 0 0 1-1.979-1.727l-4.464-32.367a2 2 0 0 1 1.511-2.217c11.636-2.815 18.35-10.031 21.576-13.499 5.286-5.68 10.169-6.077 12.47-4.042 1.646 1.455 2.144 4.307-.452 7.397a197.659 197.659 0 0 1-3.74 4.296c-4.433 4.989-7.361 8.285-7.666 13.245-.458 7.449-4.402 27.16-16.981 28.895a1.955 1.955 0 0 1-.275.019zm-2.238-32.886 3.916 28.391c4.011-1.588 6.622-6.069 8.167-9.815 2.175-5.276 3.202-11.296 3.421-14.848.389-6.338 4.042-10.451 8.667-15.657 1.17-1.318 2.381-2.681 3.667-4.211.84-1 .924-1.696.86-1.836-.021-.019-.185-.142-.625-.117-1.289.015-3.611 1.047-6.262 3.896-3.33 3.577-10.091 10.843-21.811 14.197zm-26.257-129.92c-22.483 13.891-62.963-1.515-37.214-40.573 23-34.888 59.42-40.991 80.068-42.027 22.528-1.13 34.932 21.095 15.55 39.443 24.034-7.494 39.798 20.674 18.09 39.798 32.304-.258 29.461 40.573 7.627 51.018-2.91-4.21-13.474-3.338-19.514 2.606-9.045-1.68-18.348-7.624-17.056-23.129-17.121 7.3-43.869-.841-47.551-27.136z"/><path d="M436.406 136.906c-.122 0-.244-.011-.365-.034-12.004-2.229-18.73-10.241-18.806-22.18-9.569 3.052-20.746 1.877-29.871-3.279-8.884-5.02-14.862-13.35-17.046-23.652-13.187 6.661-30.432 4.756-39.672-4.76-9.13-9.403-8.303-23.995 2.271-40.033C350.236 16.697 378.466 1.855 414.555.044c11.664-.586 21.707 4.909 25.591 13.994 3.298 7.712 1.633 16.489-4.395 24.306 9.227-.815 17.455 3.238 21.917 11.173 4.122 7.33 5.009 19.179-4.744 30.005 15.292 1.788 19.609 13.016 20.783 18.1 3.257 14.095-4.334 30.46-16.922 36.482a2 2 0 0 1-2.508-.667c-.626-.905-2.053-1.525-3.914-1.702-3.462-.327-8.869.971-12.553 4.596a2.004 2.004 0 0 1-1.404.575zm-17.056-27.129a1.999 1.999 0 0 1 1.993 2.166c-1.179 14.142 6.983 19.146 14.457 20.799 4.561-3.982 10.69-5.391 14.938-4.989 2.291.217 4.218.94 5.598 2.08 10.221-5.722 16.219-19.425 13.473-31.31-2.241-9.698-9.97-15.242-21.223-15.242-.098 0-.194.004-.292.001a1.999 1.999 0 0 1-1.322-3.5c11.414-10.055 11.017-21.531 7.208-28.304-4.468-7.947-13.645-11.119-23.381-8.084a2 2 0 0 1-1.97-3.361c8.059-7.63 10.915-16.759 7.638-24.421-3.22-7.53-11.73-12.075-21.713-11.572-34.765 1.745-61.91 15.967-78.499 41.13-9.589 14.544-10.562 26.991-2.74 35.046 8.464 8.717 25.515 9.965 37.233 2.725a1.997 1.997 0 0 1 3.031 1.425c1.858 13.266 9.483 20.138 15.552 23.567 8.868 5.01 20.343 5.797 29.234 2.005.252-.108.519-.161.785-.161z"/><path d="M431.365 144.012a2 2 0 0 1-1.829-2.806c.086-.196 2.156-4.833 5.552-7.804a1.999 1.999 0 0 1 2.822.188 1.999 1.999 0 0 1-.188 2.822c-2.717 2.378-4.51 6.372-4.528 6.412a2 2 0 0 1-1.829 1.188zm19.124 6.204a2 2 0 0 1-1.845-2.769c.91-2.185-.684-6.413-3.101-8.226a2.001 2.001 0 0 1-.4-2.8 2.002 2.002 0 0 1 2.8-.4c3.906 2.929 6 9.108 4.393 12.964a1.999 1.999 0 0 1-1.847 1.231zm-5.038 9.758c-4.564 1.516-10.208 6.978-2.067 15.893 8.141 8.916 26.36 8.406 29.065-7.882 2.267-13.647-10.148-19.046-15.278-16.695-2.158 3.515-6.275 6.875-11.72 8.684z"/><path d="M456.934 183.636c-5.601 0-11.292-2.33-15.027-6.42-3.869-4.237-5.339-8.273-4.369-11.994.995-3.815 4.414-6.192 7.283-7.146 4.592-1.525 8.571-4.454 10.646-7.832.208-.338.511-.606.871-.771 3.35-1.535 8.381-.547 12.237 2.402 4.837 3.698 6.968 9.689 5.847 16.438-1.219 7.337-5.636 12.645-12.12 14.564a18.96 18.96 0 0 1-5.368.759zm-11.483-23.662.63 1.898c-1.872.622-4.083 2.094-4.673 4.359-.598 2.293.596 5.16 3.452 8.288 3.956 4.333 10.664 6.194 16.306 4.522 5.031-1.489 8.337-5.531 9.309-11.383 1.192-7.175-2.202-10.978-4.331-12.605-2.652-2.028-5.813-2.63-7.652-2.12-2.652 3.95-7.134 7.186-12.411 8.939zm-94.842 540.695a2 2 0 0 1-1.953-2.44c1.986-8.818 14.441-20.307 31.101-23.491a2 2 0 1 1 .751 3.929c-12.997 2.484-26.057 12.037-27.95 20.441a2 2 0 0 1-1.949 1.561zm-37.928 43.352a2.001 2.001 0 0 1-1.977-1.712c-2.078-14.273 7.199-40.487 14.247-51.562 5.216-8.197 13.471-14.239 25.977-19.014a2 2 0 0 1 1.427 3.737c-11.662 4.453-19.298 9.989-24.029 17.424-6.808 10.697-15.544 35.917-13.664 48.838a2 2 0 0 1-1.981 2.289zm-6.782-33.532a2 2 0 0 1-1.856-2.744c.996-2.489 1.895-5.057 2.847-7.775 1.948-5.561 3.961-11.311 6.843-16.264a2 2 0 0 1 3.457 2.011c-2.689 4.624-4.64 10.19-6.525 15.574-.924 2.639-1.88 5.368-2.908 7.938a2 2 0 0 1-1.858 1.26zm52.259-50.546a2 2 0 0 1-.838-3.817c7.15-3.292 16.958-7.406 24.406-10.236a2 2 0 1 1 1.421 3.739c-7.371 2.801-17.078 6.873-24.154 10.131a2.002 2.002 0 0 1-.835.183zm334.219-63.809c-.306 0-.617-.07-.909-.219-.156-.08-15.919-8.031-39.808-11.299a1.999 1.999 0 1 1 .542-3.962c24.609 3.367 40.427 11.363 41.088 11.701a2 2 0 0 1-.913 3.779zM286.661 336.103a520.18 520.18 0 0 1-13.492 28.134 523.085 523.085 0 0 1-18.109 32.355c-1.882 3.11-3.873 6.281-6.786 8.46a12.052 12.052 0 0 1-4.091 2.011c-2.071.555-4.26.505-6.162-.446-3.121-1.565-4.775-5.181-4.953-8.658-.178-3.487.862-6.895 1.882-10.224 2.189-7.063 4.369-14.126 6.548-21.19 1.129-3.666 2.279-7.45 1.892-11.254-.386-3.814-2.704-7.707-6.4-8.727-4.537-1.248-9.124 2.189-11.64 6.172-2.526 3.992-3.874 8.688-6.816 12.363-2.942 3.685-8.49 6.073-12.383 3.408-4.488-3.061-3.428-9.877-1.714-15.038a270.75 270.75 0 0 1 21.487-48.234c12.016 15.246 25.172 26.302 40.438 30.343a123.21 123.21 0 0 0 20.299.525z"/><path d="M241.556 409.424c-1.578 0-3.075-.341-4.429-1.019-3.499-1.754-5.819-5.718-6.056-10.344-.197-3.85.903-7.44 1.967-10.912 2.09-6.743 4.169-13.48 6.248-20.216l.301-.977c1.063-3.451 2.163-7.02 1.813-10.462-.283-2.793-1.951-6.175-4.942-7.001-3.544-.972-7.369 2.07-9.417 5.312-1 1.579-1.804 3.278-2.655 5.077-1.2 2.536-2.441 5.158-4.29 7.468-3.584 4.488-10.204 7.143-15.074 3.808-4.391-2.995-5.25-8.984-2.482-17.319a273.085 273.085 0 0 1 21.646-48.592 1.999 1.999 0 0 1 3.309-.25c12.836 16.286 25.672 25.974 39.233 29.609a121.77 121.77 0 0 0 19.817.5 2.001 2.001 0 0 1 1.943 2.807 524.19 524.19 0 0 1-13.544 28.243 526.923 526.923 0 0 1-18.176 32.473c-2.155 3.562-4.193 6.701-7.297 9.023a14.07 14.07 0 0 1-4.771 2.341c-1.07.288-2.124.431-3.144.431zm-6.494-65.121c.812 0 1.633.105 2.459.333 4.832 1.334 7.428 6.211 7.858 10.454.432 4.25-.845 8.391-1.971 12.045l-.302.978c-2.079 6.738-4.159 13.477-6.248 20.215-.96 3.135-1.956 6.383-1.794 9.529.161 3.143 1.673 5.88 3.852 6.973 1.693.846 3.516.631 4.748.302 1.2-.322 2.378-.902 3.405-1.676 2.534-1.896 4.343-4.699 6.279-7.899a522.798 522.798 0 0 0 18.041-32.233 518.888 518.888 0 0 0 12.123-25.08 126.46 126.46 0 0 1-17.363-.677 2.004 2.004 0 0 1-.298-.055c-13.814-3.657-26.8-13.062-39.631-28.716a269.157 269.157 0 0 0-19.885 45.306c-1.224 3.687-2.73 10.248.943 12.754 2.823 1.932 7.29.006 9.693-3.003 1.559-1.946 2.647-4.246 3.799-6.681.865-1.828 1.76-3.719 2.89-5.503 2.473-3.916 6.763-7.366 11.402-7.366zm525.929 428.356c-39.12 0-71.336-8.866-99.005-21.249 7.222-1.555 14.127-4.498 21.338-6.221 21.21-5.052 43.281.773 65.056 2.011 21.764 1.238 46.937-4.309 57.17-23.557 15.305-28.778-12.997-66.046.337-95.786 5.904-13.185 18.891-21.824 26.361-34.187 12.76-21.111 7.172-47.957 2.031-72.069-2.15-10.065-3.992-20.754-4.29-31.196a253.438 253.438 0 0 0 21.715-19.149c18.605 64.342 42.123 301.403-90.713 301.403z"/><path d="M760.991 774.66c-34.959 0-67.611-7.008-99.821-21.424a2 2 0 0 1 .396-3.781c3.731-.804 7.489-2.024 11.123-3.205 3.298-1.071 6.708-2.179 10.171-3.007 15.257-3.635 31.044-1.757 46.31.059 6.352.756 12.92 1.537 19.325 1.901 9.863.56 43.011.598 55.291-22.5 7.478-14.059 4.083-30.186.49-47.259-3.442-16.354-7.001-33.264-.212-48.406 3.425-7.648 9.132-13.817 14.65-19.784 4.239-4.583 8.623-9.322 11.824-14.619 12.451-20.601 6.786-47.173 1.787-70.618-2.74-12.829-4.077-22.561-4.333-31.555a2.002 2.002 0 0 1 .765-1.631 252.302 252.302 0 0 0 21.543-18.998 1.998 1.998 0 0 1 3.327.867c12.9 44.616 32.89 197.272-20.514 268.305-17.788 23.659-42.053 35.655-72.122 35.655zm-92.886-22.773c29.971 12.625 60.418 18.772 92.886 18.772 28.743 0 51.933-11.459 68.923-34.059 27.732-36.887 33.946-96.132 34.276-139.338.37-48.519-6.582-96.371-13.507-122.217a256.329 256.329 0 0 1-18.661 16.305c.318 8.468 1.628 17.729 4.213 29.832 5.153 24.171 10.995 51.567-2.275 73.522-3.411 5.646-7.935 10.537-12.311 15.267-5.543 5.993-10.78 11.653-13.937 18.703-6.257 13.956-2.834 30.219.476 45.946 3.583 17.021 7.287 34.621-.872 49.961-9.04 17.003-31.114 26.209-59.05 24.615-6.527-.371-13.158-1.16-19.569-1.922-14.919-1.774-30.345-3.609-44.909-.14-3.307.791-6.64 1.874-9.863 2.92a222.116 222.116 0 0 1-5.82 1.833zm-172.24-86.633a8.868 8.868 0 0 1-2.06 5.696l-5.766 6.934c-13.195 2.249-22.309 5.736-31.047 9.451l23.102-27.787a8.91 8.91 0 0 1 12.551-1.149 8.86 8.86 0 0 1 3.22 6.855z"/><path d="M456.993 689.335a2.001 2.001 0 0 1-1.539-3.279l23.102-27.788c3.851-4.626 10.745-5.257 15.369-1.408a10.864 10.864 0 0 1 3.94 8.393c0 2.546-.896 5.023-2.523 6.976l-5.764 6.933a1.998 1.998 0 0 1-1.202.693c-13.371 2.279-22.449 5.854-30.6 9.32a1.98 1.98 0 0 1-.783.16zm29.957-30.995a6.901 6.901 0 0 0-5.319 2.487l-17.998 21.648c6.426-2.452 13.806-4.76 23.339-6.437l5.294-6.368a6.91 6.91 0 0 0-5.316-11.33zm1.09 19.544h.01z"/></g></svg></g><g transform="translate(977.0 997.0) rotate(0.0 -373.5 166.5) scale(-0.7733167420486579 0.7735802595326925)"><svg width="965.969" height="430.466" viewBox="0 0 965.969 430.466"><path d="M1.5 410.944v2.564a15.461 15.461 0 0 0 15.457 15.458h579.385a15.464 15.464 0 0 0 15.458-15.458v-2.564a15.46 15.46 0 0 0-15.457-15.457H16.957A15.46 15.46 0 0 0 1.5 410.944z" fill="#FECE2F"/><path d="M596.342 430.466H16.957A16.976 16.976 0 0 1 0 413.509v-2.565a16.976 16.976 0 0 1 16.957-16.957h579.385a16.977 16.977 0 0 1 16.958 16.957v2.565a16.964 16.964 0 0 1-16.958 16.957zM16.957 396.987A13.973 13.973 0 0 0 3 410.944v2.565a13.973 13.973 0 0 0 13.957 13.957h579.385a13.964 13.964 0 0 0 13.958-13.957v-2.565a13.974 13.974 0 0 0-13.958-13.957z" fill="#1a1a1a"/><path d="M951.968 1.5h-579.15c-8.524 0-16.9 6.958-18.713 15.541l-83.829 395.866c-1.813 8.583 3.628 15.541 12.151 15.541h579.151c8.524 0 16.9-6.958 18.713-15.541L964.12 17.041C965.933 8.458 960.492 1.5 951.968 1.5z" fill="#FECE2F"/><path d="M861.578 429.948h-579.15A13.8 13.8 0 0 1 271.435 425a14.517 14.517 0 0 1-2.627-12.4l83.83-395.87c1.948-9.225 11-16.73 20.18-16.73h579.151a13.79 13.79 0 0 1 10.991 4.95 14.517 14.517 0 0 1 2.628 12.4l-83.829 395.868c-1.949 9.225-11.002 16.73-20.181 16.73zM372.818 3c-7.838 0-15.574 6.437-17.245 14.35l-83.83 395.868a11.581 11.581 0 0 0 2.023 9.891 10.849 10.849 0 0 0 8.662 3.839h579.15c7.838 0 15.574-6.437 17.246-14.35L962.653 16.73a11.581 11.581 0 0 0-2.023-9.891A10.85 10.85 0 0 0 951.969 3z" fill="#1a1a1a"/><path d="m545.026 218.636 6.317-21a13.478 13.478 0 0 1 13.157-10.73h119.053a8.112 8.112 0 0 1 7.895 9.818l-6.317 21a13.479 13.479 0 0 1-13.161 10.733H552.921a8.114 8.114 0 0 1-7.895-9.821z" fill="#FFF"/><path d="M671.97 229.954H552.921a9.513 9.513 0 0 1-7.418-3.543 9.623 9.623 0 0 1-1.945-8.085c.009-.042.02-.082.032-.123l6.3-20.938a15.051 15.051 0 0 1 14.61-11.859h119.053a9.513 9.513 0 0 1 7.418 3.542 9.628 9.628 0 0 1 1.944 8.087 1.282 1.282 0 0 1-.031.122l-6.3 20.938a15.05 15.05 0 0 1-14.614 11.859zM546.482 219a6.633 6.633 0 0 0 1.351 5.518 6.527 6.527 0 0 0 5.088 2.432H671.97a12.036 12.036 0 0 0 11.693-9.543c.009-.041.019-.081.032-.122l6.3-20.933a6.64 6.64 0 0 0-1.352-5.519 6.524 6.524 0 0 0-5.087-2.431H564.5a12.036 12.036 0 0 0-11.693 9.542 1.701 1.701 0 0 1-.031.123z" fill="#1a1a1a"/></svg></g><g transform="translate(223.0 992.0) rotate(0.0 379.5 170.0) scale(1.0152066995616822 1.0176563374548415)"><svg width="747.631" height="334.101" viewBox="0 0 747.631 334.101"><g><g><g><path style="fill:#fece2f" d="M745.631 318.184v1.98c-.001 6.592-5.344 11.935-11.936 11.937H286.278c-6.592-.003-11.935-5.345-11.937-11.937v-1.98c.001-6.592 5.345-11.935 11.936-11.936h447.418c6.592.001 11.935 5.344 11.936 11.936z"/><path style="fill:#1a1a1a" d="M733.696 334.101H286.277c-7.683-.003-13.935-6.255-13.937-13.937v-1.981c.001-7.683 6.252-13.935 13.936-13.936h447.419c7.684.001 13.935 6.253 13.936 13.936v1.98c-.001 7.684-6.252 13.936-13.935 13.938zm-447.42-25.853c-5.478.001-9.935 4.459-9.936 9.937v1.98c.002 5.477 4.459 9.935 9.938 9.937h447.417c5.478-.001 9.935-4.459 9.936-9.937v-1.979c-.001-5.478-4.458-9.936-9.936-9.937H286.276z"/></g><g><path style="fill:#fece2f" d="M11.653 2h447.236c6.582 0 13.051 5.373 14.451 12.001L538.075 319.7c1.4 6.628-2.802 12.001-9.383 12.001H81.455c-6.582 0-13.051-5.373-14.451-12.001L2.269 14.001C.869 7.373 5.071 2 11.653 2z"/><path style="fill:#1a1a1a" d="M528.692 333.701H81.455c-7.465 0-14.825-6.095-16.408-13.588L.312 14.415C-.505 10.541.276 6.89 2.511 4.133 4.673 1.468 7.92 0 11.653 0h447.235c7.465 0 14.825 6.095 16.408 13.588l64.735 305.698c.817 3.874.036 7.525-2.199 10.282-2.161 2.665-5.407 4.133-9.14 4.133zM11.653 4c-2.504 0-4.648.942-6.035 2.653-1.462 1.802-1.956 4.265-1.393 6.935L68.96 319.286c1.213 5.744 6.818 10.416 12.494 10.416H528.69c2.504 0 4.647-.942 6.034-2.653 1.462-1.803 1.956-4.266 1.393-6.935L471.383 14.415C470.17 8.672 464.565 4 458.889 4H11.653z"/></g><g><path style="fill:#fff" d="m325.905 169.679-4.878-16.217a10.408 10.408 0 0 0-10.16-8.286h-91.936a6.264 6.264 0 0 0-6.097 7.582l4.878 16.217a10.409 10.409 0 0 0 10.163 8.288h91.933a6.266 6.266 0 0 0 6.097-7.584z"/><path style="fill:#1a1a1a" d="M227.875 179.263c-5.807-.015-10.88-4.128-12.103-9.792l-4.854-16.137a2.13 2.13 0 0 1-.041-.157 8.38 8.38 0 0 1-.184-1.7 8.21 8.21 0 0 1 2.395-5.855 8.205 8.205 0 0 1 5.833-2.446h91.945c5.806.016 10.877 4.128 12.1 9.789l4.854 16.137c.016.052.029.104.041.157.119.558.181 1.13.184 1.699a8.21 8.21 0 0 1-2.394 5.856 8.213 8.213 0 0 1-5.834 2.448h-91.942zm-13.1-26.996 4.853 16.132c.017.055.031.112.043.168.806 3.87 4.259 6.686 8.21 6.696h91.929a4.233 4.233 0 0 0 3.001-1.263 4.234 4.234 0 0 0 1.235-3.022 4.298 4.298 0 0 0-.08-.808l-4.853-16.132a1.97 1.97 0 0 1-.043-.168c-.806-3.868-4.257-6.683-8.208-6.694h-91.931c-1.131.005-2.199.453-3.001 1.262s-1.24 1.882-1.235 3.021c0 .27.028.541.08.808z"/></g></g></g></svg></g><g transform="translate(128.0 703.0) rotate(0.0 138.0 297.5) scale(1.0004821163821696 1.0015637861467737)"><svg width="275.867" height="594.071" viewBox="0 0 275.867 594.071"><g fill="#1a1a1a"><ellipse cx="167.459" cy="518.031" rx="106.408" ry="74.04"/><path d="M167.459 594.071c-59.776 0-108.408-34.111-108.408-76.04 0-41.928 48.632-76.04 108.408-76.04s108.408 34.111 108.408 76.04-48.632 76.04-108.408 76.04zm0-148.08c-57.571 0-104.408 32.317-104.408 72.04s46.837 72.04 104.408 72.04 104.408-32.317 104.408-72.04-46.837-72.04-104.408-72.04z"/><path d="M61.051 514.944H21.813C9.785 514.944 0 505.159 0 493.131V22.105C0 10.124 9.747.339 21.728.292L127.018 0h.005a2 2 0 0 1 .005 4l-105.287.292C11.96 4.33 4 12.321 4 22.105v471.026c0 9.822 7.991 17.813 17.812 17.813H61.05a2 2 0 0 1 .001 4z"/></g><ellipse cx="167.459" cy="512.944" fill="#fff" rx="106.408" ry="74.04"/><path d="M167.459 588.984c-59.776 0-108.408-34.111-108.408-76.04s48.632-76.04 108.408-76.04 108.408 34.111 108.408 76.04c0 41.928-48.632 76.04-108.408 76.04zm0-148.08c-57.571 0-104.408 32.317-104.408 72.04s46.837 72.04 104.408 72.04 104.408-32.317 104.408-72.04-46.837-72.04-104.408-72.04z" fill="#1a1a1a"/><ellipse cx="167.459" cy="512.944" fill="#1a1a1a" rx="37.408" ry="26.029"/><circle cx="62.602" cy="512.944" fill="#fff" r="17.056"/><path d="M62.602 503.888c4.994 0 9.056 4.063 9.056 9.056 0 4.994-4.063 9.056-9.056 9.056s-9.056-4.063-9.056-9.056c-.001-4.994 4.062-9.056 9.056-9.056m0-8c-9.42 0-17.056 7.636-17.056 17.056S53.182 530 62.602 530s17.056-7.636 17.056-17.056-7.637-17.056-17.056-17.056z" fill="#1a1a1a"/></svg></g></svg>